{
copyright = "Copyright (c) 2015, Cadson Demak (info@cadsondemak.com)";
customParameters = (
{
name = vendorID;
value = CDK;
},
{
name = description;
value = "Copyright (c) 2015, Cadson Demak (info@cadsondemak.com)";
},
{
name = license;

glyphs = (
{
glyphname = A;
lastChange = "2015-10-28 04:34:47 +0000";
layers = (
{
layerId = "72ACC467-88F1-4B5B-B511-FE0603CECF6A";
name = "Light Italic";
paths = (
{
closed = 1;
nodes = (
"72 0 LINE",
"194 201 LINE",
"531 201 LINE",
"569 0 LINE",
"620 0 LINE",
"489 699 LINE",
"442 699 LINE",
"15 0 LINE"
);
},
{
closed = 1;
nodes = (
"454 633 LINE",
"525 246 LINE",
"220 246 LINE"
);
}
);
width = 715;
}
);
leftKerningGroup = A;
note = A;
rightKerningGroup = A;
unicode = 0041;
},
{
glyphname = Aacute;
lastChange = "2015-10-28 04:34:46 +0000";
layers = (
{
layerId = "72ACC467-88F1-4B5B-B511-FE0603CECF6A";
name = "Light Italic";
paths = (
{
closed = 1;
nodes = (
"72 0 LINE",
"194 201 LINE",
"531 201 LINE",
"569 0 LINE",
"620 0 LINE",
"489 699 LINE",
"442 699 LINE",
"15 0 LINE"
);
},
{
closed = 1;
nodes = (
"454 633 LINE",
"525 246 LINE",
"220 246 LINE"
);
},
{
closed = 1;
nodes = (
"506 754 LINE",
"620 923 LINE",
"566 923 LINE",
"460 754 LINE"
);
}
);
width = 715;
}
);
leftKerningGroup = A;
note = Aacute;
rightKerningGroup = A;
unicode = 00C1;
},
{
glyphname = Abreve;
lastChange = "2015-10-28 04:34:49 +0000";
layers = (
{
layerId = "72ACC467-88F1-4B5B-B511-FE0603CECF6A";
name = "Light Italic";
paths = (
{
closed = 1;
nodes = (
"72 0 LINE",
"194 201 LINE",
"531 201 LINE",
"569 0 LINE",
"620 0 LINE",
"489 699 LINE",
"442 699 LINE",
"15 0 LINE"
);
},
{
closed = 1;
nodes = (
"454 633 LINE",
"525 246 LINE",
"220 246 LINE"
);
},
{
closed = 1;
nodes = (
"554 755 OFFCURVE",
"616 807 OFFCURVE",
"630 874 CURVE",
"589 874 LINE",
"579 827 OFFCURVE",
"539 794 OFFCURVE",
"485 794 CURVE SMOOTH",
"431 794 OFFCURVE",
"405 827 OFFCURVE",
"415 874 CURVE",
"373 874 LINE",
"359 807 OFFCURVE",
"399 755 OFFCURVE",
"477 755 CURVE SMOOTH"
);
}
);
width = 715;
}
);
leftKerningGroup = A;
note = Abreve;
rightKerningGroup = A;
unicode = 0102;
},
{
glyphname = Abreveacute;
lastChange = "2015-10-28 04:34:46 +0000";
layers = (
{
layerId = "72ACC467-88F1-4B5B-B511-FE0603CECF6A";
name = "Light Italic";
paths = (
{
closed = 1;
nodes = (
"72 0 LINE",
"194 201 LINE",
"531 201 LINE",
"569 0 LINE",
"620 0 LINE",
"489 699 LINE",
"442 699 LINE",
"15 0 LINE"
);
},
{
closed = 1;
nodes = (
"454 633 LINE",
"525 246 LINE",
"220 246 LINE"
);
},
{
closed = 1;
nodes = (
"553 746 OFFCURVE",
"614 797 OFFCURVE",
"628 864 CURVE",
"587 864 LINE",
"577 817 OFFCURVE",
"538 784 OFFCURVE",
"484 784 CURVE SMOOTH",
"430 784 OFFCURVE",
"404 817 OFFCURVE",
"414 864 CURVE",
"373 864 LINE",
"359 797 OFFCURVE",
"399 746 OFFCURVE",
"476 746 CURVE SMOOTH"
);
},
{
closed = 1;
nodes = (
"503 840 LINE",
"590 961 LINE",
"544 961 LINE",
"465 840 LINE"
);
}
);
width = 715;
}
);
leftKerningGroup = A;
note = Abreveacute;
rightKerningGroup = A;
unicode = 1EAE;
},
{
glyphname = Abrevedotbelow;
lastChange = "2015-10-28 04:34:46 +0000";
layers = (
{
layerId = "72ACC467-88F1-4B5B-B511-FE0603CECF6A";
name = "Light Italic";
paths = (
{
closed = 1;
nodes = (
"72 0 LINE",
"194 201 LINE",
"531 201 LINE",
"569 0 LINE",
"620 0 LINE",
"489 699 LINE",
"442 699 LINE",
"15 0 LINE"
);
},
{
closed = 1;
nodes = (
"309 -137 OFFCURVE",
"330 -119 OFFCURVE",
"335 -98 CURVE",
"339 -77 OFFCURVE",
"325 -60 OFFCURVE",
"306 -60 CURVE SMOOTH",
"285 -60 OFFCURVE",
"263 -77 OFFCURVE",
"259 -98 CURVE",
"254 -119 OFFCURVE",
"268 -137 OFFCURVE",
"289 -137 CURVE SMOOTH"
);
},
{
closed = 1;
nodes = (
"454 633 LINE",
"525 246 LINE",
"220 246 LINE"
);
},
{
closed = 1;
nodes = (
"553 749 OFFCURVE",
"615 801 OFFCURVE",
"629 868 CURVE",
"588 868 LINE",
"578 821 OFFCURVE",
"538 788 OFFCURVE",
"484 788 CURVE SMOOTH",
"430 788 OFFCURVE",
"404 821 OFFCURVE",
"414 868 CURVE",
"372 868 LINE",
"358 801 OFFCURVE",
"398 749 OFFCURVE",
"476 749 CURVE SMOOTH"
);
}
);
width = 715;
}
);
leftKerningGroup = A;
note = Abrevedotbelow;
rightKerningGroup = A;
unicode = 1EB6;
},
{
glyphname = Abrevegrave;
lastChange = "2015-10-28 04:34:48 +0000";
layers = (
{
layerId = "72ACC467-88F1-4B5B-B511-FE0603CECF6A";
name = "Light Italic";
paths = (
{
closed = 1;
nodes = (
"72 0 LINE",
"194 201 LINE",
"531 201 LINE",
"569 0 LINE",
"620 0 LINE",
"489 699 LINE",
"442 699 LINE",
"15 0 LINE"
);
},
{
closed = 1;
nodes = (
"454 633 LINE",
"525 246 LINE",
"220 246 LINE"
);
},
{
closed = 1;
nodes = (
"553 746 OFFCURVE",
"614 797 OFFCURVE",
"628 864 CURVE",
"587 864 LINE",
"577 817 OFFCURVE",
"538 784 OFFCURVE",
"484 784 CURVE SMOOTH",
"430 784 OFFCURVE",
"404 817 OFFCURVE",
"414 864 CURVE",
"373 864 LINE",
"359 797 OFFCURVE",
"399 746 OFFCURVE",
"476 746 CURVE SMOOTH"
);
},
{
closed = 1;
nodes = (
"527 840 LINE",
"500 961 LINE",
"453 961 LINE",
"489 840 LINE"
);
}
);
width = 715;
}
);
leftKerningGroup = A;
note = Abrevegrave;
rightKerningGroup = A;
unicode = 1EB0;
},
{
glyphname = Abrevehookabove;
lastChange = "2015-10-28 04:34:47 +0000";
layers = (
{
layerId = "72ACC467-88F1-4B5B-B511-FE0603CECF6A";
name = "Light Italic";
paths = (
{
closed = 1;
nodes = (
"72 0 LINE",
"194 201 LINE",
"531 201 LINE",
"569 0 LINE",
"620 0 LINE",
"489 699 LINE",
"442 699 LINE",
"15 0 LINE"
);
},
{
closed = 1;
nodes = (
"454 633 LINE",
"525 246 LINE",
"220 246 LINE"
);
},
{
closed = 1;
nodes = (
"553 745 OFFCURVE",
"614 796 OFFCURVE",
"628 863 CURVE",
"588 863 LINE",
"578 816 OFFCURVE",
"538 783 OFFCURVE",
"484 783 CURVE SMOOTH",
"430 783 OFFCURVE",
"404 816 OFFCURVE",
"414 863 CURVE",
"373 863 LINE",
"359 796 OFFCURVE",
"399 745 OFFCURVE",
"476 745 CURVE SMOOTH"
);
},
{
closed = 1;
nodes = (
"503 828 LINE",
"508 854 LINE",
"553 858 OFFCURVE",
"583 883 OFFCURVE",
"590 917 CURVE SMOOTH",
"598 955 OFFCURVE",
"578 981 OFFCURVE",
"526 981 CURVE SMOOTH",
"506 981 OFFCURVE",
"483 977 OFFCURVE",
"469 972 CURVE",
"463 942 LINE",
"475 947 OFFCURVE",
"496 950 OFFCURVE",
"512 950 CURVE SMOOTH",
"542 950 OFFCURVE",
"554 941 OFFCURVE",
"549 917 CURVE SMOOTH",
"543 889 OFFCURVE",
"521 878 OFFCURVE",
"477 878 CURVE",
"467 828 LINE"
);
}
);
width = 715;
}
);
leftKerningGroup = A;
note = Abrevehookabove;
rightKerningGroup = A;
unicode = 1EB2;
},
{
glyphname = Abrevetilde;
lastChange = "2015-10-28 04:34:46 +0000";
layers = (
{
layerId = "72ACC467-88F1-4B5B-B511-FE0603CECF6A";
name = "Light Italic";
paths = (
{
closed = 1;
nodes = (
"72 0 LINE",
"194 201 LINE",
"531 201 LINE",
"569 0 LINE",
"620 0 LINE",
"489 699 LINE",
"442 699 LINE",
"15 0 LINE"
);
},
{
closed = 1;
nodes = (
"454 633 LINE",
"525 246 LINE",
"220 246 LINE"
);
},
{
closed = 1;
nodes = (
"555 745 OFFCURVE",
"616 796 OFFCURVE",
"630 863 CURVE",
"590 863 LINE",
"580 816 OFFCURVE",
"540 783 OFFCURVE",
"486 783 CURVE SMOOTH",
"432 783 OFFCURVE",
"406 816 OFFCURVE",
"416 863 CURVE",
"375 863 LINE",
"361 796 OFFCURVE",
"401 745 OFFCURVE",
"478 745 CURVE SMOOTH"
);
},
{
closed = 1;
nodes = (
"385 921 OFFCURVE",
"410 931 OFFCURVE",
"440 931 CURVE SMOOTH",
"488 931 OFFCURVE",
"524 887 OFFCURVE",
"580 887 CURVE SMOOTH",
"615 887 OFFCURVE",
"641 896 OFFCURVE",
"663 923 CURVE",
"673 969 LINE",
"644 934 OFFCURVE",
"619 923 OFFCURVE",
"588 923 CURVE SMOOTH",
"539 923 OFFCURVE",
"500 968 OFFCURVE",
"448 968 CURVE SMOOTH",
"414 968 OFFCURVE",
"385 958 OFFCURVE",
"364 931 CURVE",
"354 886 LINE"
);
}
);
width = 715;
}
);
leftKerningGroup = A;
note = Abrevetilde;
rightKerningGroup = A;
unicode = 1EB4;
},
{
glyphname = Acaron;
lastChange = "2015-10-28 04:34:45 +0000";
layers = (
{
layerId = "72ACC467-88F1-4B5B-B511-FE0603CECF6A";
name = "Light Italic";
paths = (
{
closed = 1;
nodes = (
"72 0 LINE",
"194 201 LINE",
"531 201 LINE",
"569 0 LINE",
"620 0 LINE",
"489 699 LINE",
"442 699 LINE",
"15 0 LINE"
);
},
{
closed = 1;
nodes = (
"454 633 LINE",
"525 246 LINE",
"220 246 LINE"
);
},
{
closed = 1;
nodes = (
"501 763 LINE",
"667 919 LINE",
"613 919 LINE",
"487 798 LINE",
"413 919 LINE",
"358 919 LINE",
"456 763 LINE"
);
}
);
width = 715;
}
);
leftKerningGroup = A;
note = Acaron;
rightKerningGroup = A;
unicode = 01CD;
},
{
glyphname = Acircumflex;
lastChange = "2015-10-28 04:34:47 +0000";
layers = (
{
layerId = "72ACC467-88F1-4B5B-B511-FE0603CECF6A";
name = "Light Italic";
paths = (
{
closed = 1;
nodes = (
"72 0 LINE",
"194 201 LINE",
"531 201 LINE",
"569 0 LINE",
"620 0 LINE",
"489 699 LINE",
"442 699 LINE",
"15 0 LINE"
);
},
{
closed = 1;
nodes = (
"454 633 LINE",
"525 246 LINE",
"220 246 LINE"
);
},
{
closed = 1;
nodes = (
"378 758 LINE",
"503 879 LINE",
"578 758 LINE",
"632 758 LINE",
"533 914 LINE",
"488 914 LINE",
"324 758 LINE"
);
}
);
width = 715;
}
);
leftKerningGroup = A;
note = Acircumflex;
rightKerningGroup = A;
unicode = 00C2;
},
{
glyphname = Acircumflexacute;
lastChange = "2015-10-28 04:34:47 +0000";
layers = (
{
layerId = "72ACC467-88F1-4B5B-B511-FE0603CECF6A";
name = "Light Italic";
paths = (
{
closed = 1;
nodes = (
"72 0 LINE",
"194 201 LINE",
"531 201 LINE",
"569 0 LINE",
"620 0 LINE",
"489 699 LINE",
"442 699 LINE",
"15 0 LINE"
);
},
{
closed = 1;
nodes = (
"454 633 LINE",
"525 246 LINE",
"220 246 LINE"
);
},
{
closed = 1;
nodes = (
"376 744 LINE",
"490 835 LINE",
"566 744 LINE",
"619 744 LINE",
"515 868 LINE",
"478 868 LINE",
"322 744 LINE"
);
},
{
closed = 1;
nodes = (
"613 837 LINE",
"712 951 LINE",
"666 951 LINE",
"575 837 LINE"
);
}
);
width = 715;
}
);
leftKerningGroup = A;
note = Acircumflexacute;
rightKerningGroup = A;
unicode = 1EA4;
},
{
glyphname = Acircumflexdotbelow;
lastChange = "2015-10-28 04:34:49 +0000";
layers = (
{
layerId = "72ACC467-88F1-4B5B-B511-FE0603CECF6A";
name = "Light Italic";
paths = (
{
closed = 1;
nodes = (
"72 0 LINE",
"194 201 LINE",
"531 201 LINE",
"569 0 LINE",
"620 0 LINE",
"489 699 LINE",
"442 699 LINE",
"15 0 LINE"
);
},
{
closed = 1;
nodes = (
"309 -137 OFFCURVE",
"330 -119 OFFCURVE",
"335 -98 CURVE",
"339 -77 OFFCURVE",
"325 -60 OFFCURVE",
"306 -60 CURVE SMOOTH",
"285 -60 OFFCURVE",
"263 -77 OFFCURVE",
"259 -98 CURVE",
"254 -119 OFFCURVE",
"268 -137 OFFCURVE",
"289 -137 CURVE SMOOTH"
);
},
{
closed = 1;
nodes = (
"454 633 LINE",
"525 246 LINE",
"220 246 LINE"
);
},
{
closed = 1;
nodes = (
"380 764 LINE",
"505 885 LINE",
"580 764 LINE",
"634 764 LINE",
"535 920 LINE",
"490 920 LINE",
"326 764 LINE"
);
}
);
width = 715;
}
);
leftKerningGroup = A;
note = Acircumflexdotbelow;
rightKerningGroup = A;
unicode = 1EAC;
},
{
glyphname = Acircumflexgrave;
lastChange = "2015-10-28 04:34:47 +0000";
layers = (
{
layerId = "72ACC467-88F1-4B5B-B511-FE0603CECF6A";
name = "Light Italic";
paths = (
{
closed = 1;
nodes = (
"72 0 LINE",
"194 201 LINE",
"531 201 LINE",
"569 0 LINE",
"620 0 LINE",
"489 699 LINE",
"442 699 LINE",
"15 0 LINE"
);
},
{
closed = 1;
nodes = (
"454 633 LINE",
"525 246 LINE",
"220 246 LINE"
);
},
{
closed = 1;
nodes = (
"413 837 LINE",
"369 951 LINE",
"323 951 LINE",
"375 837 LINE"
);
},
{
closed = 1;
nodes = (
"382 744 LINE",
"496 835 LINE",
"572 744 LINE",
"625 744 LINE",
"522 868 LINE",
"485 868 LINE",
"329 744 LINE"
);
}
);
width = 715;
}
);
leftKerningGroup = A;
note = Acircumflexgrave;
rightKerningGroup = A;
unicode = 1EA6;
},
{
glyphname = Acircumflexhookabove;
lastChange = "2015-10-28 04:34:46 +0000";
layers = (
{
layerId = "72ACC467-88F1-4B5B-B511-FE0603CECF6A";
name = "Light Italic";
paths = (
{
closed = 1;
nodes = (
"72 0 LINE",
"194 201 LINE",
"531 201 LINE",
"569 0 LINE",
"620 0 LINE",
"489 699 LINE",
"442 699 LINE",
"15 0 LINE"
);
},
{
closed = 1;
nodes = (
"454 633 LINE",
"525 246 LINE",
"220 246 LINE"
);
},
{
closed = 1;
nodes = (
"382 744 LINE",
"496 835 LINE",
"572 744 LINE",
"624 744 LINE",
"521 868 LINE",
"484 868 LINE",
"328 744 LINE"
);
},
{
closed = 1;
nodes = (
"618 828 LINE",
"623 854 LINE",
"668 858 OFFCURVE",
"698 883 OFFCURVE",
"705 917 CURVE SMOOTH",
"713 955 OFFCURVE",
"693 981 OFFCURVE",
"641 981 CURVE SMOOTH",
"621 981 OFFCURVE",
"599 977 OFFCURVE",
"585 972 CURVE",
"579 942 LINE",
"591 947 OFFCURVE",
"611 950 OFFCURVE",
"627 950 CURVE SMOOTH",
"657 950 OFFCURVE",
"669 941 OFFCURVE",
"664 917 CURVE SMOOTH",
"658 889 OFFCURVE",
"636 878 OFFCURVE",
"593 878 CURVE",
"583 828 LINE"
);
}
);
width = 715;
}
);
leftKerningGroup = A;
note = Acircumflexhookabove;
rightKerningGroup = A;
unicode = 1EA8;
},
{
glyphname = Acircumflextilde;
lastChange = "2015-10-28 04:34:48 +0000";
layers = (
{
layerId = "72ACC467-88F1-4B5B-B511-FE0603CECF6A";
name = "Light Italic";
paths = (
{
closed = 1;
nodes = (
"72 0 LINE",
"194 201 LINE",
"531 201 LINE",
"569 0 LINE",
"620 0 LINE",
"489 699 LINE",
"442 699 LINE",
"15 0 LINE"
);
},
{
closed = 1;
nodes = (
"454 633 LINE",
"525 246 LINE",
"220 246 LINE"
);
},
{
closed = 1;
nodes = (
"378 744 LINE",
"492 835 LINE",
"568 744 LINE",
"620 744 LINE",
"517 868 LINE",
"480 868 LINE",
"324 744 LINE"
);
},
{
closed = 1;
nodes = (
"385 917 OFFCURVE",
"409 927 OFFCURVE",
"439 927 CURVE SMOOTH",
"488 927 OFFCURVE",
"523 882 OFFCURVE",
"580 882 CURVE SMOOTH",
"613 882 OFFCURVE",
"641 892 OFFCURVE",
"663 919 CURVE",
"673 964 LINE",
"643 929 OFFCURVE",
"617 919 OFFCURVE",
"588 919 CURVE SMOOTH",
"538 919 OFFCURVE",
"500 964 OFFCURVE",
"447 964 CURVE SMOOTH",
"413 964 OFFCURVE",
"386 954 OFFCURVE",
"363 927 CURVE",
"353 881 LINE"
);
}
);
width = 715;
}
);
leftKerningGroup = A;
note = Acircumflextilde;
rightKerningGroup = A;
unicode = 1EAA;
},
{
glyphname = Adieresis;
lastChange = "2015-10-28 04:34:47 +0000";
layers = (
{
layerId = "72ACC467-88F1-4B5B-B511-FE0603CECF6A";
name = "Light Italic";
paths = (
{
closed = 1;
nodes = (
"72 0 LINE",
"194 201 LINE",
"531 201 LINE",
"569 0 LINE",
"620 0 LINE",
"489 699 LINE",
"442 699 LINE",
"15 0 LINE"
);
},
{
closed = 1;
nodes = (
"454 633 LINE",
"525 246 LINE",
"220 246 LINE"
);
},
{
closed = 1;
nodes = (
"394 759 OFFCURVE",
"416 777 OFFCURVE",
"421 798 CURVE",
"425 819 OFFCURVE",
"411 836 OFFCURVE",
"391 836 CURVE SMOOTH",
"370 836 OFFCURVE",
"349 819 OFFCURVE",
"345 798 CURVE",
"340 777 OFFCURVE",
"353 759 OFFCURVE",
"374 759 CURVE SMOOTH"
);
},
{
closed = 1;
nodes = (
"602 759 OFFCURVE",
"624 777 OFFCURVE",
"629 798 CURVE",
"633 819 OFFCURVE",
"619 836 OFFCURVE",
"598 836 CURVE SMOOTH",
"577 836 OFFCURVE",
"555 819 OFFCURVE",
"551 798 CURVE",
"546 777 OFFCURVE",
"560 759 OFFCURVE",
"581 759 CURVE SMOOTH"
);
}
);
width = 715;
}
);
leftKerningGroup = A;
note = Adieresis;
rightKerningGroup = A;
unicode = 00C4;
},
{
glyphname = Adotbelow;
lastChange = "2015-10-28 04:34:46 +0000";
layers = (
{
layerId = "72ACC467-88F1-4B5B-B511-FE0603CECF6A";
name = "Light Italic";
paths = (
{
closed = 1;
nodes = (
"72 0 LINE",
"194 201 LINE",
"531 201 LINE",
"569 0 LINE",
"620 0 LINE",
"489 699 LINE",
"442 699 LINE",
"15 0 LINE"
);
},
{
closed = 1;
nodes = (
"309 -137 OFFCURVE",
"330 -119 OFFCURVE",
"335 -98 CURVE",
"339 -77 OFFCURVE",
"325 -60 OFFCURVE",
"306 -60 CURVE SMOOTH",
"285 -60 OFFCURVE",
"263 -77 OFFCURVE",
"259 -98 CURVE",
"254 -119 OFFCURVE",
"268 -137 OFFCURVE",
"289 -137 CURVE SMOOTH"
);
},
{
closed = 1;
nodes = (
"454 633 LINE",
"525 246 LINE",
"220 246 LINE"
);
}
);
width = 715;
}
);
leftKerningGroup = A;
note = Adotbelow;
rightKerningGroup = A;
unicode = 1EA0;
},
{
glyphname = Agrave;
lastChange = "2015-10-28 04:34:47 +0000";
layers = (
{
layerId = "72ACC467-88F1-4B5B-B511-FE0603CECF6A";
name = "Light Italic";
paths = (
{
closed = 1;
nodes = (
"72 0 LINE",
"194 201 LINE",
"531 201 LINE",
"569 0 LINE",
"620 0 LINE",
"489 699 LINE",
"442 699 LINE",
"15 0 LINE"
);
},
{
closed = 1;
nodes = (
"454 633 LINE",
"525 246 LINE",
"220 246 LINE"
);
},
{
closed = 1;
nodes = (
"499 754 LINE",
"466 923 LINE",
"411 923 LINE",
"454 754 LINE"
);
}
);
width = 715;
}
);
leftKerningGroup = A;
note = Agrave;
rightKerningGroup = A;
unicode = 00C0;
},
{
glyphname = Ahookabove;
lastChange = "2015-10-28 04:34:48 +0000";
layers = (
{
layerId = "72ACC467-88F1-4B5B-B511-FE0603CECF6A";
name = "Light Italic";
paths = (
{
closed = 1;
nodes = (
"72 0 LINE",
"194 201 LINE",
"531 201 LINE",
"569 0 LINE",
"620 0 LINE",
"489 699 LINE",
"442 699 LINE",
"15 0 LINE"
);
},
{
closed = 1;
nodes = (
"454 633 LINE",
"525 246 LINE",
"220 246 LINE"
);
},
{
closed = 1;
nodes = (
"498 743 LINE",
"506 782 LINE",
"570 787 OFFCURVE",
"610 824 OFFCURVE",
"620 873 CURVE SMOOTH",
"631 925 OFFCURVE",
"602 962 OFFCURVE",
"527 962 CURVE SMOOTH",
"503 962 OFFCURVE",
"475 958 OFFCURVE",
"459 953 CURVE",
"452 918 LINE",
"465 924 OFFCURVE",
"494 927 OFFCURVE",
"512 927 CURVE SMOOTH",
"559 927 OFFCURVE",
"581 910 OFFCURVE",
"573 871 CURVE SMOOTH",
"564 828 OFFCURVE",
"535 808 OFFCURVE",
"467 808 CURVE",
"453 743 LINE"
);
}
);
width = 715;
}
);
leftKerningGroup = A;
note = Ahookabove;
rightKerningGroup = A;
unicode = 1EA2;
},
{
glyphname = Amacron;
lastChange = "2015-10-28 04:34:46 +0000";
layers = (
{
layerId = "72ACC467-88F1-4B5B-B511-FE0603CECF6A";
name = "Light Italic";
paths = (
{
closed = 1;
nodes = (
"72 0 LINE",
"194 201 LINE",
"531 201 LINE",
"569 0 LINE",
"620 0 LINE",
"489 699 LINE",
"442 699 LINE",
"15 0 LINE"
);
},
{
closed = 1;
nodes = (
"454 633 LINE",
"525 246 LINE",
"220 246 LINE"
);
},
{
closed = 1;
nodes = (
"629 793 LINE",
"637 832 LINE",
"348 832 LINE",
"341 793 LINE"
);
}
);
width = 715;
}
);
leftKerningGroup = A;
note = Amacron;
rightKerningGroup = A;
unicode = 0100;
},
{
glyphname = Aogonek;
lastChange = "2015-10-28 04:34:46 +0000";
layers = (
{
layerId = "72ACC467-88F1-4B5B-B511-FE0603CECF6A";
name = "Light Italic";
paths = (
{
closed = 1;
nodes = (
"562 -208 OFFCURVE",
"582 -205 OFFCURVE",
"596 -199 CURVE",
"604 -162 LINE",
"591 -167 OFFCURVE",
"574 -171 OFFCURVE",
"557 -171 CURVE SMOOTH",
"525 -171 OFFCURVE",
"509 -155 OFFCURVE",
"516 -119 CURVE SMOOTH",
"526 -73 OFFCURVE",
"563 -35 OFFCURVE",
"620 0 CURVE",
"489 699 LINE",
"442 699 LINE",
"15 0 LINE",
"72 0 LINE",
"194 201 LINE",
"531 201 LINE",
"569 0 LINE",
"523 -27 OFFCURVE",
"479 -72 OFFCURVE",
"468 -124 CURVE SMOOTH",
"456 -181 OFFCURVE",
"491 -208 OFFCURVE",
"539 -208 CURVE SMOOTH"
);
},
{
closed = 1;
nodes = (
"454 633 LINE",
"525 246 LINE",
"220 246 LINE"
);
}
);
width = 718;
}
);
leftKerningGroup = A;
note = Aogonek;
rightKerningGroup = A;
unicode = 0104;
},
{
glyphname = Aring;
lastChange = "2015-10-28 04:34:46 +0000";
layers = (
{
layerId = "72ACC467-88F1-4B5B-B511-FE0603CECF6A";
name = "Light Italic";
paths = (
{
closed = 1;
nodes = (
"72 0 LINE",
"194 201 LINE",
"531 201 LINE",
"569 0 LINE",
"620 0 LINE",
"494 671 LINE",
"534 685 OFFCURVE",
"569 722 OFFCURVE",
"578 764 CURVE SMOOTH",
"589 818 OFFCURVE",
"554 863 OFFCURVE",
"500 863 CURVE SMOOTH",
"445 863 OFFCURVE",
"391 818 OFFCURVE",
"379 764 CURVE SMOOTH",
"370 721 OFFCURVE",
"389 684 OFFCURVE",
"424 670 CURVE",
"15 0 LINE"
);
},
{
closed = 1;
nodes = (
"454 633 LINE",
"525 246 LINE",
"220 246 LINE"
);
},
{
closed = 1;
nodes = (
"430 700 OFFCURVE",
"408 729 OFFCURVE",
"416 764 CURVE SMOOTH",
"423 798 OFFCURVE",
"456 827 OFFCURVE",
"492 827 CURVE SMOOTH",
"527 827 OFFCURVE",
"549 798 OFFCURVE",
"542 764 CURVE SMOOTH",
"534 729 OFFCURVE",
"500 700 OFFCURVE",
"465 700 CURVE SMOOTH"
);
}
);
width = 715;
}
);
leftKerningGroup = A;
note = Aring;
rightKerningGroup = A;
unicode = 00C5;
},
{
glyphname = Aringacute;
lastChange = "2015-10-28 04:34:47 +0000";
layers = (
{
layerId = "72ACC467-88F1-4B5B-B511-FE0603CECF6A";
name = "Light Italic";
paths = (
{
closed = 1;
nodes = (
"72 0 LINE",
"194 201 LINE",
"531 201 LINE",
"569 0 LINE",
"620 0 LINE",
"494 671 LINE",
"534 685 OFFCURVE",
"569 722 OFFCURVE",
"578 764 CURVE SMOOTH",
"589 818 OFFCURVE",
"554 863 OFFCURVE",
"500 863 CURVE SMOOTH",
"445 863 OFFCURVE",
"391 818 OFFCURVE",
"379 764 CURVE SMOOTH",
"370 721 OFFCURVE",
"389 684 OFFCURVE",
"424 670 CURVE",
"15 0 LINE"
);
},
{
closed = 1;
nodes = (
"454 633 LINE",
"525 246 LINE",
"220 246 LINE"
);
},
{
closed = 1;
nodes = (
"430 700 OFFCURVE",
"408 729 OFFCURVE",
"416 764 CURVE SMOOTH",
"423 798 OFFCURVE",
"456 827 OFFCURVE",
"492 827 CURVE SMOOTH",
"527 827 OFFCURVE",
"549 798 OFFCURVE",
"542 764 CURVE SMOOTH",
"534 729 OFFCURVE",
"500 700 OFFCURVE",
"465 700 CURVE SMOOTH"
);
},
{
closed = 1;
nodes = (
"554 900 LINE",
"668 1035 LINE",
"614 1035 LINE",
"508 900 LINE"
);
}
);
width = 715;
}
);
leftKerningGroup = A;
note = Aringacute;
rightKerningGroup = A;
unicode = 01FA;
},
{
glyphname = Atilde;
lastChange = "2015-10-28 04:34:49 +0000";
layers = (
{
layerId = "72ACC467-88F1-4B5B-B511-FE0603CECF6A";
name = "Light Italic";
paths = (
{
closed = 1;
nodes = (
"72 0 LINE",
"194 201 LINE",
"531 201 LINE",
"569 0 LINE",
"620 0 LINE",
"489 699 LINE",
"442 699 LINE",
"15 0 LINE"
);
},
{
closed = 1;
nodes = (
"454 633 LINE",
"525 246 LINE",
"220 246 LINE"
);
},
{
closed = 1;
nodes = (
"337 806 OFFCURVE",
"369 817 OFFCURVE",
"403 817 CURVE SMOOTH",
"467 817 OFFCURVE",
"496 767 OFFCURVE",
"569 767 CURVE SMOOTH",
"608 767 OFFCURVE",
"644 778 OFFCURVE",
"671 811 CURVE",
"682 862 LINE",
"647 820 OFFCURVE",
"613 809 OFFCURVE",
"578 809 CURVE SMOOTH",
"513 809 OFFCURVE",
"480 859 OFFCURVE",
"412 859 CURVE SMOOTH",
"374 859 OFFCURVE",
"337 847 OFFCURVE",
"310 815 CURVE",
"299 764 LINE"
);
}
);
width = 715;
}
);
leftKerningGroup = A;
note = Atilde;
rightKerningGroup = A;
unicode = 00C3;
},
{
glyphname = AE;
lastChange = "2015-10-28 04:34:45 +0000";
layers = (
{
layerId = "72ACC467-88F1-4B5B-B511-FE0603CECF6A";
name = "Light Italic";
paths = (
{
closed = 1;
nodes = (
"69 0 LINE",
"217 201 LINE",
"474 201 LINE",
"432 0 LINE",
"823 0 LINE",
"832 45 LINE",
"494 45 LINE",
"554 327 LINE",
"798 327 LINE",
"808 372 LINE",
"564 372 LINE",
"624 654 LINE",
"962 654 LINE",
"971 699 LINE",
"531 699 LINE",
"15 0 LINE"
);
},
{
closed = 1;
nodes = (
"552 654 LINE",
"571 654 LINE",
"484 246 LINE",
"250 246 LINE"
);
}
);
width = 918;
}
);
leftKerningGroup = A;
note = AE;
rightKerningGroup = E;
unicode = 00C6;
},
{
glyphname = AEacute;
lastChange = "2015-10-28 04:34:47 +0000";
layers = (
{
layerId = "72ACC467-88F1-4B5B-B511-FE0603CECF6A";
name = "Light Italic";
paths = (
{
closed = 1;
nodes = (
"69 0 LINE",
"217 201 LINE",
"474 201 LINE",
"432 0 LINE",
"823 0 LINE",
"832 45 LINE",
"494 45 LINE",
"554 327 LINE",
"798 327 LINE",
"808 372 LINE",
"564 372 LINE",
"624 654 LINE",
"962 654 LINE",
"971 699 LINE",
"531 699 LINE",
"15 0 LINE"
);
},
{
closed = 1;
nodes = (
"552 654 LINE",
"571 654 LINE",
"484 246 LINE",
"250 246 LINE"
);
},
{
closed = 1;
nodes = (
"677 754 LINE",
"791 923 LINE",
"737 923 LINE",
"631 754 LINE"
);
}
);
width = 918;
}
);
leftKerningGroup = A;
note = AEacute;
rightKerningGroup = E;
unicode = 01FC;
},
{
glyphname = B;
lastChange = "2015-10-28 04:34:48 +0000";
layers = (
{
layerId = "72ACC467-88F1-4B5B-B511-FE0603CECF6A";
name = "Light Italic";
paths = (
{
closed = 1;
nodes = (
"351 0 LINE SMOOTH",
"463 0 OFFCURVE",
"555 69 OFFCURVE",
"578 189 CURVE SMOOTH",
"596 283 OFFCURVE",
"560 341 OFFCURVE",
"492 359 CURVE",
"551 382 OFFCURVE",
"606 437 OFFCURVE",
"622 516 CURVE SMOOTH",
"646 634 OFFCURVE",
"593 699 OFFCURVE",
"482 699 CURVE SMOOTH",
"183 699 LINE",
"35 0 LINE"
);
},
{
closed = 1;
nodes = (
"159 335 LINE",
"401 335 LINE SMOOTH",
"498 335 OFFCURVE",
"548 295 OFFCURVE",
"526 190 CURVE SMOOTH",
"503 83 OFFCURVE",
"434 45 OFFCURVE",
"352 45 CURVE SMOOTH",
"97 45 LINE"
);
},
{
closed = 1;
nodes = (
"227 654 LINE",
"468 654 LINE SMOOTH",
"551 654 OFFCURVE",
"592 620 OFFCURVE",
"570 515 CURVE SMOOTH",
"551 428 OFFCURVE",
"489 380 OFFCURVE",
"418 380 CURVE SMOOTH",
"168 380 LINE"
);
}
);
width = 633;
}
);
note = B;
unicode = 0042;
},
{
glyphname = C;
lastChange = "2015-10-28 04:34:50 +0000";
layers = (
{
layerId = "72ACC467-88F1-4B5B-B511-FE0603CECF6A";
name = "Light Italic";
paths = (
{
closed = 1;
nodes = (
"474 -15 OFFCURVE",
"570 7 OFFCURVE",
"641 68 CURVE",
"652 121 LINE",
"570 55 OFFCURVE",
"485 32 OFFCURVE",
"388 32 CURVE SMOOTH",
"212 32 OFFCURVE",
"98 146 OFFCURVE",
"141 349 CURVE SMOOTH",
"182 544 OFFCURVE",
"341 666 OFFCURVE",
"523 666 CURVE SMOOTH",
"614 666 OFFCURVE",
"691 640 OFFCURVE",
"741 582 CURVE",
"752 635 LINE",
"700 688 OFFCURVE",
"625 714 OFFCURVE",
"530 714 CURVE SMOOTH",
"305 714 OFFCURVE",
"135 569 OFFCURVE",
"89 349 CURVE SMOOTH",
"42 129 OFFCURVE",
"173 -15 OFFCURVE",
"375 -15 CURVE SMOOTH"
);
}
);
width = 722;
}
);
leftKerningGroup = C;
note = C;
rightKerningGroup = C;
unicode = 0043;
},
{
glyphname = Cacute;
lastChange = "2015-10-28 04:34:46 +0000";
layers = (
{
layerId = "72ACC467-88F1-4B5B-B511-FE0603CECF6A";
name = "Light Italic";
paths = (
{
closed = 1;
nodes = (
"474 -15 OFFCURVE",
"570 7 OFFCURVE",
"641 68 CURVE",
"652 121 LINE",
"570 55 OFFCURVE",
"485 32 OFFCURVE",
"388 32 CURVE SMOOTH",
"212 32 OFFCURVE",
"98 146 OFFCURVE",
"141 349 CURVE SMOOTH",
"182 544 OFFCURVE",
"341 666 OFFCURVE",
"523 666 CURVE SMOOTH",
"614 666 OFFCURVE",
"691 640 OFFCURVE",
"741 582 CURVE",
"752 635 LINE",
"700 688 OFFCURVE",
"625 714 OFFCURVE",
"530 714 CURVE SMOOTH",
"305 714 OFFCURVE",
"135 569 OFFCURVE",
"89 349 CURVE SMOOTH",
"42 129 OFFCURVE",
"173 -15 OFFCURVE",
"375 -15 CURVE SMOOTH"
);
},
{
closed = 1;
nodes = (
"545 766 LINE",
"659 935 LINE",
"605 935 LINE",
"499 766 LINE"
);
}
);
width = 722;
}
);
leftKerningGroup = C;
note = Cacute;
rightKerningGroup = C;
unicode = 0106;
},
{
glyphname = Ccaron;
lastChange = "2015-10-28 04:34:47 +0000";
layers = (
{
layerId = "72ACC467-88F1-4B5B-B511-FE0603CECF6A";
name = "Light Italic";
paths = (
{
closed = 1;
nodes = (
"474 -15 OFFCURVE",
"570 7 OFFCURVE",
"641 68 CURVE",
"652 121 LINE",
"570 55 OFFCURVE",
"485 32 OFFCURVE",
"388 32 CURVE SMOOTH",
"212 32 OFFCURVE",
"98 146 OFFCURVE",
"141 349 CURVE SMOOTH",
"182 544 OFFCURVE",
"341 666 OFFCURVE",
"523 666 CURVE SMOOTH",
"614 666 OFFCURVE",
"691 640 OFFCURVE",
"741 582 CURVE",
"752 635 LINE",
"700 688 OFFCURVE",
"625 714 OFFCURVE",
"530 714 CURVE SMOOTH",
"305 714 OFFCURVE",
"135 569 OFFCURVE",
"89 349 CURVE SMOOTH",
"42 129 OFFCURVE",
"173 -15 OFFCURVE",
"375 -15 CURVE SMOOTH"
);
},
{
closed = 1;
nodes = (
"561 769 LINE",
"727 925 LINE",
"673 925 LINE",
"547 804 LINE",
"473 925 LINE",
"418 925 LINE",
"516 769 LINE"
);
}
);
width = 722;
}
);
leftKerningGroup = C;
note = Ccaron;
rightKerningGroup = C;
unicode = 010C;
},
{
glyphname = Ccedilla;
lastChange = "2015-10-28 04:34:49 +0000";
layers = (
{
layerId = "72ACC467-88F1-4B5B-B511-FE0603CECF6A";
name = "Light Italic";
paths = (
{
closed = 1;
nodes = (
"390 -248 OFFCURVE",
"438 -209 OFFCURVE",
"449 -157 CURVE SMOOTH",
"460 -107 OFFCURVE",
"438 -73 OFFCURVE",
"374 -67 CURVE",
"406 -14 LINE",
"494 -10 OFFCURVE",
"577 13 OFFCURVE",
"641 68 CURVE",
"652 121 LINE",
"570 55 OFFCURVE",
"485 32 OFFCURVE",
"388 32 CURVE SMOOTH",
"212 32 OFFCURVE",
"98 146 OFFCURVE",
"141 349 CURVE SMOOTH",
"182 544 OFFCURVE",
"341 666 OFFCURVE",
"523 666 CURVE SMOOTH",
"614 666 OFFCURVE",
"691 640 OFFCURVE",
"741 582 CURVE",
"752 635 LINE",
"700 688 OFFCURVE",
"625 714 OFFCURVE",
"530 714 CURVE SMOOTH",
"305 714 OFFCURVE",
"135 569 OFFCURVE",
"89 349 CURVE SMOOTH",
"43 136 OFFCURVE",
"165 -6 OFFCURVE",
"356 -14 CURVE",
"311 -93 LINE",
"389 -93 OFFCURVE",
"409 -115 OFFCURVE",
"400 -156 CURVE SMOOTH",
"392 -196 OFFCURVE",
"362 -212 OFFCURVE",
"317 -212 CURVE SMOOTH",
"298 -212 OFFCURVE",
"274 -209 OFFCURVE",
"263 -203 CURVE",
"256 -239 LINE",
"268 -244 OFFCURVE",
"294 -248 OFFCURVE",
"318 -248 CURVE SMOOTH"
);
}
);
width = 722;
}
);
leftKerningGroup = C;
note = Ccedilla;
rightKerningGroup = C;
unicode = 00C7;
},
{
glyphname = Ccircumflex;
lastChange = "2015-10-28 04:34:48 +0000";
layers = (
{
layerId = "72ACC467-88F1-4B5B-B511-FE0603CECF6A";
name = "Light Italic";
paths = (
{
closed = 1;
nodes = (
"474 -15 OFFCURVE",
"570 7 OFFCURVE",
"641 68 CURVE",
"652 121 LINE",
"570 55 OFFCURVE",
"485 32 OFFCURVE",
"388 32 CURVE SMOOTH",
"212 32 OFFCURVE",
"98 146 OFFCURVE",
"141 349 CURVE SMOOTH",
"182 544 OFFCURVE",
"341 666 OFFCURVE",
"523 666 CURVE SMOOTH",
"614 666 OFFCURVE",
"691 640 OFFCURVE",
"741 582 CURVE",
"752 635 LINE",
"700 688 OFFCURVE",
"625 714 OFFCURVE",
"530 714 CURVE SMOOTH",
"305 714 OFFCURVE",
"135 569 OFFCURVE",
"89 349 CURVE SMOOTH",
"42 129 OFFCURVE",
"173 -15 OFFCURVE",
"375 -15 CURVE SMOOTH"
);
},
{
closed = 1;
nodes = (
"433 764 LINE",
"558 885 LINE",
"633 764 LINE",
"687 764 LINE",
"588 920 LINE",
"543 920 LINE",
"379 764 LINE"
);
}
);
width = 722;
}
);
leftKerningGroup = C;
note = Ccircumflex;
rightKerningGroup = C;
unicode = 0108;
},
{
glyphname = Cdotaccent;
lastChange = "2015-10-28 04:34:48 +0000";
layers = (
{
layerId = "72ACC467-88F1-4B5B-B511-FE0603CECF6A";
name = "Light Italic";
paths = (
{
closed = 1;
nodes = (
"474 -15 OFFCURVE",
"570 7 OFFCURVE",
"641 68 CURVE",
"652 121 LINE",
"570 55 OFFCURVE",
"485 32 OFFCURVE",
"388 32 CURVE SMOOTH",
"212 32 OFFCURVE",
"98 146 OFFCURVE",
"141 349 CURVE SMOOTH",
"182 544 OFFCURVE",
"341 666 OFFCURVE",
"523 666 CURVE SMOOTH",
"614 666 OFFCURVE",
"691 640 OFFCURVE",
"741 582 CURVE",
"752 635 LINE",
"700 688 OFFCURVE",
"625 714 OFFCURVE",
"530 714 CURVE SMOOTH",
"305 714 OFFCURVE",
"135 569 OFFCURVE",
"89 349 CURVE SMOOTH",
"42 129 OFFCURVE",
"173 -15 OFFCURVE",
"375 -15 CURVE SMOOTH"
);
},
{
closed = 1;
nodes = (
"560 771 OFFCURVE",
"582 789 OFFCURVE",
"587 810 CURVE",
"591 831 OFFCURVE",
"577 848 OFFCURVE",
"557 848 CURVE SMOOTH",
"536 848 OFFCURVE",
"514 831 OFFCURVE",
"510 810 CURVE",
"505 789 OFFCURVE",
"519 771 OFFCURVE",
"540 771 CURVE SMOOTH"
);
}
);
width = 722;
}
);
leftKerningGroup = C;
note = Cdotaccent;
rightKerningGroup = C;
unicode = 010A;
},
{
glyphname = D;
lastChange = "2015-10-28 04:34:46 +0000";
layers = (
{
layerId = "72ACC467-88F1-4B5B-B511-FE0603CECF6A";
name = "Light Italic";
paths = (
{
closed = 1;
nodes = (
"223 0 LINE SMOOTH",
"471 0 OFFCURVE",
"627 116 OFFCURVE",
"678 353 CURVE SMOOTH",
"723 566 OFFCURVE",
"616 699 OFFCURVE",
"390 699 CURVE SMOOTH",
"183 699 LINE",
"35 0 LINE"
);
},
{
closed = 1;
nodes = (
"227 654 LINE",
"377 654 LINE SMOOTH",
"591 654 OFFCURVE",
"665 540 OFFCURVE",
"626 353 CURVE SMOOTH",
"583 152 OFFCURVE",
"454 45 OFFCURVE",
"224 45 CURVE SMOOTH",
"97 45 LINE"
);
}
);
width = 698;
}
);
note = D;
rightKerningGroup = D;
unicode = 0044;
},
{
glyphname = Eth;
lastChange = "2015-10-28 04:34:48 +0000";
layers = (
{
layerId = "72ACC467-88F1-4B5B-B511-FE0603CECF6A";
name = "Light Italic";
paths = (
{
closed = 1;
nodes = (
"257 0 LINE SMOOTH",
"495 0 OFFCURVE",
"661 116 OFFCURVE",
"712 353 CURVE SMOOTH",
"757 566 OFFCURVE",
"650 699 OFFCURVE",
"425 699 CURVE SMOOTH",
"217 699 LINE",
"147 370 LINE",
"73 370 LINE",
"64 328 LINE",
"138 328 LINE",
"69 0 LINE"
);
},
{
closed = 1;
nodes = (
"191 328 LINE",
"403 328 LINE",
"412 370 LINE",
"200 370 LINE",
"260 651 LINE",
"410 651 LINE SMOOTH",
"621 651 OFFCURVE",
"699 540 OFFCURVE",
"660 353 CURVE SMOOTH",
"617 152 OFFCURVE",
"484 47 OFFCURVE",
"259 47 CURVE SMOOTH",
"131 47 LINE"
);
}
);
width = 722;
}
);
note = Eth;
rightKerningGroup = D;
unicode = 00D0;
},
{
glyphname = Dcaron;
lastChange = "2015-10-28 04:34:49 +0000";
layers = (
{
layerId = "72ACC467-88F1-4B5B-B511-FE0603CECF6A";
name = "Light Italic";
paths = (
{
closed = 1;
nodes = (
"223 0 LINE SMOOTH",
"471 0 OFFCURVE",
"627 116 OFFCURVE",
"678 353 CURVE SMOOTH",
"723 566 OFFCURVE",
"616 699 OFFCURVE",
"390 699 CURVE SMOOTH",
"183 699 LINE",
"35 0 LINE"
);
},
{
closed = 1;
nodes = (
"227 654 LINE",
"377 654 LINE SMOOTH",
"591 654 OFFCURVE",
"665 540 OFFCURVE",
"626 353 CURVE SMOOTH",
"583 152 OFFCURVE",
"454 45 OFFCURVE",
"224 45 CURVE SMOOTH",
"97 45 LINE"
);
},
{
closed = 1;
nodes = (
"439 769 LINE",
"605 925 LINE",
"551 925 LINE",
"425 804 LINE",
"351 925 LINE",
"296 925 LINE",
"394 769 LINE"
);
}
);
width = 698;
}
);
note = Dcaron;
rightKerningGroup = D;
unicode = 010E;
},
{
glyphname = Dcroat;
lastChange = "2015-10-28 04:34:48 +0000";
layers = (
{
layerId = "72ACC467-88F1-4B5B-B511-FE0603CECF6A";
name = "Light Italic";
paths = (
{
closed = 1;
nodes = (
"252 0 LINE SMOOTH",
"499 0 OFFCURVE",
"656 116 OFFCURVE",
"707 353 CURVE SMOOTH",
"752 566 OFFCURVE",
"645 699 OFFCURVE",
"420 699 CURVE SMOOTH",
"212 699 LINE",
"142 370 LINE",
"68 370 LINE",
"59 328 LINE",
"133 328 LINE",
"64 0 LINE"
);
},
{
closed = 1;
nodes = (
"186 328 LINE",
"398 328 LINE",
"407 370 LINE",
"195 370 LINE",
"255 651 LINE",
"405 651 LINE SMOOTH",
"622 651 OFFCURVE",
"694 540 OFFCURVE",
"655 353 CURVE SMOOTH",
"612 152 OFFCURVE",
"479 47 OFFCURVE",
"254 47 CURVE SMOOTH",
"126 47 LINE"
);
}
);
width = 727;
}
);
note = Dcroat;
rightKerningGroup = D;
unicode = 0110;
},
{
glyphname = Ddotbelow;
lastChange = "2015-10-28 04:34:46 +0000";
layers = (
{
layerId = "72ACC467-88F1-4B5B-B511-FE0603CECF6A";
name = "Light Italic";
paths = (
{
closed = 1;
nodes = (
"223 0 LINE SMOOTH",
"471 0 OFFCURVE",
"627 116 OFFCURVE",
"678 353 CURVE SMOOTH",
"723 566 OFFCURVE",
"616 699 OFFCURVE",
"390 699 CURVE SMOOTH",
"183 699 LINE",
"35 0 LINE"
);
},
{
closed = 1;
nodes = (
"225 -137 OFFCURVE",
"246 -119 OFFCURVE",
"251 -98 CURVE",
"255 -77 OFFCURVE",
"241 -60 OFFCURVE",
"222 -60 CURVE SMOOTH",
"201 -60 OFFCURVE",
"179 -77 OFFCURVE",
"175 -98 CURVE",
"170 -119 OFFCURVE",
"184 -137 OFFCURVE",
"205 -137 CURVE SMOOTH"
);
},
{
closed = 1;
nodes = (
"227 654 LINE",
"377 654 LINE SMOOTH",
"591 654 OFFCURVE",
"665 540 OFFCURVE",
"626 353 CURVE SMOOTH",
"583 152 OFFCURVE",
"454 45 OFFCURVE",
"224 45 CURVE SMOOTH",
"97 45 LINE"
);
}
);
width = 698;
}
);
note = Ddotbelow;
rightKerningGroup = D;
unicode = 1E0C;
},
{
glyphname = Dlinebelow;
lastChange = "2015-10-28 04:34:47 +0000";
layers = (
{
layerId = "72ACC467-88F1-4B5B-B511-FE0603CECF6A";
name = "Light Italic";
paths = (
{
closed = 1;
nodes = (
"223 0 LINE SMOOTH",
"471 0 OFFCURVE",
"627 116 OFFCURVE",
"678 353 CURVE SMOOTH",
"723 566 OFFCURVE",
"616 699 OFFCURVE",
"390 699 CURVE SMOOTH",
"183 699 LINE",
"35 0 LINE"
);
},
{
closed = 1;
nodes = (
"343 -121 LINE",
"351 -80 LINE",
"61 -80 LINE",
"53 -121 LINE"
);
},
{
closed = 1;
nodes = (
"227 654 LINE",
"377 654 LINE SMOOTH",
"591 654 OFFCURVE",
"665 540 OFFCURVE",
"626 353 CURVE SMOOTH",
"583 152 OFFCURVE",
"454 45 OFFCURVE",
"224 45 CURVE SMOOTH",
"97 45 LINE"
);
}
);
width = 698;
}
);
note = Dlinebelow;
rightKerningGroup = D;
unicode = 1E0E;
},
{
glyphname = E;
lastChange = "2015-10-28 04:34:47 +0000";
layers = (
{
layerId = "72ACC467-88F1-4B5B-B511-FE0603CECF6A";
name = "Light Italic";
paths = (
{
closed = 1;
nodes = (
"473 0 LINE",
"482 45 LINE",
"97 45 LINE",
"157 327 LINE",
"448 327 LINE",
"458 372 LINE",
"167 372 LINE",
"227 654 LINE",
"612 654 LINE",
"621 699 LINE",
"183 699 LINE",
"35 0 LINE"
);
}
);
width = 563;
}
);
leftKerningGroup = E;
note = E;
rightKerningGroup = E;
unicode = 0045;
},
{
glyphname = Eacute;
lastChange = "2015-10-28 04:34:47 +0000";
layers = (
{
layerId = "72ACC467-88F1-4B5B-B511-FE0603CECF6A";
name = "Light Italic";
paths = (
{
closed = 1;
nodes = (
"473 0 LINE",
"482 45 LINE",
"97 45 LINE",
"157 327 LINE",
"448 327 LINE",
"458 372 LINE",
"167 372 LINE",
"227 654 LINE",
"612 654 LINE",
"621 699 LINE",
"183 699 LINE",
"35 0 LINE"
);
},
{
closed = 1;
nodes = (
"412 766 LINE",
"526 935 LINE",
"472 935 LINE",
"366 766 LINE"
);
}
);
width = 563;
}
);
leftKerningGroup = E;
note = Eacute;
rightKerningGroup = E;
unicode = 00C9;
},
{
glyphname = Ebreve;
lastChange = "2015-10-28 04:34:47 +0000";
layers = (
{
layerId = "72ACC467-88F1-4B5B-B511-FE0603CECF6A";
name = "Light Italic";
paths = (
{
closed = 1;
nodes = (
"473 0 LINE",
"482 45 LINE",
"97 45 LINE",
"157 327 LINE",
"448 327 LINE",
"458 372 LINE",
"167 372 LINE",
"227 654 LINE",
"612 654 LINE",
"621 699 LINE",
"183 699 LINE",
"35 0 LINE"
);
},
{
closed = 1;
nodes = (
"485 755 OFFCURVE",
"547 807 OFFCURVE",
"561 874 CURVE",
"520 874 LINE",
"510 827 OFFCURVE",
"470 794 OFFCURVE",
"416 794 CURVE SMOOTH",
"362 794 OFFCURVE",
"336 827 OFFCURVE",
"346 874 CURVE",
"304 874 LINE",
"290 807 OFFCURVE",
"330 755 OFFCURVE",
"408 755 CURVE SMOOTH"
);
}
);
width = 568;
}
);
leftKerningGroup = E;
note = Ebreve;
rightKerningGroup = E;
unicode = 0114;
},
{
glyphname = Ecaron;
lastChange = "2015-10-28 04:34:49 +0000";
layers = (
{
layerId = "72ACC467-88F1-4B5B-B511-FE0603CECF6A";
name = "Light Italic";
paths = (
{
closed = 1;
nodes = (
"473 0 LINE",
"482 45 LINE",
"97 45 LINE",
"157 327 LINE",
"448 327 LINE",
"458 372 LINE",
"167 372 LINE",
"227 654 LINE",
"612 654 LINE",
"621 699 LINE",
"183 699 LINE",
"35 0 LINE"
);
},
{
closed = 1;
nodes = (
"427 769 LINE",
"593 925 LINE",
"539 925 LINE",
"413 804 LINE",
"339 925 LINE",
"284 925 LINE",
"382 769 LINE"
);
}
);
width = 568;
}
);
leftKerningGroup = E;
note = Ecaron;
rightKerningGroup = E;
unicode = 011A;
},
{
glyphname = Ecircumflex;
lastChange = "2015-10-28 04:34:47 +0000";
layers = (
{
layerId = "72ACC467-88F1-4B5B-B511-FE0603CECF6A";
name = "Light Italic";
paths = (
{
closed = 1;
nodes = (
"473 0 LINE",
"482 45 LINE",
"97 45 LINE",
"157 327 LINE",
"448 327 LINE",
"458 372 LINE",
"167 372 LINE",
"227 654 LINE",
"612 654 LINE",
"621 699 LINE",
"183 699 LINE",
"35 0 LINE"
);
},
{
closed = 1;
nodes = (
"311 758 LINE",
"436 879 LINE",
"511 758 LINE",
"565 758 LINE",
"466 914 LINE",
"421 914 LINE",
"257 758 LINE"
);
}
);
width = 568;
}
);
leftKerningGroup = E;
note = Ecircumflex;
rightKerningGroup = E;
unicode = 00CA;
},
{
glyphname = Ecircumflexacute;
lastChange = "2015-10-28 04:34:49 +0000";
layers = (
{
layerId = "72ACC467-88F1-4B5B-B511-FE0603CECF6A";
name = "Light Italic";
paths = (
{
closed = 1;
nodes = (
"473 0 LINE",
"482 45 LINE",
"97 45 LINE",
"157 327 LINE",
"448 327 LINE",
"458 372 LINE",
"167 372 LINE",
"227 654 LINE",
"612 654 LINE",
"621 699 LINE",
"183 699 LINE",
"35 0 LINE"
);
},
{
closed = 1;
nodes = (
"292 744 LINE",
"406 835 LINE",
"482 744 LINE",
"535 744 LINE",
"431 868 LINE",
"394 868 LINE",
"238 744 LINE"
);
},
{
closed = 1;
nodes = (
"529 837 LINE",
"628 951 LINE",
"582 951 LINE",
"491 837 LINE"
);
}
);
width = 568;
}
);
leftKerningGroup = E;
note = Ecircumflexacute;
rightKerningGroup = E;
unicode = 1EBE;
},
{
glyphname = Ecircumflexdotbelow;
lastChange = "2015-10-28 04:34:48 +0000";
layers = (
{
layerId = "72ACC467-88F1-4B5B-B511-FE0603CECF6A";
name = "Light Italic";
paths = (
{
closed = 1;
nodes = (
"473 0 LINE",
"482 45 LINE",
"97 45 LINE",
"157 327 LINE",
"448 327 LINE",
"458 372 LINE",
"167 372 LINE",
"227 654 LINE",
"612 654 LINE",
"621 699 LINE",
"183 699 LINE",
"35 0 LINE"
);
},
{
closed = 1;
nodes = (
"221 -137 OFFCURVE",
"242 -119 OFFCURVE",
"247 -98 CURVE",
"251 -77 OFFCURVE",
"237 -60 OFFCURVE",
"218 -60 CURVE SMOOTH",
"197 -60 OFFCURVE",
"175 -77 OFFCURVE",
"171 -98 CURVE",
"166 -119 OFFCURVE",
"180 -137 OFFCURVE",
"201 -137 CURVE SMOOTH"
);
},
{
closed = 1;
nodes = (
"294 775 LINE",
"419 896 LINE",
"494 775 LINE",
"548 775 LINE",
"449 931 LINE",
"404 931 LINE",
"240 775 LINE"
);
}
);
width = 568;
}
);
leftKerningGroup = E;
note = Ecircumflexdotbelow;
rightKerningGroup = E;
unicode = 1EC6;
},
{
glyphname = Ecircumflexgrave;
lastChange = "2015-10-28 04:34:50 +0000";
layers = (
{
layerId = "72ACC467-88F1-4B5B-B511-FE0603CECF6A";
name = "Light Italic";
paths = (
{
closed = 1;
nodes = (
"492 0 LINE",
"501 45 LINE",
"116 45 LINE",
"176 327 LINE",
"467 327 LINE",
"477 372 LINE",
"186 372 LINE",
"246 654 LINE",
"631 654 LINE",
"640 699 LINE",
"202 699 LINE",
"54 0 LINE"
);
},
{
closed = 1;
nodes = (
"353 837 LINE",
"309 951 LINE",
"263 951 LINE",
"315 837 LINE"
);
},
{
closed = 1;
nodes = (
"322 744 LINE",
"436 835 LINE",
"512 744 LINE",
"565 744 LINE",
"462 868 LINE",
"425 868 LINE",
"269 744 LINE"
);
}
);
width = 588;
}
);
leftKerningGroup = E;
note = Ecircumflexgrave;
rightKerningGroup = E;
unicode = 1EC0;
},
{
glyphname = Ecircumflexhookabove;
lastChange = "2015-10-28 04:34:45 +0000";
layers = (
{
layerId = "72ACC467-88F1-4B5B-B511-FE0603CECF6A";
name = "Light Italic";
paths = (
{
closed = 1;
nodes = (
"473 0 LINE",
"482 45 LINE",
"97 45 LINE",
"157 327 LINE",
"448 327 LINE",
"458 372 LINE",
"167 372 LINE",
"227 654 LINE",
"612 654 LINE",
"621 699 LINE",
"183 699 LINE",
"35 0 LINE"
);
},
{
closed = 1;
nodes = (
"322 744 LINE",
"436 835 LINE",
"512 744 LINE",
"564 744 LINE",
"461 868 LINE",
"424 868 LINE",
"268 744 LINE"
);
},
{
closed = 1;
nodes = (
"558 828 LINE",
"563 854 LINE",
"608 858 OFFCURVE",
"638 883 OFFCURVE",
"645 917 CURVE SMOOTH",
"653 955 OFFCURVE",
"633 981 OFFCURVE",
"581 981 CURVE SMOOTH",
"561 981 OFFCURVE",
"539 977 OFFCURVE",
"525 972 CURVE",
"519 942 LINE",
"531 947 OFFCURVE",
"551 950 OFFCURVE",
"567 950 CURVE SMOOTH",
"597 950 OFFCURVE",
"609 941 OFFCURVE",
"604 917 CURVE SMOOTH",
"598 889 OFFCURVE",
"576 878 OFFCURVE",
"533 878 CURVE",
"523 828 LINE"
);
}
);
width = 569;
}
);
leftKerningGroup = E;
note = Ecircumflexhookabove;
rightKerningGroup = E;
unicode = 1EC2;
},
{
glyphname = Ecircumflextilde;
lastChange = "2015-10-28 04:34:48 +0000";
layers = (
{
layerId = "72ACC467-88F1-4B5B-B511-FE0603CECF6A";
name = "Light Italic";
paths = (
{
closed = 1;
nodes = (
"473 0 LINE",
"482 45 LINE",
"97 45 LINE",
"157 327 LINE",
"448 327 LINE",
"458 372 LINE",
"167 372 LINE",
"227 654 LINE",
"612 654 LINE",
"621 699 LINE",
"183 699 LINE",
"35 0 LINE"
);
},
{
closed = 1;
nodes = (
"324 744 LINE",
"438 835 LINE",
"514 744 LINE",
"566 744 LINE",
"463 868 LINE",
"426 868 LINE",
"270 744 LINE"
);
},
{
closed = 1;
nodes = (
"331 917 OFFCURVE",
"355 927 OFFCURVE",
"385 927 CURVE SMOOTH",
"434 927 OFFCURVE",
"469 882 OFFCURVE",
"526 882 CURVE SMOOTH",
"559 882 OFFCURVE",
"587 892 OFFCURVE",
"609 919 CURVE",
"619 964 LINE",
"589 929 OFFCURVE",
"563 919 OFFCURVE",
"534 919 CURVE SMOOTH",
"484 919 OFFCURVE",
"446 964 OFFCURVE",
"393 964 CURVE SMOOTH",
"359 964 OFFCURVE",
"332 954 OFFCURVE",
"309 927 CURVE",
"299 881 LINE"
);
}
);
width = 568;
}
);
leftKerningGroup = E;
note = Ecircumflextilde;
rightKerningGroup = E;
unicode = 1EC4;
},
{
glyphname = Edieresis;
lastChange = "2015-10-28 04:34:49 +0000";
layers = (
{
layerId = "72ACC467-88F1-4B5B-B511-FE0603CECF6A";
name = "Light Italic";
paths = (
{
closed = 1;
nodes = (
"473 0 LINE",
"482 45 LINE",
"97 45 LINE",
"157 327 LINE",
"448 327 LINE",
"458 372 LINE",
"167 372 LINE",
"227 654 LINE",
"612 654 LINE",
"621 699 LINE",
"183 699 LINE",
"35 0 LINE"
);
},
{
closed = 1;
nodes = (
"326 770 OFFCURVE",
"348 788 OFFCURVE",
"353 809 CURVE",
"357 830 OFFCURVE",
"343 847 OFFCURVE",
"323 847 CURVE SMOOTH",
"302 847 OFFCURVE",
"281 830 OFFCURVE",
"277 809 CURVE",
"272 788 OFFCURVE",
"285 770 OFFCURVE",
"306 770 CURVE SMOOTH"
);
},
{
closed = 1;
nodes = (
"534 770 OFFCURVE",
"556 788 OFFCURVE",
"561 809 CURVE",
"565 830 OFFCURVE",
"551 847 OFFCURVE",
"530 847 CURVE SMOOTH",
"509 847 OFFCURVE",
"487 830 OFFCURVE",
"483 809 CURVE",
"478 788 OFFCURVE",
"492 770 OFFCURVE",
"513 770 CURVE SMOOTH"
);
}
);
width = 568;
}
);
leftKerningGroup = E;
note = Edieresis;
rightKerningGroup = E;
unicode = 00CB;
},
{
glyphname = Edotaccent;
lastChange = "2015-10-28 04:34:46 +0000";
layers = (
{
layerId = "72ACC467-88F1-4B5B-B511-FE0603CECF6A";
name = "Light Italic";
paths = (
{
closed = 1;
nodes = (
"473 0 LINE",
"482 45 LINE",
"97 45 LINE",
"157 327 LINE",
"448 327 LINE",
"458 372 LINE",
"167 372 LINE",
"227 654 LINE",
"612 654 LINE",
"621 699 LINE",
"183 699 LINE",
"35 0 LINE"
);
},
{
closed = 1;
nodes = (
"423 770 OFFCURVE",
"445 788 OFFCURVE",
"450 809 CURVE",
"454 830 OFFCURVE",
"440 847 OFFCURVE",
"420 847 CURVE SMOOTH",
"399 847 OFFCURVE",
"377 830 OFFCURVE",
"373 809 CURVE",
"368 788 OFFCURVE",
"382 770 OFFCURVE",
"403 770 CURVE SMOOTH"
);
}
);
width = 568;
}
);
leftKerningGroup = E;
note = Edotaccent;
rightKerningGroup = E;
unicode = 0116;
},
{
glyphname = Edotbelow;
lastChange = "2015-10-28 04:34:49 +0000";
layers = (
{
layerId = "72ACC467-88F1-4B5B-B511-FE0603CECF6A";
name = "Light Italic";
paths = (
{
closed = 1;
nodes = (
"473 0 LINE",
"482 45 LINE",
"97 45 LINE",
"157 327 LINE",
"448 327 LINE",
"458 372 LINE",
"167 372 LINE",
"227 654 LINE",
"612 654 LINE",
"621 699 LINE",
"183 699 LINE",
"35 0 LINE"
);
},
{
closed = 1;
nodes = (
"223 -137 OFFCURVE",
"244 -119 OFFCURVE",
"249 -98 CURVE",
"253 -77 OFFCURVE",
"239 -60 OFFCURVE",
"220 -60 CURVE SMOOTH",
"199 -60 OFFCURVE",
"177 -77 OFFCURVE",
"173 -98 CURVE",
"168 -119 OFFCURVE",
"182 -137 OFFCURVE",
"203 -137 CURVE SMOOTH"
);
}
);
width = 568;
}
);
leftKerningGroup = E;
note = Edotbelow;
rightKerningGroup = E;
unicode = 1EB8;
},
{
glyphname = Egrave;
lastChange = "2015-10-28 04:34:48 +0000";
layers = (
{
layerId = "72ACC467-88F1-4B5B-B511-FE0603CECF6A";
name = "Light Italic";
paths = (
{
closed = 1;
nodes = (
"473 0 LINE",
"482 45 LINE",
"97 45 LINE",
"157 327 LINE",
"448 327 LINE",
"458 372 LINE",
"167 372 LINE",
"227 654 LINE",
"612 654 LINE",
"621 699 LINE",
"183 699 LINE",
"35 0 LINE"
);
},
{
closed = 1;
nodes = (
"445 766 LINE",
"412 935 LINE",
"357 935 LINE",
"400 766 LINE"
);
}
);
width = 568;
}
);
leftKerningGroup = E;
note = Egrave;
rightKerningGroup = E;
unicode = 00C8;
},
{
glyphname = Ehookabove;
lastChange = "2015-10-28 04:34:47 +0000";
layers = (
{
layerId = "72ACC467-88F1-4B5B-B511-FE0603CECF6A";
name = "Light Italic";
paths = (
{
closed = 1;
nodes = (
"473 0 LINE",
"482 45 LINE",
"97 45 LINE",
"157 327 LINE",
"448 327 LINE",
"458 372 LINE",
"167 372 LINE",
"227 654 LINE",
"612 654 LINE",
"621 699 LINE",
"183 699 LINE",
"35 0 LINE"
);
},
{
closed = 1;
nodes = (
"411 743 LINE",
"419 782 LINE",
"483 787 OFFCURVE",
"523 824 OFFCURVE",
"533 873 CURVE SMOOTH",
"544 925 OFFCURVE",
"515 962 OFFCURVE",
"440 962 CURVE SMOOTH",
"416 962 OFFCURVE",
"388 958 OFFCURVE",
"372 953 CURVE",
"365 918 LINE",
"378 924 OFFCURVE",
"407 927 OFFCURVE",
"425 927 CURVE SMOOTH",
"472 927 OFFCURVE",
"494 910 OFFCURVE",
"486 871 CURVE SMOOTH",
"477 828 OFFCURVE",
"448 808 OFFCURVE",
"380 808 CURVE",
"366 743 LINE"
);
}
);
width = 568;
}
);
leftKerningGroup = E;
note = Ehookabove;
rightKerningGroup = E;
unicode = 1EBA;
},
{
glyphname = Emacron;
lastChange = "2015-10-28 04:34:48 +0000";
layers = (
{
layerId = "72ACC467-88F1-4B5B-B511-FE0603CECF6A";
name = "Light Italic";
paths = (
{
closed = 1;
nodes = (
"473 0 LINE",
"482 45 LINE",
"97 45 LINE",
"157 327 LINE",
"448 327 LINE",
"458 372 LINE",
"167 372 LINE",
"227 654 LINE",
"612 654 LINE",
"621 699 LINE",
"183 699 LINE",
"35 0 LINE"
);
},
{
closed = 1;
nodes = (
"563 793 LINE",
"571 832 LINE",
"282 832 LINE",
"275 793 LINE"
);
}
);
width = 568;
}
);
leftKerningGroup = E;
note = Emacron;
rightKerningGroup = E;
unicode = 0112;
},
{
glyphname = Eogonek;
lastChange = "2015-10-28 04:34:45 +0000";
layers = (
{
layerId = "72ACC467-88F1-4B5B-B511-FE0603CECF6A";
name = "Light Italic";
paths = (
{
closed = 1;
nodes = (
"473 0 LINE",
"482 45 LINE",
"97 45 LINE",
"157 327 LINE",
"448 327 LINE",
"458 372 LINE",
"167 372 LINE",
"227 654 LINE",
"612 654 LINE",
"621 699 LINE",
"183 699 LINE",
"35 0 LINE"
);
},
{
closed = 1;
nodes = (
"379 -208 OFFCURVE",
"399 -205 OFFCURVE",
"413 -199 CURVE",
"421 -162 LINE",
"408 -167 OFFCURVE",
"391 -171 OFFCURVE",
"374 -171 CURVE SMOOTH",
"342 -171 OFFCURVE",
"326 -155 OFFCURVE",
"333 -119 CURVE SMOOTH",
"343 -73 OFFCURVE",
"380 -35 OFFCURVE",
"437 0 CURVE",
"387 0 LINE",
"340 -27 OFFCURVE",
"296 -72 OFFCURVE",
"285 -124 CURVE SMOOTH",
"273 -181 OFFCURVE",
"308 -208 OFFCURVE",
"356 -208 CURVE SMOOTH"
);
}
);
width = 568;
}
);
leftKerningGroup = E;
note = Eogonek;
rightKerningGroup = E;
unicode = 0118;
},
{
glyphname = Etilde;
lastChange = "2015-10-28 04:34:48 +0000";
layers = (
{
layerId = "72ACC467-88F1-4B5B-B511-FE0603CECF6A";
name = "Light Italic";
paths = (
{
closed = 1;
nodes = (
"473 0 LINE",
"482 45 LINE",
"97 45 LINE",
"157 327 LINE",
"448 327 LINE",
"458 372 LINE",
"167 372 LINE",
"227 654 LINE",
"612 654 LINE",
"621 699 LINE",
"183 699 LINE",
"35 0 LINE"
);
},
{
closed = 1;
nodes = (
"261 826 OFFCURVE",
"293 837 OFFCURVE",
"327 837 CURVE SMOOTH",
"391 837 OFFCURVE",
"420 787 OFFCURVE",
"493 787 CURVE SMOOTH",
"532 787 OFFCURVE",
"568 798 OFFCURVE",
"595 831 CURVE",
"606 882 LINE",
"571 840 OFFCURVE",
"537 829 OFFCURVE",
"502 829 CURVE SMOOTH",
"437 829 OFFCURVE",
"404 879 OFFCURVE",
"336 879 CURVE SMOOTH",
"298 879 OFFCURVE",
"261 867 OFFCURVE",
"234 835 CURVE",
"223 784 LINE"
);
}
);
width = 568;
}
);
leftKerningGroup = E;
note = Etilde;
rightKerningGroup = E;
unicode = 1EBC;
},
{
glyphname = F;
lastChange = "2015-10-28 04:34:46 +0000";
layers = (
{
layerId = "72ACC467-88F1-4B5B-B511-FE0603CECF6A";
name = "Light Italic";
paths = (
{
closed = 1;
nodes = (
"88 0 LINE",
"157 327 LINE",
"448 327 LINE",
"458 372 LINE",
"167 372 LINE",
"227 654 LINE",
"612 654 LINE",
"621 699 LINE",
"183 699 LINE",
"35 0 LINE"
);
}
);
width = 548;
}
);
note = F;
unicode = 0046;
},
{
glyphname = G;
lastChange = "2015-10-28 04:34:49 +0000";
layers = (
{
layerId = "72ACC467-88F1-4B5B-B511-FE0603CECF6A";
name = "Light Italic";
paths = (
{
closed = 1;
nodes = (
"476 -15 OFFCURVE",
"572 9 OFFCURVE",
"643 68 CURVE",
"707 370 LINE",
"492 370 LINE",
"483 325 LINE",
"645 325 LINE",
"595 90 LINE",
"538 48 OFFCURVE",
"467 32 OFFCURVE",
"387 32 CURVE SMOOTH",
"198 32 OFFCURVE",
"99 153 OFFCURVE",
"141 349 CURVE SMOOTH",
"182 544 OFFCURVE",
"344 666 OFFCURVE",
"523 666 CURVE SMOOTH",
"620 666 OFFCURVE",
"691 642 OFFCURVE",
"740 583 CURVE",
"752 636 LINE",
"700 689 OFFCURVE",
"625 714 OFFCURVE",
"530 714 CURVE SMOOTH",
"321 714 OFFCURVE",
"135 569 OFFCURVE",
"89 349 CURVE SMOOTH",
"42 129 OFFCURVE",
"166 -15 OFFCURVE",
"375 -15 CURVE SMOOTH"
);
}
);
width = 724;
}
);
leftKerningGroup = C;
note = G;
unicode = 0047;
},
{
glyphname = Gbreve;
lastChange = "2015-10-28 04:34:47 +0000";
layers = (
{
layerId = "72ACC467-88F1-4B5B-B511-FE0603CECF6A";
name = "Light Italic";
paths = (
{
closed = 1;
nodes = (
"476 -15 OFFCURVE",
"572 9 OFFCURVE",
"643 68 CURVE",
"707 370 LINE",
"492 370 LINE",
"483 325 LINE",
"645 325 LINE",
"595 90 LINE",
"538 48 OFFCURVE",
"467 32 OFFCURVE",
"387 32 CURVE SMOOTH",
"198 32 OFFCURVE",
"99 153 OFFCURVE",
"141 349 CURVE SMOOTH",
"182 544 OFFCURVE",
"344 666 OFFCURVE",
"523 666 CURVE SMOOTH",
"620 666 OFFCURVE",
"691 642 OFFCURVE",
"740 583 CURVE",
"752 636 LINE",
"700 689 OFFCURVE",
"625 714 OFFCURVE",
"530 714 CURVE SMOOTH",
"321 714 OFFCURVE",
"135 569 OFFCURVE",
"89 349 CURVE SMOOTH",
"42 129 OFFCURVE",
"166 -15 OFFCURVE",
"375 -15 CURVE SMOOTH"
);
},
{
closed = 1;
nodes = (
"607 743 OFFCURVE",
"669 795 OFFCURVE",
"683 862 CURVE",
"642 862 LINE",
"632 815 OFFCURVE",
"592 782 OFFCURVE",
"538 782 CURVE SMOOTH",
"484 782 OFFCURVE",
"458 815 OFFCURVE",
"468 862 CURVE",
"426 862 LINE",
"412 795 OFFCURVE",
"452 743 OFFCURVE",
"530 743 CURVE SMOOTH"
);
}
);
width = 724;
}
);
leftKerningGroup = C;
note = Gbreve;
unicode = 011E;
},
{
glyphname = Gcaron;
lastChange = "2015-10-28 04:34:47 +0000";
layers = (
{
layerId = "72ACC467-88F1-4B5B-B511-FE0603CECF6A";
name = "Light Italic";
paths = (
{
closed = 1;
nodes = (
"476 -15 OFFCURVE",
"572 9 OFFCURVE",
"643 68 CURVE",
"707 370 LINE",
"492 370 LINE",
"483 325 LINE",
"645 325 LINE",
"595 90 LINE",
"538 48 OFFCURVE",
"467 32 OFFCURVE",
"387 32 CURVE SMOOTH",
"198 32 OFFCURVE",
"99 153 OFFCURVE",
"141 349 CURVE SMOOTH",
"182 544 OFFCURVE",
"344 666 OFFCURVE",
"523 666 CURVE SMOOTH",
"620 666 OFFCURVE",
"691 642 OFFCURVE",
"740 583 CURVE",
"752 636 LINE",
"700 689 OFFCURVE",
"625 714 OFFCURVE",
"530 714 CURVE SMOOTH",
"321 714 OFFCURVE",
"135 569 OFFCURVE",
"89 349 CURVE SMOOTH",
"42 129 OFFCURVE",
"166 -15 OFFCURVE",
"375 -15 CURVE SMOOTH"
);
},
{
closed = 1;
nodes = (
"549 763 LINE",
"715 919 LINE",
"661 919 LINE",
"535 798 LINE",
"461 919 LINE",
"406 919 LINE",
"504 763 LINE"
);
}
);
width = 724;
}
);
leftKerningGroup = C;
note = Gcaron;
unicode = 01E6;
},
{
glyphname = Gcircumflex;
lastChange = "2015-10-28 04:34:50 +0000";
layers = (
{
layerId = "72ACC467-88F1-4B5B-B511-FE0603CECF6A";
name = "Light Italic";
paths = (
{
closed = 1;
nodes = (
"476 -15 OFFCURVE",
"572 9 OFFCURVE",
"643 68 CURVE",
"707 370 LINE",
"492 370 LINE",
"483 325 LINE",
"645 325 LINE",
"595 90 LINE",
"538 48 OFFCURVE",
"467 32 OFFCURVE",
"387 32 CURVE SMOOTH",
"198 32 OFFCURVE",
"99 153 OFFCURVE",
"141 349 CURVE SMOOTH",
"182 544 OFFCURVE",
"344 666 OFFCURVE",
"523 666 CURVE SMOOTH",
"620 666 OFFCURVE",
"691 642 OFFCURVE",
"740 583 CURVE",
"752 636 LINE",
"700 689 OFFCURVE",
"625 714 OFFCURVE",
"530 714 CURVE SMOOTH",
"321 714 OFFCURVE",
"135 569 OFFCURVE",
"89 349 CURVE SMOOTH",
"42 129 OFFCURVE",
"166 -15 OFFCURVE",
"375 -15 CURVE SMOOTH"
);
},
{
closed = 1;
nodes = (
"433 758 LINE",
"558 879 LINE",
"633 758 LINE",
"687 758 LINE",
"588 914 LINE",
"543 914 LINE",
"379 758 LINE"
);
}
);
width = 724;
}
);
leftKerningGroup = C;
note = Gcircumflex;
unicode = 011C;
},
{
glyphname = Gcommaaccent;
lastChange = "2015-10-28 04:34:47 +0000";
layers = (
{
layerId = "72ACC467-88F1-4B5B-B511-FE0603CECF6A";
name = "Light Italic";
paths = (
{
closed = 1;
nodes = (
"476 -15 OFFCURVE",
"572 9 OFFCURVE",
"643 68 CURVE",
"707 370 LINE",
"492 370 LINE",
"483 325 LINE",
"645 325 LINE",
"595 90 LINE",
"538 48 OFFCURVE",
"467 32 OFFCURVE",
"387 32 CURVE SMOOTH",
"198 32 OFFCURVE",
"99 153 OFFCURVE",
"141 349 CURVE SMOOTH",
"182 544 OFFCURVE",
"344 666 OFFCURVE",
"523 666 CURVE SMOOTH",
"620 666 OFFCURVE",
"691 642 OFFCURVE",
"740 583 CURVE",
"752 636 LINE",
"700 689 OFFCURVE",
"625 714 OFFCURVE",
"530 714 CURVE SMOOTH",
"321 714 OFFCURVE",
"135 569 OFFCURVE",
"89 349 CURVE SMOOTH",
"42 129 OFFCURVE",
"166 -15 OFFCURVE",
"375 -15 CURVE SMOOTH"
);
},
{
closed = 1;
nodes = (
"261 -260 LINE",
"390 -67 LINE",
"334 -67 LINE",
"215 -260 LINE"
);
}
);
width = 724;
}
);
leftKerningGroup = C;
note = Gcommaaccent;
unicode = 0122;
},
{
glyphname = Gdotaccent;
lastChange = "2015-10-28 04:34:50 +0000";
layers = (
{
layerId = "72ACC467-88F1-4B5B-B511-FE0603CECF6A";
name = "Light Italic";
paths = (
{
closed = 1;
nodes = (
"476 -15 OFFCURVE",
"572 9 OFFCURVE",
"643 68 CURVE",
"707 370 LINE",
"492 370 LINE",
"483 325 LINE",
"645 325 LINE",
"595 90 LINE",
"538 48 OFFCURVE",
"467 32 OFFCURVE",
"387 32 CURVE SMOOTH",
"198 32 OFFCURVE",
"99 153 OFFCURVE",
"141 349 CURVE SMOOTH",
"182 544 OFFCURVE",
"344 666 OFFCURVE",
"523 666 CURVE SMOOTH",
"620 666 OFFCURVE",
"691 642 OFFCURVE",
"740 583 CURVE",
"752 636 LINE",
"700 689 OFFCURVE",
"625 714 OFFCURVE",
"530 714 CURVE SMOOTH",
"321 714 OFFCURVE",
"135 569 OFFCURVE",
"89 349 CURVE SMOOTH",
"42 129 OFFCURVE",
"166 -15 OFFCURVE",
"375 -15 CURVE SMOOTH"
);
},
{
closed = 1;
nodes = (
"553 752 OFFCURVE",
"575 770 OFFCURVE",
"580 791 CURVE",
"584 812 OFFCURVE",
"570 829 OFFCURVE",
"550 829 CURVE SMOOTH",
"529 829 OFFCURVE",
"507 812 OFFCURVE",
"503 791 CURVE",
"498 770 OFFCURVE",
"512 752 OFFCURVE",
"533 752 CURVE SMOOTH"
);
}
);
width = 724;
}
);
leftKerningGroup = C;
note = Gdotaccent;
unicode = 0120;
},
{
glyphname = Gmacron;
lastChange = "2015-10-28 04:34:46 +0000";
layers = (
{
layerId = "72ACC467-88F1-4B5B-B511-FE0603CECF6A";
name = "Light Italic";
paths = (
{
closed = 1;
nodes = (
"476 -15 OFFCURVE",
"572 9 OFFCURVE",
"643 68 CURVE",
"707 370 LINE",
"492 370 LINE",
"483 325 LINE",
"645 325 LINE",
"595 90 LINE",
"538 48 OFFCURVE",
"467 32 OFFCURVE",
"387 32 CURVE SMOOTH",
"198 32 OFFCURVE",
"99 153 OFFCURVE",
"141 349 CURVE SMOOTH",
"182 544 OFFCURVE",
"344 666 OFFCURVE",
"523 666 CURVE SMOOTH",
"620 666 OFFCURVE",
"691 642 OFFCURVE",
"740 583 CURVE",
"752 636 LINE",
"700 689 OFFCURVE",
"625 714 OFFCURVE",
"530 714 CURVE SMOOTH",
"321 714 OFFCURVE",
"135 569 OFFCURVE",
"89 349 CURVE SMOOTH",
"42 129 OFFCURVE",
"166 -15 OFFCURVE",
"375 -15 CURVE SMOOTH"
);
},
{
closed = 1;
nodes = (
"677 787 LINE",
"685 826 LINE",
"396 826 LINE",
"389 787 LINE"
);
}
);
width = 724;
}
);
leftKerningGroup = C;
note = Gmacron;
unicode = 1E20;
},
{
glyphname = H;
lastChange = "2015-10-28 04:34:47 +0000";
layers = (
{
layerId = "72ACC467-88F1-4B5B-B511-FE0603CECF6A";
name = "Light Italic";
paths = (
{
closed = 1;
nodes = (
"88 0 LINE",
"158 334 LINE",
"583 334 LINE",
"513 0 LINE",
"566 0 LINE",
"714 699 LINE",
"661 699 LINE",
"593 379 LINE",
"168 379 LINE",
"236 699 LINE",
"183 699 LINE",
"35 0 LINE"
);
}
);
width = 681;
}
);
note = H;
unicode = 0048;
},
{
glyphname = Hbar;
lastChange = "2015-10-28 04:34:47 +0000";
layers = (
{
layerId = "72ACC467-88F1-4B5B-B511-FE0603CECF6A";
name = "Light Italic";
paths = (
{
closed = 1;
nodes = (
"96 0 LINE",
"166 333 LINE",
"591 333 LINE",
"521 0 LINE",
"574 0 LINE",
"683 515 LINE",
"738 515 LINE",
"747 558 LINE",
"692 558 LINE",
"722 699 LINE",
"669 699 LINE",
"639 558 LINE",
"214 558 LINE",
"244 699 LINE",
"191 699 LINE",
"161 558 LINE",
"108 558 LINE",
"99 515 LINE",
"152 515 LINE",
"43 0 LINE"
);
},
{
closed = 1;
nodes = (
"205 515 LINE",
"630 515 LINE",
"601 380 LINE",
"176 380 LINE"
);
}
);
width = 709;
}
);
note = Hbar;
unicode = 0126;
},
{
glyphname = Hbrevebelow;
lastChange = "2015-10-28 04:34:48 +0000";
layers = (
{
layerId = "72ACC467-88F1-4B5B-B511-FE0603CECF6A";
name = "Light Italic";
paths = (
{
closed = 1;
nodes = (
"88 0 LINE",
"158 334 LINE",
"583 334 LINE",
"513 0 LINE",
"566 0 LINE",
"714 699 LINE",
"661 699 LINE",
"593 379 LINE",
"168 379 LINE",
"236 699 LINE",
"183 699 LINE",
"35 0 LINE"
);
},
{
closed = 1;
nodes = (
"338 -184 OFFCURVE",
"400 -133 OFFCURVE",
"415 -65 CURVE",
"374 -65 LINE",
"364 -112 OFFCURVE",
"323 -146 OFFCURVE",
"270 -146 CURVE SMOOTH",
"216 -146 OFFCURVE",
"191 -112 OFFCURVE",
"201 -65 CURVE",
"159 -65 LINE",
"144 -133 OFFCURVE",
"184 -184 OFFCURVE",
"262 -184 CURVE SMOOTH"
);
}
);
width = 681;
}
);
note = Hbrevebelow;
unicode = 1E2A;
},
{
glyphname = Hcircumflex;
lastChange = "2015-10-28 04:34:49 +0000";
layers = (
{
layerId = "72ACC467-88F1-4B5B-B511-FE0603CECF6A";
name = "Light Italic";
paths = (
{
closed = 1;
nodes = (
"88 0 LINE",
"158 334 LINE",
"583 334 LINE",
"513 0 LINE",
"566 0 LINE",
"714 699 LINE",
"661 699 LINE",
"593 379 LINE",
"168 379 LINE",
"236 699 LINE",
"183 699 LINE",
"35 0 LINE"
);
},
{
closed = 1;
nodes = (
"364 770 LINE",
"489 891 LINE",
"564 770 LINE",
"618 770 LINE",
"519 926 LINE",
"474 926 LINE",
"310 770 LINE"
);
}
);
width = 681;
}
);
note = Hcircumflex;
unicode = 0124;
},
{
glyphname = Hdotbelow;
lastChange = "2015-10-28 04:34:48 +0000";
layers = (
{
layerId = "72ACC467-88F1-4B5B-B511-FE0603CECF6A";
name = "Light Italic";
paths = (
{
closed = 1;
nodes = (
"88 0 LINE",
"158 334 LINE",
"583 334 LINE",
"513 0 LINE",
"566 0 LINE",
"714 699 LINE",
"661 699 LINE",
"593 379 LINE",
"168 379 LINE",
"236 699 LINE",
"183 699 LINE",
"35 0 LINE"
);
},
{
closed = 1;
nodes = (
"292 -137 OFFCURVE",
"313 -119 OFFCURVE",
"318 -98 CURVE",
"322 -77 OFFCURVE",
"308 -60 OFFCURVE",
"289 -60 CURVE SMOOTH",
"268 -60 OFFCURVE",
"246 -77 OFFCURVE",
"242 -98 CURVE",
"237 -119 OFFCURVE",
"251 -137 OFFCURVE",
"272 -137 CURVE SMOOTH"
);
}
);
width = 681;
}
);
note = Hdotbelow;
unicode = 1E24;
},
{
glyphname = I;
lastChange = "2015-10-28 04:34:48 +0000";
layers = (
{
layerId = "72ACC467-88F1-4B5B-B511-FE0603CECF6A";
name = "Light Italic";
paths = (
{
closed = 1;
nodes = (
"88 0 LINE",
"236 699 LINE",
"183 699 LINE",
"35 0 LINE"
);
}
);
width = 204;
}
);
note = I;
unicode = 0049;
},
{
glyphname = IJ;
lastChange = "2015-10-28 04:34:46 +0000";
layers = (
{
layerId = "72ACC467-88F1-4B5B-B511-FE0603CECF6A";
name = "Light Italic";
paths = (
{
closed = 1;
nodes = (
"398 -15 OFFCURVE",
"470 36 OFFCURVE",
"492 141 CURVE SMOOTH",
"611 699 LINE",
"558 699 LINE",
"440 144 LINE SMOOTH",
"424 67 OFFCURVE",
"375 31 OFFCURVE",
"301 31 CURVE SMOOTH",
"277 31 OFFCURVE",
"239 36 OFFCURVE",
"220 44 CURVE",
"210 -2 LINE",
"229 -10 OFFCURVE",
"268 -15 OFFCURVE",
"301 -15 CURVE SMOOTH"
);
},
{
closed = 1;
nodes = (
"88 0 LINE",
"236 699 LINE",
"183 699 LINE",
"35 0 LINE"
);
}
);
width = 573;
}
);
note = IJ;
rightKerningGroup = J;
unicode = 0132;
},
{
glyphname = Iacute;
lastChange = "2015-10-28 04:34:48 +0000";
layers = (
{
layerId = "72ACC467-88F1-4B5B-B511-FE0603CECF6A";
name = "Light Italic";
paths = (
{
closed = 1;
nodes = (
"88 0 LINE",
"236 699 LINE",
"183 699 LINE",
"35 0 LINE"
);
},
{
closed = 1;
nodes = (
"245 754 LINE",
"359 923 LINE",
"305 923 LINE",
"199 754 LINE"
);
}
);
width = 204;
}
);
note = Iacute;
unicode = 00CD;
},
{
glyphname = Ibreve;
lastChange = "2015-10-28 04:34:46 +0000";
layers = (
{
layerId = "72ACC467-88F1-4B5B-B511-FE0603CECF6A";
name = "Light Italic";
paths = (
{
closed = 1;
nodes = (
"88 0 LINE",
"236 699 LINE",
"183 699 LINE",
"35 0 LINE"
);
},
{
closed = 1;
nodes = (
"299 759 OFFCURVE",
"361 811 OFFCURVE",
"375 878 CURVE",
"334 878 LINE",
"324 831 OFFCURVE",
"284 798 OFFCURVE",
"230 798 CURVE SMOOTH",
"176 798 OFFCURVE",
"150 831 OFFCURVE",
"160 878 CURVE",
"118 878 LINE",
"104 811 OFFCURVE",
"144 759 OFFCURVE",
"222 759 CURVE SMOOTH"
);
}
);
width = 204;
}
);
note = Ibreve;
unicode = 012C;
},
{
glyphname = Icaron;
lastChange = "2015-10-28 04:34:47 +0000";
layers = (
{
layerId = "72ACC467-88F1-4B5B-B511-FE0603CECF6A";
name = "Light Italic";
paths = (
{
closed = 1;
nodes = (
"88 0 LINE",
"236 699 LINE",
"183 699 LINE",
"35 0 LINE"
);
},
{
closed = 1;
nodes = (
"245 763 LINE",
"411 919 LINE",
"357 919 LINE",
"231 798 LINE",
"157 919 LINE",
"102 919 LINE",
"200 763 LINE"
);
}
);
width = 204;
}
);
note = Icaron;
unicode = 01CF;
},
{
glyphname = Icircumflex;
lastChange = "2015-10-28 04:34:46 +0000";
layers = (
{
layerId = "72ACC467-88F1-4B5B-B511-FE0603CECF6A";
name = "Light Italic";
paths = (
{
closed = 1;
nodes = (
"88 0 LINE",
"236 699 LINE",
"183 699 LINE",
"35 0 LINE"
);
},
{
closed = 1;
nodes = (
"122 758 LINE",
"247 879 LINE",
"322 758 LINE",
"376 758 LINE",
"277 914 LINE",
"232 914 LINE",
"68 758 LINE"
);
}
);
width = 204;
}
);
note = Icircumflex;
unicode = 00CE;
},
{
glyphname = Idieresis;
lastChange = "2015-10-28 04:34:49 +0000";
layers = (
{
layerId = "72ACC467-88F1-4B5B-B511-FE0603CECF6A";
name = "Light Italic";
paths = (
{
closed = 1;
nodes = (
"88 0 LINE",
"236 699 LINE",
"183 699 LINE",
"35 0 LINE"
);
},
{
closed = 1;
nodes = (
"140 771 OFFCURVE",
"162 789 OFFCURVE",
"167 810 CURVE",
"171 831 OFFCURVE",
"157 848 OFFCURVE",
"137 848 CURVE SMOOTH",
"116 848 OFFCURVE",
"95 831 OFFCURVE",
"91 810 CURVE",
"86 789 OFFCURVE",
"99 771 OFFCURVE",
"120 771 CURVE SMOOTH"
);
},
{
closed = 1;
nodes = (
"348 771 OFFCURVE",
"370 789 OFFCURVE",
"375 810 CURVE",
"379 831 OFFCURVE",
"365 848 OFFCURVE",
"344 848 CURVE SMOOTH",
"323 848 OFFCURVE",
"301 831 OFFCURVE",
"297 810 CURVE",
"292 789 OFFCURVE",
"306 771 OFFCURVE",
"327 771 CURVE SMOOTH"
);
}
);
width = 204;
}
);
note = Idieresis;
unicode = 00CF;
},
{
glyphname = Idotaccent;
lastChange = "2015-10-28 04:34:48 +0000";
layers = (
{
layerId = "72ACC467-88F1-4B5B-B511-FE0603CECF6A";
name = "Light Italic";
paths = (
{
closed = 1;
nodes = (
"88 0 LINE",
"236 699 LINE",
"183 699 LINE",
"35 0 LINE"
);
},
{
closed = 1;
nodes = (
"240 752 OFFCURVE",
"262 770 OFFCURVE",
"267 791 CURVE",
"271 812 OFFCURVE",
"257 829 OFFCURVE",
"237 829 CURVE SMOOTH",
"216 829 OFFCURVE",
"194 812 OFFCURVE",
"190 791 CURVE",
"185 770 OFFCURVE",
"199 752 OFFCURVE",
"220 752 CURVE SMOOTH"
);
}
);
width = 204;
}
);
note = Idotaccent;
unicode = 0130;
},
{
glyphname = Idotbelow;
lastChange = "2015-10-28 04:34:49 +0000";
layers = (
{
layerId = "72ACC467-88F1-4B5B-B511-FE0603CECF6A";
name = "Light Italic";
paths = (
{
closed = 1;
nodes = (
"88 0 LINE",
"236 699 LINE",
"183 699 LINE",
"35 0 LINE"
);
},
{
closed = 1;
nodes = (
"53 -137 OFFCURVE",
"74 -119 OFFCURVE",
"79 -98 CURVE",
"83 -77 OFFCURVE",
"69 -60 OFFCURVE",
"50 -60 CURVE SMOOTH",
"29 -60 OFFCURVE",
"7 -77 OFFCURVE",
"3 -98 CURVE",
"-2 -119 OFFCURVE",
"12 -137 OFFCURVE",
"33 -137 CURVE SMOOTH"
);
}
);
width = 204;
}
);
note = Idotbelow;
unicode = 1ECA;
},
{
glyphname = Igrave;
lastChange = "2015-10-28 04:34:46 +0000";
layers = (
{
layerId = "72ACC467-88F1-4B5B-B511-FE0603CECF6A";
name = "Light Italic";
paths = (
{
closed = 1;
nodes = (
"88 0 LINE",
"236 699 LINE",
"183 699 LINE",
"35 0 LINE"
);
},
{
closed = 1;
nodes = (
"248 766 LINE",
"215 935 LINE",
"160 935 LINE",
"203 766 LINE"
);
}
);
width = 204;
}
);
note = Igrave;
unicode = 00CC;
},
{
glyphname = Ihookabove;
lastChange = "2015-10-28 04:34:49 +0000";
layers = (
{
layerId = "72ACC467-88F1-4B5B-B511-FE0603CECF6A";
name = "Light Italic";
paths = (
{
closed = 1;
nodes = (
"88 0 LINE",
"236 699 LINE",
"183 699 LINE",
"35 0 LINE"
);
},
{
closed = 1;
nodes = (
"242 743 LINE",
"250 782 LINE",
"314 787 OFFCURVE",
"354 824 OFFCURVE",
"364 873 CURVE SMOOTH",
"375 925 OFFCURVE",
"346 962 OFFCURVE",
"271 962 CURVE SMOOTH",
"247 962 OFFCURVE",
"219 958 OFFCURVE",
"203 953 CURVE",
"196 918 LINE",
"209 924 OFFCURVE",
"238 927 OFFCURVE",
"256 927 CURVE SMOOTH",
"303 927 OFFCURVE",
"325 910 OFFCURVE",
"317 871 CURVE SMOOTH",
"308 828 OFFCURVE",
"279 808 OFFCURVE",
"211 808 CURVE",
"197 743 LINE"
);
}
);
width = 204;
}
);
note = Ihookabove;
unicode = 1EC8;
},
{
glyphname = Imacron;
lastChange = "2015-10-28 04:34:46 +0000";
layers = (
{
layerId = "72ACC467-88F1-4B5B-B511-FE0603CECF6A";
name = "Light Italic";
paths = (
{
closed = 1;
nodes = (
"88 0 LINE",
"236 699 LINE",
"183 699 LINE",
"35 0 LINE"
);
},
{
closed = 1;
nodes = (
"369 763 LINE",
"378 804 LINE",
"86 804 LINE",
"77 763 LINE"
);
}
);
width = 204;
}
);
note = Imacron;
unicode = 012A;
},
{
glyphname = Iogonek;
lastChange = "2015-10-28 04:34:48 +0000";
layers = (
{
layerId = "72ACC467-88F1-4B5B-B511-FE0603CECF6A";
name = "Light Italic";
paths = (
{
closed = 1;
nodes = (
"88 0 LINE",
"236 699 LINE",
"183 699 LINE",
"35 0 LINE"
);
},
{
closed = 1;
nodes = (
"29 -208 OFFCURVE",
"49 -205 OFFCURVE",
"63 -199 CURVE",
"71 -162 LINE",
"58 -167 OFFCURVE",
"41 -171 OFFCURVE",
"24 -171 CURVE SMOOTH",
"-8 -171 OFFCURVE",
"-24 -155 OFFCURVE",
"-17 -119 CURVE SMOOTH",
"-7 -73 OFFCURVE",
"30 -35 OFFCURVE",
"87 0 CURVE",
"37 0 LINE",
"-10 -27 OFFCURVE",
"-54 -72 OFFCURVE",
"-65 -124 CURVE SMOOTH",
"-77 -181 OFFCURVE",
"-42 -208 OFFCURVE",
"6 -208 CURVE SMOOTH"
);
}
);
width = 204;
}
);
note = Iogonek;
unicode = 012E;
},
{
glyphname = Itilde;
lastChange = "2015-10-28 04:34:48 +0000";
layers = (
{
layerId = "72ACC467-88F1-4B5B-B511-FE0603CECF6A";
name = "Light Italic";
paths = (
{
closed = 1;
nodes = (
"88 0 LINE",
"236 699 LINE",
"183 699 LINE",
"35 0 LINE"
);
},
{
closed = 1;
nodes = (
"81 806 OFFCURVE",
"113 817 OFFCURVE",
"147 817 CURVE SMOOTH",
"211 817 OFFCURVE",
"240 767 OFFCURVE",
"313 767 CURVE SMOOTH",
"352 767 OFFCURVE",
"388 778 OFFCURVE",
"415 811 CURVE",
"426 862 LINE",
"391 820 OFFCURVE",
"357 809 OFFCURVE",
"322 809 CURVE SMOOTH",
"257 809 OFFCURVE",
"224 859 OFFCURVE",
"156 859 CURVE SMOOTH",
"118 859 OFFCURVE",
"81 847 OFFCURVE",
"54 815 CURVE",
"43 764 LINE"
);
}
);
width = 204;
}
);
note = Itilde;
unicode = 0128;
},
{
glyphname = J;
lastChange = "2015-10-28 04:34:46 +0000";
layers = (
{
layerId = "72ACC467-88F1-4B5B-B511-FE0603CECF6A";
name = "Light Italic";
paths = (
{
closed = 1;
nodes = (
"182 -15 OFFCURVE",
"254 36 OFFCURVE",
"276 141 CURVE SMOOTH",
"395 699 LINE",
"342 699 LINE",
"224 144 LINE SMOOTH",
"208 67 OFFCURVE",
"159 31 OFFCURVE",
"85 31 CURVE SMOOTH",
"61 31 OFFCURVE",
"23 36 OFFCURVE",
"4 44 CURVE",
"-6 -2 LINE",
"13 -10 OFFCURVE",
"52 -15 OFFCURVE",
"85 -15 CURVE SMOOTH"
);
}
);
width = 357;
}
);
note = J;
rightKerningGroup = J;
unicode = 004A;
},
{
glyphname = Jcircumflex;
lastChange = "2015-10-28 04:34:46 +0000";
layers = (
{
layerId = "72ACC467-88F1-4B5B-B511-FE0603CECF6A";
name = "Light Italic";
paths = (
{
closed = 1;
nodes = (
"182 -15 OFFCURVE",
"254 36 OFFCURVE",
"276 141 CURVE SMOOTH",
"395 699 LINE",
"342 699 LINE",
"224 144 LINE SMOOTH",
"208 67 OFFCURVE",
"159 31 OFFCURVE",
"85 31 CURVE SMOOTH",
"61 31 OFFCURVE",
"23 36 OFFCURVE",
"4 44 CURVE",
"-6 -2 LINE",
"13 -10 OFFCURVE",
"52 -15 OFFCURVE",
"85 -15 CURVE SMOOTH"
);
},
{
closed = 1;
nodes = (
"280 758 LINE",
"405 879 LINE",
"480 758 LINE",
"534 758 LINE",
"435 914 LINE",
"390 914 LINE",
"226 758 LINE"
);
}
);
width = 357;
}
);
note = Jcircumflex;
rightKerningGroup = J;
unicode = 0134;
},
{
glyphname = K;
lastChange = "2015-10-28 04:34:50 +0000";
layers = (
{
layerId = "72ACC467-88F1-4B5B-B511-FE0603CECF6A";
name = "Light Italic";
paths = (
{
closed = 1;
nodes = (
"88 0 LINE",
"162 351 LINE",
"451 0 LINE",
"512 0 LINE",
"224 350 LINE",
"645 699 LINE",
"578 699 LINE",
"164 357 LINE",
"236 699 LINE",
"183 699 LINE",
"35 0 LINE"
);
}
);
width = 604;
}
);
leftKerningGroup = K;
note = K;
rightKerningGroup = K;
unicode = 004B;
},
{
glyphname = Kcommaaccent;
lastChange = "2015-10-28 04:34:49 +0000";
layers = (
{
layerId = "72ACC467-88F1-4B5B-B511-FE0603CECF6A";
name = "Light Italic";
paths = (
{
closed = 1;
nodes = (
"88 0 LINE",
"162 351 LINE",
"451 0 LINE",
"512 0 LINE",
"224 350 LINE",
"645 699 LINE",
"578 699 LINE",
"164 357 LINE",
"236 699 LINE",
"183 699 LINE",
"35 0 LINE"
);
},
{
closed = 1;
nodes = (
"131 -260 LINE",
"260 -67 LINE",
"204 -67 LINE",
"85 -260 LINE"
);
}
);
width = 622;
}
);
leftKerningGroup = K;
note = Kcommaaccent;
rightKerningGroup = K;
unicode = 0136;
},
{
glyphname = L;
lastChange = "2015-10-28 04:34:49 +0000";
layers = (
{
layerId = "72ACC467-88F1-4B5B-B511-FE0603CECF6A";
name = "Light Italic";
paths = (
{
closed = 1;
nodes = (
"473 0 LINE",
"482 45 LINE",
"97 45 LINE",
"236 699 LINE",
"183 699 LINE",
"35 0 LINE"
);
}
);
width = 546;
}
);
note = L;
rightKerningGroup = L;
unicode = 004C;
},
{
glyphname = Lacute;
lastChange = "2015-10-28 04:34:49 +0000";
layers = (
{
layerId = "72ACC467-88F1-4B5B-B511-FE0603CECF6A";
name = "Light Italic";
paths = (
{
closed = 1;
nodes = (
"473 0 LINE",
"482 45 LINE",
"97 45 LINE",
"236 699 LINE",
"183 699 LINE",
"35 0 LINE"
);
},
{
closed = 1;
nodes = (
"246 764 LINE",
"360 933 LINE",
"306 933 LINE",
"200 764 LINE"
);
}
);
width = 546;
}
);
note = Lacute;
rightKerningGroup = L;
unicode = 0139;
},
{
glyphname = Lcaron;
lastChange = "2015-10-28 04:34:46 +0000";
layers = (
{
layerId = "72ACC467-88F1-4B5B-B511-FE0603CECF6A";
name = "Light Italic";
paths = (
{
closed = 1;
nodes = (
"473 0 LINE",
"482 45 LINE",
"97 45 LINE",
"236 699 LINE",
"183 699 LINE",
"35 0 LINE"
);
},
{
closed = 1;
nodes = (
"361 502 LINE",
"490 695 LINE",
"434 695 LINE",
"315 502 LINE"
);
}
);
width = 546;
}
);
note = Lcaron;
rightKerningGroup = L;
unicode = 013D;
},
{
glyphname = Lcommaaccent;
lastChange = "2015-10-28 04:34:49 +0000";
layers = (
{
layerId = "72ACC467-88F1-4B5B-B511-FE0603CECF6A";
name = "Light Italic";
paths = (
{
closed = 1;
nodes = (
"473 0 LINE",
"482 45 LINE",
"97 45 LINE",
"236 699 LINE",
"183 699 LINE",
"35 0 LINE"
);
},
{
closed = 1;
nodes = (
"140 -260 LINE",
"269 -67 LINE",
"213 -67 LINE",
"94 -260 LINE"
);
}
);
width = 546;
}
);
note = Lcommaaccent;
rightKerningGroup = L;
unicode = 013B;
},
{
glyphname = Ldot;
lastChange = "2015-10-28 04:34:47 +0000";
layers = (
{
layerId = "72ACC467-88F1-4B5B-B511-FE0603CECF6A";
name = "Light Italic";
paths = (
{
closed = 1;
nodes = (
"473 0 LINE",
"482 45 LINE",
"97 45 LINE",
"236 699 LINE",
"183 699 LINE",
"35 0 LINE"
);
},
{
closed = 1;
nodes = (
"383 336 OFFCURVE",
"405 354 OFFCURVE",
"410 375 CURVE",
"414 396 OFFCURVE",
"400 413 OFFCURVE",
"380 413 CURVE SMOOTH",
"359 413 OFFCURVE",
"337 396 OFFCURVE",
"333 375 CURVE",
"328 354 OFFCURVE",
"342 336 OFFCURVE",
"363 336 CURVE SMOOTH"
);
}
);
width = 546;
}
);
note = Ldot;
rightKerningGroup = L;
unicode = 013F;
},
{
glyphname = Ldotbelow;
lastChange = "2015-10-28 04:34:48 +0000";
layers = (
{
layerId = "72ACC467-88F1-4B5B-B511-FE0603CECF6A";
name = "Light Italic";
paths = (
{
closed = 1;
nodes = (
"473 0 LINE",
"482 45 LINE",
"97 45 LINE",
"236 699 LINE",
"183 699 LINE",
"35 0 LINE"
);
},
{
closed = 1;
nodes = (
"238 -137 OFFCURVE",
"259 -119 OFFCURVE",
"264 -98 CURVE",
"268 -77 OFFCURVE",
"254 -60 OFFCURVE",
"235 -60 CURVE SMOOTH",
"214 -60 OFFCURVE",
"192 -77 OFFCURVE",
"188 -98 CURVE",
"183 -119 OFFCURVE",
"197 -137 OFFCURVE",
"218 -137 CURVE SMOOTH"
);
}
);
width = 546;
}
);
note = Ldotbelow;
rightKerningGroup = L;
unicode = 1E36;
},
{
glyphname = Ldotbelowmacron;
lastChange = "2015-10-28 04:34:49 +0000";
layers = (
{
layerId = "72ACC467-88F1-4B5B-B511-FE0603CECF6A";
name = "Light Italic";
paths = (
{
closed = 1;
nodes = (
"473 0 LINE",
"482 45 LINE",
"97 45 LINE",
"236 699 LINE",
"183 699 LINE",
"35 0 LINE"
);
},
{
closed = 1;
nodes = (
"241 -137 OFFCURVE",
"262 -119 OFFCURVE",
"267 -98 CURVE",
"271 -77 OFFCURVE",
"257 -60 OFFCURVE",
"238 -60 CURVE SMOOTH",
"217 -60 OFFCURVE",
"195 -77 OFFCURVE",
"191 -98 CURVE",
"186 -119 OFFCURVE",
"200 -137 OFFCURVE",
"221 -137 CURVE SMOOTH"
);
},
{
closed = 1;
nodes = (
"529 798 LINE",
"537 837 LINE",
"248 837 LINE",
"241 798 LINE"
);
}
);
width = 546;
}
);
note = Ldotbelowmacron;
rightKerningGroup = L;
unicode = 1E38;
},
{
glyphname = Llinebelow;
lastChange = "2015-10-28 04:34:49 +0000";
layers = (
{
layerId = "72ACC467-88F1-4B5B-B511-FE0603CECF6A";
name = "Light Italic";
paths = (
{
closed = 1;
nodes = (
"473 0 LINE",
"482 45 LINE",
"97 45 LINE",
"236 699 LINE",
"183 699 LINE",
"35 0 LINE"
);
},
{
closed = 1;
nodes = (
"377 -121 LINE",
"385 -80 LINE",
"95 -80 LINE",
"87 -121 LINE"
);
}
);
width = 546;
}
);
note = Llinebelow;
rightKerningGroup = L;
unicode = 1E3A;
},
{
glyphname = Lslash;
lastChange = "2015-10-28 04:34:48 +0000";
layers = (
{
layerId = "72ACC467-88F1-4B5B-B511-FE0603CECF6A";
name = "Light Italic";
paths = (
{
closed = 1;
nodes = (
"542 0 LINE",
"551 45 LINE",
"165 45 LINE",
"229 346 LINE",
"421 425 LINE",
"431 472 LINE",
"239 394 LINE",
"304 699 LINE",
"251 699 LINE",
"181 370 LINE",
"52 318 LINE",
"42 270 LINE",
"171 323 LINE",
"103 0 LINE"
);
}
);
width = 612;
}
);
note = Lslash;
rightKerningGroup = L;
unicode = 0141;
},
{
glyphname = M;
lastChange = "2015-10-28 04:34:48 +0000";
layers = (
{
layerId = "72ACC467-88F1-4B5B-B511-FE0603CECF6A";
name = "Light Italic";
paths = (
{
closed = 1;
nodes = (
"87 0 LINE",
"212 591 LINE",
"357 0 LINE",
"386 0 LINE",
"781 591 LINE",
"656 0 LINE",
"708 0 LINE",
"856 699 LINE",
"798 699 LINE",
"387 84 LINE",
"237 699 LINE",
"183 699 LINE",
"35 0 LINE"
);
}
);
width = 823;
}
);
note = M;
unicode = 004D;
},
{
glyphname = Mdotbelow;
lastChange = "2015-10-28 04:34:49 +0000";
layers = (
{
layerId = "72ACC467-88F1-4B5B-B511-FE0603CECF6A";
name = "Light Italic";
paths = (
{
closed = 1;
nodes = (
"87 0 LINE",
"212 591 LINE",
"357 0 LINE",
"386 0 LINE",
"781 591 LINE",
"656 0 LINE",
"708 0 LINE",
"856 699 LINE",
"798 699 LINE",
"387 84 LINE",
"237 699 LINE",
"183 699 LINE",
"35 0 LINE"
);
},
{
closed = 1;
nodes = (
"364 -137 OFFCURVE",
"385 -119 OFFCURVE",
"390 -98 CURVE",
"394 -77 OFFCURVE",
"380 -60 OFFCURVE",
"361 -60 CURVE SMOOTH",
"340 -60 OFFCURVE",
"318 -77 OFFCURVE",
"314 -98 CURVE",
"309 -119 OFFCURVE",
"323 -137 OFFCURVE",
"344 -137 CURVE SMOOTH"
);
}
);
width = 823;
}
);
note = Mdotbelow;
unicode = 1E42;
},
{
glyphname = N;
lastChange = "2015-10-28 04:34:46 +0000";
layers = (
{
layerId = "72ACC467-88F1-4B5B-B511-FE0603CECF6A";
name = "Light Italic";
paths = (
{
closed = 1;
nodes = (
"88 0 LINE",
"217 608 LINE",
"506 0 LINE",
"555 0 LINE",
"703 699 LINE",
"650 699 LINE",
"521 92 LINE",
"233 699 LINE",
"183 699 LINE",
"35 0 LINE"
);
}
);
width = 670;
}
);
note = N;
unicode = 004E;
},
{
glyphname = Nacute;
lastChange = "2015-10-28 04:34:49 +0000";
layers = (
{
layerId = "72ACC467-88F1-4B5B-B511-FE0603CECF6A";
name = "Light Italic";
paths = (
{
closed = 1;
nodes = (
"88 0 LINE",
"217 608 LINE",
"506 0 LINE",
"555 0 LINE",
"703 699 LINE",
"650 699 LINE",
"521 92 LINE",
"233 699 LINE",
"183 699 LINE",
"35 0 LINE"
);
},
{
closed = 1;
nodes = (
"483 760 LINE",
"597 929 LINE",
"543 929 LINE",
"437 760 LINE"
);
}
);
width = 670;
}
);
note = Nacute;
unicode = 0143;
},
{
glyphname = Ncaron;
lastChange = "2015-10-28 04:34:48 +0000";
layers = (
{
layerId = "72ACC467-88F1-4B5B-B511-FE0603CECF6A";
name = "Light Italic";
paths = (
{
closed = 1;
nodes = (
"88 0 LINE",
"217 608 LINE",
"506 0 LINE",
"555 0 LINE",
"703 699 LINE",
"650 699 LINE",
"521 92 LINE",
"233 699 LINE",
"183 699 LINE",
"35 0 LINE"
);
},
{
closed = 1;
nodes = (
"481 763 LINE",
"647 919 LINE",
"593 919 LINE",
"467 798 LINE",
"393 919 LINE",
"338 919 LINE",
"436 763 LINE"
);
}
);
width = 670;
}
);
note = Ncaron;
unicode = 0147;
},
{
glyphname = Ncommaaccent;
lastChange = "2015-10-28 04:34:48 +0000";
layers = (
{
layerId = "72ACC467-88F1-4B5B-B511-FE0603CECF6A";
name = "Light Italic";
paths = (
{
closed = 1;
nodes = (
"88 0 LINE",
"217 608 LINE",
"506 0 LINE",
"555 0 LINE",
"703 699 LINE",
"650 699 LINE",
"521 92 LINE",
"233 699 LINE",
"183 699 LINE",
"35 0 LINE"
);
},
{
closed = 1;
nodes = (
"203 -260 LINE",
"332 -67 LINE",
"276 -67 LINE",
"157 -260 LINE"
);
}
);
width = 670;
}
);
note = Ncommaaccent;
unicode = 0145;
},
{
glyphname = Ndotaccent;
lastChange = "2015-10-28 04:34:50 +0000";
layers = (
{
layerId = "72ACC467-88F1-4B5B-B511-FE0603CECF6A";
name = "Light Italic";
paths = (
{
closed = 1;
nodes = (
"88 0 LINE",
"217 608 LINE",
"506 0 LINE",
"555 0 LINE",
"703 699 LINE",
"650 699 LINE",
"521 92 LINE",
"233 699 LINE",
"183 699 LINE",
"35 0 LINE"
);
},
{
closed = 1;
nodes = (
"491 765 OFFCURVE",
"513 783 OFFCURVE",
"518 804 CURVE",
"522 825 OFFCURVE",
"508 842 OFFCURVE",
"488 842 CURVE SMOOTH",
"467 842 OFFCURVE",
"445 825 OFFCURVE",
"441 804 CURVE",
"436 783 OFFCURVE",
"450 765 OFFCURVE",
"471 765 CURVE SMOOTH"
);
}
);
width = 670;
}
);
note = Ndotaccent;
unicode = 1E44;
},
{
glyphname = Ndotbelow;
lastChange = "2015-10-28 04:34:50 +0000";
layers = (
{
layerId = "72ACC467-88F1-4B5B-B511-FE0603CECF6A";
name = "Light Italic";
paths = (
{
closed = 1;
nodes = (
"88 0 LINE",
"217 608 LINE",
"506 0 LINE",
"555 0 LINE",
"703 699 LINE",
"650 699 LINE",
"521 92 LINE",
"233 699 LINE",
"183 699 LINE",
"35 0 LINE"
);
},
{
closed = 1;
nodes = (
"294 -137 OFFCURVE",
"315 -119 OFFCURVE",
"320 -98 CURVE",
"324 -77 OFFCURVE",
"310 -60 OFFCURVE",
"291 -60 CURVE SMOOTH",
"270 -60 OFFCURVE",
"248 -77 OFFCURVE",
"244 -98 CURVE",
"239 -119 OFFCURVE",
"253 -137 OFFCURVE",
"274 -137 CURVE SMOOTH"
);
}
);
width = 670;
}
);
note = Ndotbelow;
unicode = 1E46;
},
{
glyphname = Eng;
lastChange = "2015-10-28 04:34:46 +0000";
layers = (
{
layerId = "72ACC467-88F1-4B5B-B511-FE0603CECF6A";
name = "Light Italic";
paths = (
{
closed = 1;
nodes = (
"462 -231 OFFCURVE",
"516 -186 OFFCURVE",
"537 -85 CURVE SMOOTH",
"703 699 LINE",
"650 699 LINE",
"521 92 LINE",
"233 699 LINE",
"183 699 LINE",
"35 0 LINE",
"88 0 LINE",
"217 608 LINE",
"504 4 LINE",
"485 -86 LINE SMOOTH",
"470 -157 OFFCURVE",
"439 -189 OFFCURVE",
"369 -189 CURVE SMOOTH",
"351 -189 OFFCURVE",
"332 -185 OFFCURVE",
"317 -179 CURVE",
"308 -224 LINE",
"325 -229 OFFCURVE",
"345 -231 OFFCURVE",
"370 -231 CURVE SMOOTH"
);
}
);
width = 670;
}
);
note = Eng;
unicode = 014A;
},
{
glyphname = Nlinebelow;
lastChange = "2015-10-28 04:34:49 +0000";
layers = (
{
layerId = "72ACC467-88F1-4B5B-B511-FE0603CECF6A";
name = "Light Italic";
paths = (
{
closed = 1;
nodes = (
"88 0 LINE",
"217 608 LINE",
"506 0 LINE",
"555 0 LINE",
"703 699 LINE",
"650 699 LINE",
"521 92 LINE",
"233 699 LINE",
"183 699 LINE",
"35 0 LINE"
);
},
{
closed = 1;
nodes = (
"430 -121 LINE",
"438 -80 LINE",
"148 -80 LINE",
"140 -121 LINE"
);
}
);
width = 670;
}
);
note = Nlinebelow;
unicode = 1E48;
},
{
glyphname = Ntilde;
lastChange = "2015-10-28 04:34:49 +0000";
layers = (
{
layerId = "72ACC467-88F1-4B5B-B511-FE0603CECF6A";
name = "Light Italic";
paths = (
{
closed = 1;
nodes = (
"88 0 LINE",
"217 608 LINE",
"506 0 LINE",
"555 0 LINE",
"703 699 LINE",
"650 699 LINE",
"521 92 LINE",
"233 699 LINE",
"183 699 LINE",
"35 0 LINE"
);
},
{
closed = 1;
nodes = (
"326 818 OFFCURVE",
"358 829 OFFCURVE",
"392 829 CURVE SMOOTH",
"456 829 OFFCURVE",
"485 779 OFFCURVE",
"558 779 CURVE SMOOTH",
"597 779 OFFCURVE",
"633 790 OFFCURVE",
"660 823 CURVE",
"671 874 LINE",
"636 832 OFFCURVE",
"602 821 OFFCURVE",
"567 821 CURVE SMOOTH",
"502 821 OFFCURVE",
"469 871 OFFCURVE",
"401 871 CURVE SMOOTH",
"363 871 OFFCURVE",
"326 859 OFFCURVE",
"299 827 CURVE",
"288 776 LINE"
);
}
);
width = 670;
}
);
note = Ntilde;
unicode = 00D1;
},
{
glyphname = O;
lastChange = "2015-10-28 04:34:46 +0000";
layers = (
{
layerId = "72ACC467-88F1-4B5B-B511-FE0603CECF6A";
name = "Light Italic";
paths = (
{
closed = 1;
nodes = (
"595 -15 OFFCURVE",
"769 131 OFFCURVE",
"816 349 CURVE SMOOTH",
"862 568 OFFCURVE",
"736 714 OFFCURVE",
"529 714 CURVE SMOOTH",
"308 714 OFFCURVE",
"135 568 OFFCURVE",
"89 349 CURVE SMOOTH",
"42 131 OFFCURVE",
"168 -15 OFFCURVE",
"374 -15 CURVE SMOOTH"
);
},
{
closed = 1;
nodes = (
"201 32 OFFCURVE",
"99 153 OFFCURVE",
"141 349 CURVE SMOOTH",
"182 543 OFFCURVE",
"345 666 OFFCURVE",
"519 666 CURVE SMOOTH",
"706 666 OFFCURVE",
"805 543 OFFCURVE",
"764 349 CURVE SMOOTH",
"722 153 OFFCURVE",
"556 32 OFFCURVE",
"384 32 CURVE SMOOTH"
);
}
);
width = 837;
}
);
leftKerningGroup = O;
note = O;
rightKerningGroup = O;
unicode = 004F;
},
{
glyphname = Oacute;
lastChange = "2015-10-28 04:34:49 +0000";
layers = (
{
layerId = "72ACC467-88F1-4B5B-B511-FE0603CECF6A";
name = "Light Italic";
paths = (
{
closed = 1;
nodes = (
"595 -15 OFFCURVE",
"769 131 OFFCURVE",
"816 349 CURVE SMOOTH",
"862 568 OFFCURVE",
"736 714 OFFCURVE",
"529 714 CURVE SMOOTH",
"308 714 OFFCURVE",
"135 568 OFFCURVE",
"89 349 CURVE SMOOTH",
"42 131 OFFCURVE",
"168 -15 OFFCURVE",
"374 -15 CURVE SMOOTH"
);
},
{
closed = 1;
nodes = (
"201 32 OFFCURVE",
"99 153 OFFCURVE",
"141 349 CURVE SMOOTH",
"182 543 OFFCURVE",
"345 666 OFFCURVE",
"519 666 CURVE SMOOTH",
"706 666 OFFCURVE",
"805 543 OFFCURVE",
"764 349 CURVE SMOOTH",
"722 153 OFFCURVE",
"556 32 OFFCURVE",
"384 32 CURVE SMOOTH"
);
},
{
closed = 1;
nodes = (
"554 766 LINE",
"668 935 LINE",
"614 935 LINE",
"508 766 LINE"
);
}
);
width = 837;
}
);
leftKerningGroup = O;
note = Oacute;
rightKerningGroup = O;
unicode = 00D3;
},
{
glyphname = Obreve;
lastChange = "2015-10-28 04:34:45 +0000";
layers = (
{
layerId = "72ACC467-88F1-4B5B-B511-FE0603CECF6A";
name = "Light Italic";
paths = (
{
closed = 1;
nodes = (
"595 -15 OFFCURVE",
"769 131 OFFCURVE",
"816 349 CURVE SMOOTH",
"862 568 OFFCURVE",
"736 714 OFFCURVE",
"529 714 CURVE SMOOTH",
"308 714 OFFCURVE",
"135 568 OFFCURVE",
"89 349 CURVE SMOOTH",
"42 131 OFFCURVE",
"168 -15 OFFCURVE",
"374 -15 CURVE SMOOTH"
);
},
{
closed = 1;
nodes = (
"201 32 OFFCURVE",
"99 153 OFFCURVE",
"141 349 CURVE SMOOTH",
"182 543 OFFCURVE",
"345 666 OFFCURVE",
"519 666 CURVE SMOOTH",
"706 666 OFFCURVE",
"805 543 OFFCURVE",
"764 349 CURVE SMOOTH",
"722 153 OFFCURVE",
"556 32 OFFCURVE",
"384 32 CURVE SMOOTH"
);
},
{
closed = 1;
nodes = (
"614 749 OFFCURVE",
"676 801 OFFCURVE",
"690 868 CURVE",
"649 868 LINE",
"639 821 OFFCURVE",
"599 788 OFFCURVE",
"545 788 CURVE SMOOTH",
"491 788 OFFCURVE",
"465 821 OFFCURVE",
"475 868 CURVE",
"433 868 LINE",
"419 801 OFFCURVE",
"459 749 OFFCURVE",
"537 749 CURVE SMOOTH"
);
}
);
width = 837;
}
);
leftKerningGroup = O;
note = Obreve;
rightKerningGroup = O;
unicode = 014E;
},
{
glyphname = Ocaron;
lastChange = "2015-10-28 04:34:47 +0000";
layers = (
{
layerId = "72ACC467-88F1-4B5B-B511-FE0603CECF6A";
name = "Light Italic";
paths = (
{
closed = 1;
nodes = (
"595 -15 OFFCURVE",
"769 131 OFFCURVE",
"816 349 CURVE SMOOTH",
"862 568 OFFCURVE",
"736 714 OFFCURVE",
"529 714 CURVE SMOOTH",
"308 714 OFFCURVE",
"135 568 OFFCURVE",
"89 349 CURVE SMOOTH",
"42 131 OFFCURVE",
"168 -15 OFFCURVE",
"374 -15 CURVE SMOOTH"
);
},
{
closed = 1;
nodes = (
"201 32 OFFCURVE",
"99 153 OFFCURVE",
"141 349 CURVE SMOOTH",
"182 543 OFFCURVE",
"345 666 OFFCURVE",
"519 666 CURVE SMOOTH",
"706 666 OFFCURVE",
"805 543 OFFCURVE",
"764 349 CURVE SMOOTH",
"722 153 OFFCURVE",
"556 32 OFFCURVE",
"384 32 CURVE SMOOTH"
);
},
{
closed = 1;
nodes = (
"562 763 LINE",
"728 919 LINE",
"674 919 LINE",
"548 798 LINE",
"474 919 LINE",
"419 919 LINE",
"517 763 LINE"
);
}
);
width = 837;
}
);
leftKerningGroup = O;
note = Ocaron;
rightKerningGroup = O;
unicode = 01D1;
},
{
glyphname = Ocircumflex;
lastChange = "2015-10-28 04:34:45 +0000";
layers = (
{
layerId = "72ACC467-88F1-4B5B-B511-FE0603CECF6A";
name = "Light Italic";
paths = (
{
closed = 1;
nodes = (
"595 -15 OFFCURVE",
"769 131 OFFCURVE",
"816 349 CURVE SMOOTH",
"862 568 OFFCURVE",
"736 714 OFFCURVE",
"529 714 CURVE SMOOTH",
"308 714 OFFCURVE",
"135 568 OFFCURVE",
"89 349 CURVE SMOOTH",
"42 131 OFFCURVE",
"168 -15 OFFCURVE",
"374 -15 CURVE SMOOTH"
);
},
{
closed = 1;
nodes = (
"201 32 OFFCURVE",
"99 153 OFFCURVE",
"141 349 CURVE SMOOTH",
"182 543 OFFCURVE",
"345 666 OFFCURVE",
"519 666 CURVE SMOOTH",
"706 666 OFFCURVE",
"805 543 OFFCURVE",
"764 349 CURVE SMOOTH",
"722 153 OFFCURVE",
"556 32 OFFCURVE",
"384 32 CURVE SMOOTH"
);
},
{
closed = 1;
nodes = (
"439 770 LINE",
"564 891 LINE",
"639 770 LINE",
"693 770 LINE",
"594 926 LINE",
"549 926 LINE",
"385 770 LINE"
);
}
);
width = 837;
}
);
leftKerningGroup = O;
note = Ocircumflex;
rightKerningGroup = O;
unicode = 00D4;
},
{
glyphname = Ocircumflexacute;
lastChange = "2015-10-28 04:34:49 +0000";
layers = (
{
layerId = "72ACC467-88F1-4B5B-B511-FE0603CECF6A";
name = "Light Italic";
paths = (
{
closed = 1;
nodes = (
"595 -15 OFFCURVE",
"769 131 OFFCURVE",
"816 349 CURVE SMOOTH",
"862 568 OFFCURVE",
"736 714 OFFCURVE",
"529 714 CURVE SMOOTH",
"308 714 OFFCURVE",
"135 568 OFFCURVE",
"89 349 CURVE SMOOTH",
"42 131 OFFCURVE",
"168 -15 OFFCURVE",
"374 -15 CURVE SMOOTH"
);
},
{
closed = 1;
nodes = (
"201 32 OFFCURVE",
"99 153 OFFCURVE",
"141 349 CURVE SMOOTH",
"182 543 OFFCURVE",
"345 666 OFFCURVE",
"519 666 CURVE SMOOTH",
"706 666 OFFCURVE",
"805 543 OFFCURVE",
"764 349 CURVE SMOOTH",
"722 153 OFFCURVE",
"556 32 OFFCURVE",
"384 32 CURVE SMOOTH"
);
},
{
closed = 1;
nodes = (
"445 744 LINE",
"559 835 LINE",
"635 744 LINE",
"688 744 LINE",
"584 868 LINE",
"547 868 LINE",
"391 744 LINE"
);
},
{
closed = 1;
nodes = (
"682 837 LINE",
"781 951 LINE",
"735 951 LINE",
"644 837 LINE"
);
}
);
width = 837;
}
);
leftKerningGroup = O;
note = Ocircumflexacute;
rightKerningGroup = O;
unicode = 1ED0;
},
{
glyphname = Ocircumflexdotbelow;
lastChange = "2015-10-28 04:34:50 +0000";
layers = (
{
layerId = "72ACC467-88F1-4B5B-B511-FE0603CECF6A";
name = "Light Italic";
paths = (
{
closed = 1;
nodes = (
"595 -15 OFFCURVE",
"769 131 OFFCURVE",
"816 349 CURVE SMOOTH",
"862 568 OFFCURVE",
"736 714 OFFCURVE",
"529 714 CURVE SMOOTH",
"308 714 OFFCURVE",
"135 568 OFFCURVE",
"89 349 CURVE SMOOTH",
"42 131 OFFCURVE",
"168 -15 OFFCURVE",
"374 -15 CURVE SMOOTH"
);
},
{
closed = 1;
nodes = (
"370 -137 OFFCURVE",
"391 -119 OFFCURVE",
"396 -98 CURVE",
"400 -77 OFFCURVE",
"386 -60 OFFCURVE",
"367 -60 CURVE SMOOTH",
"346 -60 OFFCURVE",
"324 -77 OFFCURVE",
"320 -98 CURVE",
"315 -119 OFFCURVE",
"329 -137 OFFCURVE",
"350 -137 CURVE SMOOTH"
);
},
{
closed = 1;
nodes = (
"201 32 OFFCURVE",
"99 153 OFFCURVE",
"141 349 CURVE SMOOTH",
"182 543 OFFCURVE",
"345 666 OFFCURVE",
"519 666 CURVE SMOOTH",
"706 666 OFFCURVE",
"805 543 OFFCURVE",
"764 349 CURVE SMOOTH",
"722 153 OFFCURVE",
"556 32 OFFCURVE",
"384 32 CURVE SMOOTH"
);
},
{
closed = 1;
nodes = (
"440 764 LINE",
"565 885 LINE",
"640 764 LINE",
"694 764 LINE",
"595 920 LINE",
"550 920 LINE",
"386 764 LINE"
);
}
);
width = 837;
}
);
leftKerningGroup = O;
note = Ocircumflexdotbelow;
rightKerningGroup = O;
unicode = 1ED8;
},
{
glyphname = Ocircumflexgrave;
lastChange = "2015-10-28 04:34:47 +0000";
layers = (
{
layerId = "72ACC467-88F1-4B5B-B511-FE0603CECF6A";
name = "Light Italic";
paths = (
{
closed = 1;
nodes = (
"595 -15 OFFCURVE",
"769 131 OFFCURVE",
"816 349 CURVE SMOOTH",
"862 568 OFFCURVE",
"736 714 OFFCURVE",
"529 714 CURVE SMOOTH",
"308 714 OFFCURVE",
"135 568 OFFCURVE",
"89 349 CURVE SMOOTH",
"42 131 OFFCURVE",
"168 -15 OFFCURVE",
"374 -15 CURVE SMOOTH"
);
},
{
closed = 1;
nodes = (
"201 32 OFFCURVE",
"99 153 OFFCURVE",
"141 349 CURVE SMOOTH",
"182 543 OFFCURVE",
"345 666 OFFCURVE",
"519 666 CURVE SMOOTH",
"706 666 OFFCURVE",
"805 543 OFFCURVE",
"764 349 CURVE SMOOTH",
"722 153 OFFCURVE",
"556 32 OFFCURVE",
"384 32 CURVE SMOOTH"
);
},
{
closed = 1;
nodes = (
"469 837 LINE",
"425 951 LINE",
"379 951 LINE",
"431 837 LINE"
);
},
{
closed = 1;
nodes = (
"438 744 LINE",
"552 835 LINE",
"628 744 LINE",
"681 744 LINE",
"578 868 LINE",
"541 868 LINE",
"385 744 LINE"
);
}
);
width = 837;
}
);
leftKerningGroup = O;
note = Ocircumflexgrave;
rightKerningGroup = O;
unicode = 1ED2;
},
{
glyphname = Ocircumflexhookabove;
lastChange = "2015-10-28 04:34:49 +0000";
layers = (
{
layerId = "72ACC467-88F1-4B5B-B511-FE0603CECF6A";
name = "Light Italic";
paths = (
{
closed = 1;
nodes = (
"595 -15 OFFCURVE",
"769 131 OFFCURVE",
"816 349 CURVE SMOOTH",
"862 568 OFFCURVE",
"736 714 OFFCURVE",
"529 714 CURVE SMOOTH",
"308 714 OFFCURVE",
"135 568 OFFCURVE",
"89 349 CURVE SMOOTH",
"42 131 OFFCURVE",
"168 -15 OFFCURVE",
"374 -15 CURVE SMOOTH"
);
},
{
closed = 1;
nodes = (
"201 32 OFFCURVE",
"99 153 OFFCURVE",
"141 349 CURVE SMOOTH",
"182 543 OFFCURVE",
"345 666 OFFCURVE",
"519 666 CURVE SMOOTH",
"706 666 OFFCURVE",
"805 543 OFFCURVE",
"764 349 CURVE SMOOTH",
"722 153 OFFCURVE",
"556 32 OFFCURVE",
"384 32 CURVE SMOOTH"
);
},
{
closed = 1;
nodes = (
"437 744 LINE",
"551 835 LINE",
"627 744 LINE",
"679 744 LINE",
"576 868 LINE",
"539 868 LINE",
"383 744 LINE"
);
},
{
closed = 1;
nodes = (
"673 828 LINE",
"678 854 LINE",
"723 858 OFFCURVE",
"753 883 OFFCURVE",
"760 917 CURVE SMOOTH",
"768 955 OFFCURVE",
"748 981 OFFCURVE",
"696 981 CURVE SMOOTH",
"676 981 OFFCURVE",
"654 977 OFFCURVE",
"640 972 CURVE",
"634 942 LINE",
"646 947 OFFCURVE",
"666 950 OFFCURVE",
"682 950 CURVE SMOOTH",
"712 950 OFFCURVE",
"724 941 OFFCURVE",
"719 917 CURVE SMOOTH",
"713 889 OFFCURVE",
"691 878 OFFCURVE",
"648 878 CURVE",
"638 828 LINE"
);
}
);
width = 837;
}
);
leftKerningGroup = O;
note = Ocircumflexhookabove;
rightKerningGroup = O;
unicode = 1ED4;
},
{
glyphname = Ocircumflextilde;
lastChange = "2015-10-28 04:34:49 +0000";
layers = (
{
layerId = "72ACC467-88F1-4B5B-B511-FE0603CECF6A";
name = "Light Italic";
paths = (
{
closed = 1;
nodes = (
"595 -15 OFFCURVE",
"769 131 OFFCURVE",
"816 349 CURVE SMOOTH",
"862 568 OFFCURVE",
"736 714 OFFCURVE",
"529 714 CURVE SMOOTH",
"308 714 OFFCURVE",
"135 568 OFFCURVE",
"89 349 CURVE SMOOTH",
"42 131 OFFCURVE",
"168 -15 OFFCURVE",
"374 -15 CURVE SMOOTH"
);
},
{
closed = 1;
nodes = (
"201 32 OFFCURVE",
"99 153 OFFCURVE",
"141 349 CURVE SMOOTH",
"182 543 OFFCURVE",
"345 666 OFFCURVE",
"519 666 CURVE SMOOTH",
"706 666 OFFCURVE",
"805 543 OFFCURVE",
"764 349 CURVE SMOOTH",
"722 153 OFFCURVE",
"556 32 OFFCURVE",
"384 32 CURVE SMOOTH"
);
},
{
closed = 1;
nodes = (
"616 745 OFFCURVE",
"677 796 OFFCURVE",
"691 863 CURVE",
"651 863 LINE",
"641 816 OFFCURVE",
"601 783 OFFCURVE",
"547 783 CURVE SMOOTH",
"493 783 OFFCURVE",
"467 816 OFFCURVE",
"477 863 CURVE",
"436 863 LINE",
"422 796 OFFCURVE",
"462 745 OFFCURVE",
"539 745 CURVE SMOOTH"
);
},
{
closed = 1;
nodes = (
"446 921 OFFCURVE",
"471 931 OFFCURVE",
"501 931 CURVE SMOOTH",
"549 931 OFFCURVE",
"585 887 OFFCURVE",
"641 887 CURVE SMOOTH",
"676 887 OFFCURVE",
"702 896 OFFCURVE",
"724 923 CURVE",
"734 969 LINE",
"705 934 OFFCURVE",
"680 923 OFFCURVE",
"649 923 CURVE SMOOTH",
"600 923 OFFCURVE",
"561 968 OFFCURVE",
"509 968 CURVE SMOOTH",
"475 968 OFFCURVE",
"446 958 OFFCURVE",
"425 931 CURVE",
"415 886 LINE"
);
}
);
width = 837;
}
);
leftKerningGroup = O;
note = Ocircumflextilde;
rightKerningGroup = O;
unicode = 1ED6;
},
{
glyphname = Odieresis;
lastChange = "2015-10-28 04:34:49 +0000";
layers = (
{
layerId = "72ACC467-88F1-4B5B-B511-FE0603CECF6A";
name = "Light Italic";
paths = (
{
closed = 1;
nodes = (
"595 -15 OFFCURVE",
"769 131 OFFCURVE",
"816 349 CURVE SMOOTH",
"862 568 OFFCURVE",
"736 714 OFFCURVE",
"529 714 CURVE SMOOTH",
"308 714 OFFCURVE",
"135 568 OFFCURVE",
"89 349 CURVE SMOOTH",
"42 131 OFFCURVE",
"168 -15 OFFCURVE",
"374 -15 CURVE SMOOTH"
);
},
{
closed = 1;
nodes = (
"201 32 OFFCURVE",
"99 153 OFFCURVE",
"141 349 CURVE SMOOTH",
"182 543 OFFCURVE",
"345 666 OFFCURVE",
"519 666 CURVE SMOOTH",
"706 666 OFFCURVE",
"805 543 OFFCURVE",
"764 349 CURVE SMOOTH",
"722 153 OFFCURVE",
"556 32 OFFCURVE",
"384 32 CURVE SMOOTH"
);
},
{
closed = 1;
nodes = (
"457 771 OFFCURVE",
"479 789 OFFCURVE",
"484 810 CURVE",
"488 831 OFFCURVE",
"474 848 OFFCURVE",
"454 848 CURVE SMOOTH",
"433 848 OFFCURVE",
"412 831 OFFCURVE",
"408 810 CURVE",
"403 789 OFFCURVE",
"416 771 OFFCURVE",
"437 771 CURVE SMOOTH"
);
},
{
closed = 1;
nodes = (
"665 771 OFFCURVE",
"687 789 OFFCURVE",
"692 810 CURVE",
"696 831 OFFCURVE",
"682 848 OFFCURVE",
"661 848 CURVE SMOOTH",
"640 848 OFFCURVE",
"618 831 OFFCURVE",
"614 810 CURVE",
"609 789 OFFCURVE",
"623 771 OFFCURVE",
"644 771 CURVE SMOOTH"
);
}
);
width = 837;
}
);
leftKerningGroup = O;
note = Odieresis;
rightKerningGroup = O;
unicode = 00D6;
},
{
glyphname = Odotbelow;
lastChange = "2015-10-28 04:34:49 +0000";
layers = (
{
layerId = "72ACC467-88F1-4B5B-B511-FE0603CECF6A";
name = "Light Italic";
paths = (
{
closed = 1;
nodes = (
"595 -15 OFFCURVE",
"769 131 OFFCURVE",
"816 349 CURVE SMOOTH",
"862 568 OFFCURVE",
"736 714 OFFCURVE",
"529 714 CURVE SMOOTH",
"308 714 OFFCURVE",
"135 568 OFFCURVE",
"89 349 CURVE SMOOTH",
"42 131 OFFCURVE",
"168 -15 OFFCURVE",
"374 -15 CURVE SMOOTH"
);
},
{
closed = 1;
nodes = (
"370 -137 OFFCURVE",
"391 -119 OFFCURVE",
"396 -98 CURVE",
"400 -77 OFFCURVE",
"386 -60 OFFCURVE",
"367 -60 CURVE SMOOTH",
"346 -60 OFFCURVE",
"324 -77 OFFCURVE",
"320 -98 CURVE",
"315 -119 OFFCURVE",
"329 -137 OFFCURVE",
"350 -137 CURVE SMOOTH"
);
},
{
closed = 1;
nodes = (
"201 32 OFFCURVE",
"99 153 OFFCURVE",
"141 349 CURVE SMOOTH",
"182 543 OFFCURVE",
"345 666 OFFCURVE",
"519 666 CURVE SMOOTH",
"706 666 OFFCURVE",
"805 543 OFFCURVE",
"764 349 CURVE SMOOTH",
"722 153 OFFCURVE",
"556 32 OFFCURVE",
"384 32 CURVE SMOOTH"
);
}
);
width = 837;
}
);
leftKerningGroup = O;
note = Odotbelow;
rightKerningGroup = O;
unicode = 1ECC;
},
{
glyphname = Ograve;
lastChange = "2015-10-28 04:34:45 +0000";
layers = (
{
layerId = "72ACC467-88F1-4B5B-B511-FE0603CECF6A";
name = "Light Italic";
paths = (
{
closed = 1;
nodes = (
"595 -15 OFFCURVE",
"769 131 OFFCURVE",
"816 349 CURVE SMOOTH",
"862 568 OFFCURVE",
"736 714 OFFCURVE",
"529 714 CURVE SMOOTH",
"308 714 OFFCURVE",
"135 568 OFFCURVE",
"89 349 CURVE SMOOTH",
"42 131 OFFCURVE",
"168 -15 OFFCURVE",
"374 -15 CURVE SMOOTH"
);
},
{
closed = 1;
nodes = (
"201 32 OFFCURVE",
"99 153 OFFCURVE",
"141 349 CURVE SMOOTH",
"182 543 OFFCURVE",
"345 666 OFFCURVE",
"519 666 CURVE SMOOTH",
"706 666 OFFCURVE",
"805 543 OFFCURVE",
"764 349 CURVE SMOOTH",
"722 153 OFFCURVE",
"556 32 OFFCURVE",
"384 32 CURVE SMOOTH"
);
},
{
closed = 1;
nodes = (
"579 766 LINE",
"546 935 LINE",
"491 935 LINE",
"534 766 LINE"
);
}
);
width = 837;
}
);
leftKerningGroup = O;
note = Ograve;
rightKerningGroup = O;
unicode = 00D2;
},
{
glyphname = Ohookabove;
lastChange = "2015-10-28 04:34:45 +0000";
layers = (
{
layerId = "72ACC467-88F1-4B5B-B511-FE0603CECF6A";
name = "Light Italic";
paths = (
{
closed = 1;
nodes = (
"595 -15 OFFCURVE",
"769 131 OFFCURVE",
"816 349 CURVE SMOOTH",
"862 568 OFFCURVE",
"736 714 OFFCURVE",
"529 714 CURVE SMOOTH",
"308 714 OFFCURVE",
"135 568 OFFCURVE",
"89 349 CURVE SMOOTH",
"42 131 OFFCURVE",
"168 -15 OFFCURVE",
"374 -15 CURVE SMOOTH"
);
},
{
closed = 1;
nodes = (
"201 32 OFFCURVE",
"99 153 OFFCURVE",
"141 349 CURVE SMOOTH",
"182 543 OFFCURVE",
"345 666 OFFCURVE",
"519 666 CURVE SMOOTH",
"706 666 OFFCURVE",
"805 543 OFFCURVE",
"764 349 CURVE SMOOTH",
"722 153 OFFCURVE",
"556 32 OFFCURVE",
"384 32 CURVE SMOOTH"
);
},
{
closed = 1;
nodes = (
"554 743 LINE",
"562 782 LINE",
"626 787 OFFCURVE",
"666 824 OFFCURVE",
"676 873 CURVE SMOOTH",
"687 925 OFFCURVE",
"658 962 OFFCURVE",
"583 962 CURVE SMOOTH",
"559 962 OFFCURVE",
"531 958 OFFCURVE",
"515 953 CURVE",
"508 918 LINE",
"521 924 OFFCURVE",
"550 927 OFFCURVE",
"568 927 CURVE SMOOTH",
"615 927 OFFCURVE",
"637 910 OFFCURVE",
"629 871 CURVE SMOOTH",
"620 828 OFFCURVE",
"591 808 OFFCURVE",
"523 808 CURVE",
"509 743 LINE"
);
}
);
width = 837;
}
);
leftKerningGroup = O;
note = Ohookabove;
rightKerningGroup = O;
unicode = 1ECE;
},
{
glyphname = Ohorn;
lastChange = "2015-10-28 04:34:48 +0000";
layers = (
{
layerId = "72ACC467-88F1-4B5B-B511-FE0603CECF6A";
name = "Light Italic";
paths = (
{
closed = 1;
nodes = (
"592 -15 OFFCURVE",
"769 131 OFFCURVE",
"816 349 CURVE SMOOTH",
"835 442 OFFCURVE",
"824 522 OFFCURVE",
"788 583 CURVE",
"853 597 OFFCURVE",
"908 649 OFFCURVE",
"921 708 CURVE SMOOTH",
"929 747 LINE",
"881 747 LINE",
"873 710 LINE SMOOTH",
"862 660 OFFCURVE",
"819 623 OFFCURVE",
"761 621 CURVE",
"709 680 OFFCURVE",
"628 714 OFFCURVE",
"529 714 CURVE SMOOTH",
"315 714 OFFCURVE",
"135 568 OFFCURVE",
"89 349 CURVE SMOOTH",
"42 131 OFFCURVE",
"168 -15 OFFCURVE",
"374 -15 CURVE SMOOTH"
);
},
{
closed = 1;
nodes = (
"202 32 OFFCURVE",
"99 153 OFFCURVE",
"141 349 CURVE SMOOTH",
"182 543 OFFCURVE",
"345 665 OFFCURVE",
"519 666 CURVE SMOOTH",
"704 667 OFFCURVE",
"805 543 OFFCURVE",
"764 349 CURVE SMOOTH",
"722 153 OFFCURVE",
"556 32 OFFCURVE",
"384 32 CURVE SMOOTH"
);
}
);
width = 836;
}
);
leftKerningGroup = O;
note = Ohorn;
rightKerningGroup = O;
unicode = 01A0;
},
{
glyphname = Ohornacute;
lastChange = "2015-10-28 04:34:48 +0000";
layers = (
{
layerId = "72ACC467-88F1-4B5B-B511-FE0603CECF6A";
name = "Light Italic";
paths = (
{
closed = 1;
nodes = (
"592 -15 OFFCURVE",
"769 131 OFFCURVE",
"816 349 CURVE SMOOTH",
"835 442 OFFCURVE",
"824 522 OFFCURVE",
"788 583 CURVE",
"853 597 OFFCURVE",
"908 649 OFFCURVE",
"921 708 CURVE SMOOTH",
"929 747 LINE",
"881 747 LINE",
"873 710 LINE SMOOTH",
"862 660 OFFCURVE",
"819 623 OFFCURVE",
"761 621 CURVE",
"709 680 OFFCURVE",
"628 714 OFFCURVE",
"529 714 CURVE SMOOTH",
"315 714 OFFCURVE",
"135 568 OFFCURVE",
"89 349 CURVE SMOOTH",
"42 131 OFFCURVE",
"168 -15 OFFCURVE",
"374 -15 CURVE SMOOTH"
);
},
{
closed = 1;
nodes = (
"202 32 OFFCURVE",
"99 153 OFFCURVE",
"141 349 CURVE SMOOTH",
"182 543 OFFCURVE",
"345 665 OFFCURVE",
"519 666 CURVE SMOOTH",
"704 667 OFFCURVE",
"805 543 OFFCURVE",
"764 349 CURVE SMOOTH",
"722 153 OFFCURVE",
"556 32 OFFCURVE",
"384 32 CURVE SMOOTH"
);
},
{
closed = 1;
nodes = (
"568 754 LINE",
"682 923 LINE",
"628 923 LINE",
"522 754 LINE"
);
}
);
width = 843;
}
);
leftKerningGroup = O;
note = Ohornacute;
rightKerningGroup = O;
unicode = 1EDA;
},
{
glyphname = Ohorndotbelow;
lastChange = "2015-10-28 04:34:49 +0000";
layers = (
{
layerId = "72ACC467-88F1-4B5B-B511-FE0603CECF6A";
name = "Light Italic";
paths = (
{
closed = 1;
nodes = (
"592 -15 OFFCURVE",
"769 131 OFFCURVE",
"816 349 CURVE SMOOTH",
"835 442 OFFCURVE",
"824 522 OFFCURVE",
"788 583 CURVE",
"853 597 OFFCURVE",
"908 649 OFFCURVE",
"921 708 CURVE SMOOTH",
"929 747 LINE",
"881 747 LINE",
"873 710 LINE SMOOTH",
"862 660 OFFCURVE",
"819 623 OFFCURVE",
"761 621 CURVE",
"709 680 OFFCURVE",
"628 714 OFFCURVE",
"529 714 CURVE SMOOTH",
"315 714 OFFCURVE",
"135 568 OFFCURVE",
"89 349 CURVE SMOOTH",
"42 131 OFFCURVE",
"168 -15 OFFCURVE",
"374 -15 CURVE SMOOTH"
);
},
{
closed = 1;
nodes = (
"374 -137 OFFCURVE",
"395 -119 OFFCURVE",
"400 -98 CURVE",
"404 -77 OFFCURVE",
"390 -60 OFFCURVE",
"371 -60 CURVE SMOOTH",
"350 -60 OFFCURVE",
"328 -77 OFFCURVE",
"324 -98 CURVE",
"319 -119 OFFCURVE",
"333 -137 OFFCURVE",
"354 -137 CURVE SMOOTH"
);
},
{
closed = 1;
nodes = (
"202 32 OFFCURVE",
"99 153 OFFCURVE",
"141 349 CURVE SMOOTH",
"182 543 OFFCURVE",
"345 665 OFFCURVE",
"519 666 CURVE SMOOTH",
"704 667 OFFCURVE",
"805 543 OFFCURVE",
"764 349 CURVE SMOOTH",
"722 153 OFFCURVE",
"556 32 OFFCURVE",
"384 32 CURVE SMOOTH"
);
}
);
width = 843;
}
);
leftKerningGroup = O;
note = Ohorndotbelow;
rightKerningGroup = O;
unicode = 1EE2;
},
{
glyphname = Ohorngrave;
lastChange = "2015-10-28 04:34:50 +0000";
layers = (
{
layerId = "72ACC467-88F1-4B5B-B511-FE0603CECF6A";
name = "Light Italic";
paths = (
{
closed = 1;
nodes = (
"592 -15 OFFCURVE",
"769 131 OFFCURVE",
"816 349 CURVE SMOOTH",
"835 442 OFFCURVE",
"824 522 OFFCURVE",
"788 583 CURVE",
"853 597 OFFCURVE",
"908 649 OFFCURVE",
"921 708 CURVE SMOOTH",
"929 747 LINE",
"881 747 LINE",
"873 710 LINE SMOOTH",
"862 660 OFFCURVE",
"819 623 OFFCURVE",
"761 621 CURVE",
"709 680 OFFCURVE",
"628 714 OFFCURVE",
"529 714 CURVE SMOOTH",
"315 714 OFFCURVE",
"135 568 OFFCURVE",
"89 349 CURVE SMOOTH",
"42 131 OFFCURVE",
"168 -15 OFFCURVE",
"374 -15 CURVE SMOOTH"
);
},
{
closed = 1;
nodes = (
"202 32 OFFCURVE",
"99 153 OFFCURVE",
"141 349 CURVE SMOOTH",
"182 543 OFFCURVE",
"345 665 OFFCURVE",
"519 666 CURVE SMOOTH",
"704 667 OFFCURVE",
"805 543 OFFCURVE",
"764 349 CURVE SMOOTH",
"722 153 OFFCURVE",
"556 32 OFFCURVE",
"384 32 CURVE SMOOTH"
);
},
{
closed = 1;
nodes = (
"570 754 LINE",
"537 923 LINE",
"482 923 LINE",
"525 754 LINE"
);
}
);
width = 843;
}
);
leftKerningGroup = O;
note = Ohorngrave;
rightKerningGroup = O;
unicode = 1EDC;
},
{
glyphname = Ohornhookabove;
lastChange = "2015-10-28 04:34:46 +0000";
layers = (
{
layerId = "72ACC467-88F1-4B5B-B511-FE0603CECF6A";
name = "Light Italic";
paths = (
{
closed = 1;
nodes = (
"592 -15 OFFCURVE",
"769 131 OFFCURVE",
"816 349 CURVE SMOOTH",
"835 442 OFFCURVE",
"824 522 OFFCURVE",
"788 583 CURVE",
"853 597 OFFCURVE",
"908 649 OFFCURVE",
"921 708 CURVE SMOOTH",
"929 747 LINE",
"881 747 LINE",
"873 710 LINE SMOOTH",
"862 660 OFFCURVE",
"819 623 OFFCURVE",
"761 621 CURVE",
"709 680 OFFCURVE",
"628 714 OFFCURVE",
"529 714 CURVE SMOOTH",
"315 714 OFFCURVE",
"135 568 OFFCURVE",
"89 349 CURVE SMOOTH",
"42 131 OFFCURVE",
"168 -15 OFFCURVE",
"374 -15 CURVE SMOOTH"
);
},
{
closed = 1;
nodes = (
"202 32 OFFCURVE",
"99 153 OFFCURVE",
"141 349 CURVE SMOOTH",
"182 543 OFFCURVE",
"345 665 OFFCURVE",
"519 666 CURVE SMOOTH",
"704 667 OFFCURVE",
"805 543 OFFCURVE",
"764 349 CURVE SMOOTH",
"722 153 OFFCURVE",
"556 32 OFFCURVE",
"384 32 CURVE SMOOTH"
);
},
{
closed = 1;
nodes = (
"564 743 LINE",
"572 782 LINE",
"636 787 OFFCURVE",
"676 824 OFFCURVE",
"686 873 CURVE SMOOTH",
"697 925 OFFCURVE",
"668 962 OFFCURVE",
"593 962 CURVE SMOOTH",
"569 962 OFFCURVE",
"541 958 OFFCURVE",
"525 953 CURVE",
"518 918 LINE",
"531 924 OFFCURVE",
"560 927 OFFCURVE",
"578 927 CURVE SMOOTH",
"625 927 OFFCURVE",
"647 910 OFFCURVE",
"639 871 CURVE SMOOTH",
"630 828 OFFCURVE",
"601 808 OFFCURVE",
"533 808 CURVE",
"519 743 LINE"
);
}
);
width = 843;
}
);
leftKerningGroup = O;
note = Ohornhookabove;
rightKerningGroup = O;
unicode = 1EDE;
},
{
glyphname = Ohorntilde;
lastChange = "2015-10-28 04:34:46 +0000";
layers = (
{
layerId = "72ACC467-88F1-4B5B-B511-FE0603CECF6A";
name = "Light Italic";
paths = (
{
closed = 1;
nodes = (
"592 -15 OFFCURVE",
"769 131 OFFCURVE",
"816 349 CURVE SMOOTH",
"835 442 OFFCURVE",
"824 522 OFFCURVE",
"788 583 CURVE",
"853 597 OFFCURVE",
"908 649 OFFCURVE",
"921 708 CURVE SMOOTH",
"929 747 LINE",
"881 747 LINE",
"873 710 LINE SMOOTH",
"862 660 OFFCURVE",
"819 623 OFFCURVE",
"761 621 CURVE",
"709 680 OFFCURVE",
"628 714 OFFCURVE",
"529 714 CURVE SMOOTH",
"315 714 OFFCURVE",
"135 568 OFFCURVE",
"89 349 CURVE SMOOTH",
"42 131 OFFCURVE",
"168 -15 OFFCURVE",
"374 -15 CURVE SMOOTH"
);
},
{
closed = 1;
nodes = (
"202 32 OFFCURVE",
"99 153 OFFCURVE",
"141 349 CURVE SMOOTH",
"182 543 OFFCURVE",
"345 665 OFFCURVE",
"519 666 CURVE SMOOTH",
"704 667 OFFCURVE",
"805 543 OFFCURVE",
"764 349 CURVE SMOOTH",
"722 153 OFFCURVE",
"556 32 OFFCURVE",
"384 32 CURVE SMOOTH"
);
},
{
closed = 1;
nodes = (
"415 806 OFFCURVE",
"447 817 OFFCURVE",
"481 817 CURVE SMOOTH",
"545 817 OFFCURVE",
"574 767 OFFCURVE",
"647 767 CURVE SMOOTH",
"686 767 OFFCURVE",
"722 778 OFFCURVE",
"749 811 CURVE",
"760 862 LINE",
"725 820 OFFCURVE",
"691 809 OFFCURVE",
"656 809 CURVE SMOOTH",
"591 809 OFFCURVE",
"558 859 OFFCURVE",
"490 859 CURVE SMOOTH",
"452 859 OFFCURVE",
"415 847 OFFCURVE",
"388 815 CURVE",
"377 764 LINE"
);
}
);
width = 843;
}
);
leftKerningGroup = O;
note = Ohorntilde;
rightKerningGroup = O;
unicode = 1EE0;
},
{
glyphname = Ohungarumlaut;
lastChange = "2015-10-28 04:34:49 +0000";
layers = (
{
layerId = "72ACC467-88F1-4B5B-B511-FE0603CECF6A";
name = "Light Italic";
paths = (
{
closed = 1;
nodes = (
"595 -15 OFFCURVE",
"769 131 OFFCURVE",
"816 349 CURVE SMOOTH",
"862 568 OFFCURVE",
"736 714 OFFCURVE",
"529 714 CURVE SMOOTH",
"308 714 OFFCURVE",
"135 568 OFFCURVE",
"89 349 CURVE SMOOTH",
"42 131 OFFCURVE",
"168 -15 OFFCURVE",
"374 -15 CURVE SMOOTH"
);
},
{
closed = 1;
nodes = (
"201 32 OFFCURVE",
"99 153 OFFCURVE",
"141 349 CURVE SMOOTH",
"182 543 OFFCURVE",
"345 666 OFFCURVE",
"519 666 CURVE SMOOTH",
"706 666 OFFCURVE",
"805 543 OFFCURVE",
"764 349 CURVE SMOOTH",
"722 153 OFFCURVE",
"556 32 OFFCURVE",
"384 32 CURVE SMOOTH"
);
},
{
closed = 1;
nodes = (
"456 760 LINE",
"570 929 LINE",
"516 929 LINE",
"411 760 LINE"
);
},
{
closed = 1;
nodes = (
"634 760 LINE",
"749 929 LINE",
"694 929 LINE",
"589 760 LINE"
);
}
);
width = 837;
}
);
leftKerningGroup = O;
note = Ohungarumlaut;
rightKerningGroup = O;
unicode = 0150;
},
{
glyphname = Omacron;
lastChange = "2015-10-28 04:34:46 +0000";
layers = (
{
layerId = "72ACC467-88F1-4B5B-B511-FE0603CECF6A";
name = "Light Italic";
paths = (
{
closed = 1;
nodes = (
"595 -15 OFFCURVE",
"769 131 OFFCURVE",
"816 349 CURVE SMOOTH",
"862 568 OFFCURVE",
"736 714 OFFCURVE",
"529 714 CURVE SMOOTH",
"308 714 OFFCURVE",
"135 568 OFFCURVE",
"89 349 CURVE SMOOTH",
"42 131 OFFCURVE",
"168 -15 OFFCURVE",
"374 -15 CURVE SMOOTH"
);
},
{
closed = 1;
nodes = (
"201 32 OFFCURVE",
"99 153 OFFCURVE",
"141 349 CURVE SMOOTH",
"182 543 OFFCURVE",
"345 666 OFFCURVE",
"519 666 CURVE SMOOTH",
"706 666 OFFCURVE",
"805 543 OFFCURVE",
"764 349 CURVE SMOOTH",
"722 153 OFFCURVE",
"556 32 OFFCURVE",
"384 32 CURVE SMOOTH"
);
},
{
closed = 1;
nodes = (
"680 787 LINE",
"688 826 LINE",
"399 826 LINE",
"392 787 LINE"
);
}
);
width = 837;
}
);
leftKerningGroup = O;
note = Omacron;
rightKerningGroup = O;
unicode = 014C;
},
{
glyphname = Oslash;
lastChange = "2015-10-28 04:34:47 +0000";
layers = (
{
layerId = "72ACC467-88F1-4B5B-B511-FE0603CECF6A";
name = "Light Italic";
paths = (
{
closed = 1;
nodes = (
"216 -86 LINE",
"268 0 LINE",
"300 -10 OFFCURVE",
"336 -15 OFFCURVE",
"374 -15 CURVE SMOOTH",
"592 -15 OFFCURVE",
"769 131 OFFCURVE",
"816 349 CURVE SMOOTH",
"848 504 OFFCURVE",
"794 623 OFFCURVE",
"686 679 CURVE",
"751 784 LINE",
"699 784 LINE",
"645 696 LINE",
"610 708 OFFCURVE",
"571 714 OFFCURVE",
"529 714 CURVE SMOOTH",
"314 714 OFFCURVE",
"135 568 OFFCURVE",
"89 349 CURVE SMOOTH",
"54 190 OFFCURVE",
"112 69 OFFCURVE",
"226 15 CURVE",
"164 -86 LINE"
);
},
{
closed = 1;
nodes = (
"154 103 OFFCURVE",
"110 206 OFFCURVE",
"141 349 CURVE SMOOTH",
"182 543 OFFCURVE",
"345 666 OFFCURVE",
"519 666 CURVE SMOOTH",
"555 666 OFFCURVE",
"588 661 OFFCURVE",
"618 652 CURVE",
"252 58 LINE"
);
},
{
closed = 1;
nodes = (
"351 32 OFFCURVE",
"322 36 OFFCURVE",
"295 43 CURVE",
"660 636 LINE",
"753 588 OFFCURVE",
"793 486 OFFCURVE",
"764 349 CURVE SMOOTH",
"722 153 OFFCURVE",
"556 32 OFFCURVE",
"384 32 CURVE SMOOTH"
);
}
);
width = 837;
}
);
leftKerningGroup = O;
note = Oslash;
rightKerningGroup = O;
unicode = 00D8;
},
{
glyphname = Oslashacute;
lastChange = "2015-10-28 04:34:49 +0000";
layers = (
{
layerId = "72ACC467-88F1-4B5B-B511-FE0603CECF6A";
name = "Light Italic";
paths = (
{
closed = 1;
nodes = (
"216 -86 LINE",
"268 0 LINE",
"300 -10 OFFCURVE",
"336 -15 OFFCURVE",
"374 -15 CURVE SMOOTH",
"591 -15 OFFCURVE",
"769 131 OFFCURVE",
"816 349 CURVE SMOOTH",
"848 504 OFFCURVE",
"794 623 OFFCURVE",
"686 679 CURVE",
"751 784 LINE",
"699 784 LINE",
"645 696 LINE",
"610 708 OFFCURVE",
"571 714 OFFCURVE",
"529 714 CURVE SMOOTH",
"313 714 OFFCURVE",
"135 568 OFFCURVE",
"89 349 CURVE SMOOTH",
"54 190 OFFCURVE",
"112 69 OFFCURVE",
"226 15 CURVE",
"164 -86 LINE"
);
},
{
closed = 1;
nodes = (
"155 103 OFFCURVE",
"110 206 OFFCURVE",
"141 349 CURVE SMOOTH",
"182 543 OFFCURVE",
"345 666 OFFCURVE",
"519 666 CURVE SMOOTH",
"555 666 OFFCURVE",
"588 661 OFFCURVE",
"617 651 CURVE",
"252 58 LINE"
);
},
{
closed = 1;
nodes = (
"351 32 OFFCURVE",
"322 36 OFFCURVE",
"295 43 CURVE",
"659 634 LINE",
"750 586 OFFCURVE",
"793 485 OFFCURVE",
"764 349 CURVE SMOOTH",
"722 153 OFFCURVE",
"556 32 OFFCURVE",
"384 32 CURVE SMOOTH"
);
},
{
closed = 1;
nodes = (
"567 761 LINE",
"682 930 LINE",
"627 930 LINE",
"522 761 LINE"
);
}
);
width = 837;
}
);
leftKerningGroup = O;
note = Oslashacute;
rightKerningGroup = O;
unicode = 01FE;
},
{
glyphname = Otilde;
lastChange = "2015-10-28 04:34:49 +0000";
layers = (
{
layerId = "72ACC467-88F1-4B5B-B511-FE0603CECF6A";
name = "Light Italic";
paths = (
{
closed = 1;
nodes = (
"595 -15 OFFCURVE",
"769 131 OFFCURVE",
"816 349 CURVE SMOOTH",
"862 568 OFFCURVE",
"736 714 OFFCURVE",
"529 714 CURVE SMOOTH",
"308 714 OFFCURVE",
"135 568 OFFCURVE",
"89 349 CURVE SMOOTH",
"42 131 OFFCURVE",
"168 -15 OFFCURVE",
"374 -15 CURVE SMOOTH"
);
},
{
closed = 1;
nodes = (
"201 32 OFFCURVE",
"99 153 OFFCURVE",
"141 349 CURVE SMOOTH",
"182 543 OFFCURVE",
"345 666 OFFCURVE",
"519 666 CURVE SMOOTH",
"706 666 OFFCURVE",
"805 543 OFFCURVE",
"764 349 CURVE SMOOTH",
"722 153 OFFCURVE",
"556 32 OFFCURVE",
"384 32 CURVE SMOOTH"
);
},
{
closed = 1;
nodes = (
"400 818 OFFCURVE",
"432 829 OFFCURVE",
"466 829 CURVE SMOOTH",
"530 829 OFFCURVE",
"559 779 OFFCURVE",
"632 779 CURVE SMOOTH",
"671 779 OFFCURVE",
"707 790 OFFCURVE",
"734 823 CURVE",
"745 874 LINE",
"710 832 OFFCURVE",
"676 821 OFFCURVE",
"641 821 CURVE SMOOTH",
"576 821 OFFCURVE",
"543 871 OFFCURVE",
"475 871 CURVE SMOOTH",
"437 871 OFFCURVE",
"400 859 OFFCURVE",
"373 827 CURVE",
"362 776 LINE"
);
}
);
width = 837;
}
);
leftKerningGroup = O;
note = Otilde;
rightKerningGroup = O;
unicode = 00D5;
},
{
glyphname = OE;
lastChange = "2015-10-28 04:34:47 +0000";
layers = (
{
layerId = "72ACC467-88F1-4B5B-B511-FE0603CECF6A";
name = "Light Italic";
paths = (
{
closed = 1;
nodes = (
"792 0 LINE",
"801 45 LINE",
"472 45 LINE",
"532 327 LINE",
"767 327 LINE",
"777 372 LINE",
"542 372 LINE",
"602 654 LINE",
"931 654 LINE",
"940 699 LINE",
"529 699 LINE SMOOTH",
"308 699 OFFCURVE",
"135 568 OFFCURVE",
"89 349 CURVE SMOOTH",
"42 131 OFFCURVE",
"180 0 OFFCURVE",
"381 0 CURVE SMOOTH"
);
},
{
closed = 1;
nodes = (
"208 45 OFFCURVE",
"99 153 OFFCURVE",
"141 349 CURVE SMOOTH",
"182 544 OFFCURVE",
"344 654 OFFCURVE",
"518 654 CURVE SMOOTH",
"549 654 LINE",
"419 45 LINE",
"388 45 LINE SMOOTH"
);
}
);
width = 887;
}
);
leftKerningGroup = O;
note = OE;
rightKerningGroup = E;
unicode = 0152;
},
{
glyphname = P;
lastChange = "2015-10-28 04:34:48 +0000";
layers = (
{
layerId = "72ACC467-88F1-4B5B-B511-FE0603CECF6A";
name = "Light Italic";
paths = (
{
closed = 1;
nodes = (
"88 0 LINE",
"153 310 LINE",
"349 310 LINE SMOOTH",
"497 310 OFFCURVE",
"584 373 OFFCURVE",
"613 504 CURVE SMOOTH",
"643 639 OFFCURVE",
"569 699 OFFCURVE",
"432 699 CURVE SMOOTH",
"183 699 LINE",
"35 0 LINE"
);
},
{
closed = 1;
nodes = (
"227 654 LINE",
"421 654 LINE SMOOTH",
"528 654 OFFCURVE",
"587 626 OFFCURVE",
"561 504 CURVE SMOOTH",
"535 383 OFFCURVE",
"453 355 OFFCURVE",
"357 355 CURVE SMOOTH",
"163 355 LINE"
);
}
);
width = 581;
}
);
note = P;
unicode = 0050;
},
{
glyphname = Thorn;
lastChange = "2015-10-28 04:34:47 +0000";
layers = (
{
layerId = "72ACC467-88F1-4B5B-B511-FE0603CECF6A";
name = "Light Italic";
paths = (
{
closed = 1;
nodes = (
"88 0 LINE",
"121 158 LINE",
"319 158 LINE SMOOTH",
"459 158 OFFCURVE",
"551 214 OFFCURVE",
"580 350 CURVE SMOOTH",
"609 486 OFFCURVE",
"537 542 OFFCURVE",
"401 542 CURVE SMOOTH",
"203 542 LINE",
"236 699 LINE",
"183 699 LINE",
"35 0 LINE"
);
},
{
closed = 1;
nodes = (
"193 497 LINE",
"391 497 LINE SMOOTH",
"499 497 OFFCURVE",
"554 471 OFFCURVE",
"528 350 CURVE SMOOTH",
"502 229 OFFCURVE",
"421 203 OFFCURVE",
"325 203 CURVE SMOOTH",
"131 203 LINE"
);
}
);
width = 591;
}
);
note = Thorn;
unicode = 00DE;
},
{
glyphname = Q;
lastChange = "2015-10-28 04:34:46 +0000";
layers = (
{
layerId = "72ACC467-88F1-4B5B-B511-FE0603CECF6A";
name = "Light Italic";
paths = (
{
closed = 1;
nodes = (
"748 0 LINE",
"757 45 LINE",
"550 45 LINE",
"690 93 OFFCURVE",
"783 200 OFFCURVE",
"815 349 CURVE SMOOTH",
"861 568 OFFCURVE",
"735 714 OFFCURVE",
"529 714 CURVE SMOOTH",
"312 714 OFFCURVE",
"135 568 OFFCURVE",
"89 349 CURVE SMOOTH",
"44 137 OFFCURVE",
"170 0 OFFCURVE",
"390 0 CURVE SMOOTH"
);
},
{
closed = 1;
nodes = (
"206 48 OFFCURVE",
"99 154 OFFCURVE",
"141 349 CURVE SMOOTH",
"182 543 OFFCURVE",
"346 666 OFFCURVE",
"519 666 CURVE SMOOTH",
"701 666 OFFCURVE",
"804 543 OFFCURVE",
"763 349 CURVE SMOOTH",
"721 155 OFFCURVE",
"559 48 OFFCURVE",
"388 48 CURVE SMOOTH"
);
}
);
width = 833;
}
);
leftKerningGroup = O;
note = Q;
rightKerningGroup = O;
unicode = 0051;
},
{
glyphname = R;
lastChange = "2015-10-28 04:34:47 +0000";
layers = (
{
layerId = "72ACC467-88F1-4B5B-B511-FE0603CECF6A";
name = "Light Italic";
paths = (
{
closed = 1;
nodes = (
"88 0 LINE",
"155 318 LINE",
"338 318 LINE",
"450 0 LINE",
"505 0 LINE",
"393 319 LINE",
"517 330 OFFCURVE",
"592 408 OFFCURVE",
"613 507 CURVE SMOOTH",
"640 634 OFFCURVE",
"578 699 OFFCURVE",
"442 699 CURVE SMOOTH",
"183 699 LINE",
"35 0 LINE"
);
},
{
closed = 1;
nodes = (
"227 654 LINE",
"430 654 LINE SMOOTH",
"538 654 OFFCURVE",
"585 620 OFFCURVE",
"561 507 CURVE SMOOTH",
"541 412 OFFCURVE",
"467 363 OFFCURVE",
"367 363 CURVE SMOOTH",
"165 363 LINE"
);
}
);
width = 601;
}
);
note = R;
rightKerningGroup = R;
unicode = 0052;
},
{
glyphname = Racute;
lastChange = "2015-10-28 04:34:49 +0000";
layers = (
{
layerId = "72ACC467-88F1-4B5B-B511-FE0603CECF6A";
name = "Light Italic";
paths = (
{
closed = 1;
nodes = (
"88 0 LINE",
"155 318 LINE",
"338 318 LINE",
"450 0 LINE",
"505 0 LINE",
"393 319 LINE",
"517 330 OFFCURVE",
"592 408 OFFCURVE",
"613 507 CURVE SMOOTH",
"640 634 OFFCURVE",
"578 699 OFFCURVE",
"442 699 CURVE SMOOTH",
"183 699 LINE",
"35 0 LINE"
);
},
{
closed = 1;
nodes = (
"227 654 LINE",
"430 654 LINE SMOOTH",
"538 654 OFFCURVE",
"585 620 OFFCURVE",
"561 507 CURVE SMOOTH",
"541 412 OFFCURVE",
"467 363 OFFCURVE",
"367 363 CURVE SMOOTH",
"165 363 LINE"
);
},
{
closed = 1;
nodes = (
"400 760 LINE",
"514 929 LINE",
"460 929 LINE",
"354 760 LINE"
);
}
);
width = 601;
}
);
note = Racute;
rightKerningGroup = R;
unicode = 0154;
},
{
glyphname = Rcaron;
lastChange = "2015-10-28 04:34:49 +0000";
layers = (
{
layerId = "72ACC467-88F1-4B5B-B511-FE0603CECF6A";
name = "Light Italic";
paths = (
{
closed = 1;
nodes = (
"88 0 LINE",
"155 318 LINE",
"338 318 LINE",
"450 0 LINE",
"505 0 LINE",
"393 319 LINE",
"517 330 OFFCURVE",
"592 408 OFFCURVE",
"613 507 CURVE SMOOTH",
"640 634 OFFCURVE",
"578 699 OFFCURVE",
"442 699 CURVE SMOOTH",
"183 699 LINE",
"35 0 LINE"
);
},
{
closed = 1;
nodes = (
"227 654 LINE",
"430 654 LINE SMOOTH",
"538 654 OFFCURVE",
"585 620 OFFCURVE",
"561 507 CURVE SMOOTH",
"541 412 OFFCURVE",
"467 363 OFFCURVE",
"367 363 CURVE SMOOTH",
"165 363 LINE"
);
},
{
closed = 1;
nodes = (
"425 763 LINE",
"591 919 LINE",
"537 919 LINE",
"411 798 LINE",
"337 919 LINE",
"282 919 LINE",
"380 763 LINE"
);
}
);
width = 601;
}
);
note = Rcaron;
rightKerningGroup = R;
unicode = 0158;
},
{
glyphname = Rcommaaccent;
lastChange = "2015-10-28 04:34:46 +0000";
layers = (
{
layerId = "72ACC467-88F1-4B5B-B511-FE0603CECF6A";
name = "Light Italic";
paths = (
{
closed = 1;
nodes = (
"88 0 LINE",
"155 318 LINE",
"338 318 LINE",
"450 0 LINE",
"505 0 LINE",
"393 319 LINE",
"517 330 OFFCURVE",
"592 408 OFFCURVE",
"613 507 CURVE SMOOTH",
"640 634 OFFCURVE",
"578 699 OFFCURVE",
"442 699 CURVE SMOOTH",
"183 699 LINE",
"35 0 LINE"
);
},
{
closed = 1;
nodes = (
"130 -260 LINE",
"259 -67 LINE",
"203 -67 LINE",
"84 -260 LINE"
);
},
{
closed = 1;
nodes = (
"227 654 LINE",
"430 654 LINE SMOOTH",
"538 654 OFFCURVE",
"585 620 OFFCURVE",
"561 507 CURVE SMOOTH",
"541 412 OFFCURVE",
"467 363 OFFCURVE",
"367 363 CURVE SMOOTH",
"165 363 LINE"
);
}
);
width = 601;
}
);
note = Rcommaaccent;
rightKerningGroup = R;
unicode = 0156;
},
{
glyphname = Rdotbelow;
lastChange = "2015-10-28 04:34:47 +0000";
layers = (
{
layerId = "72ACC467-88F1-4B5B-B511-FE0603CECF6A";
name = "Light Italic";
paths = (
{
closed = 1;
nodes = (
"88 0 LINE",
"155 318 LINE",
"338 318 LINE",
"450 0 LINE",
"505 0 LINE",
"393 319 LINE",
"517 330 OFFCURVE",
"592 408 OFFCURVE",
"613 507 CURVE SMOOTH",
"640 634 OFFCURVE",
"578 699 OFFCURVE",
"442 699 CURVE SMOOTH",
"183 699 LINE",
"35 0 LINE"
);
},
{
closed = 1;
nodes = (
"243 -137 OFFCURVE",
"264 -119 OFFCURVE",
"269 -98 CURVE",
"273 -77 OFFCURVE",
"259 -60 OFFCURVE",
"240 -60 CURVE SMOOTH",
"219 -60 OFFCURVE",
"197 -77 OFFCURVE",
"193 -98 CURVE",
"188 -119 OFFCURVE",
"202 -137 OFFCURVE",
"223 -137 CURVE SMOOTH"
);
},
{
closed = 1;
nodes = (
"227 654 LINE",
"430 654 LINE SMOOTH",
"538 654 OFFCURVE",
"585 620 OFFCURVE",
"561 507 CURVE SMOOTH",
"541 412 OFFCURVE",
"467 363 OFFCURVE",
"367 363 CURVE SMOOTH",
"165 363 LINE"
);
}
);
width = 601;
}
);
note = Rdotbelow;
rightKerningGroup = R;
unicode = 1E5A;
},
{
glyphname = Rdotbelowmacron;
lastChange = "2015-10-28 04:34:48 +0000";
layers = (
{
layerId = "72ACC467-88F1-4B5B-B511-FE0603CECF6A";
name = "Light Italic";
paths = (
{
closed = 1;
nodes = (
"88 0 LINE",
"155 318 LINE",
"338 318 LINE",
"450 0 LINE",
"505 0 LINE",
"393 319 LINE",
"517 330 OFFCURVE",
"592 408 OFFCURVE",
"613 507 CURVE SMOOTH",
"640 634 OFFCURVE",
"578 699 OFFCURVE",
"442 699 CURVE SMOOTH",
"183 699 LINE",
"35 0 LINE"
);
},
{
closed = 1;
nodes = (
"220 -137 OFFCURVE",
"241 -119 OFFCURVE",
"246 -98 CURVE",
"250 -77 OFFCURVE",
"236 -60 OFFCURVE",
"217 -60 CURVE SMOOTH",
"196 -60 OFFCURVE",
"174 -77 OFFCURVE",
"170 -98 CURVE",
"165 -119 OFFCURVE",
"179 -137 OFFCURVE",
"200 -137 CURVE SMOOTH"
);
},
{
closed = 1;
nodes = (
"227 654 LINE",
"430 654 LINE SMOOTH",
"538 654 OFFCURVE",
"585 620 OFFCURVE",
"561 507 CURVE SMOOTH",
"541 412 OFFCURVE",
"467 363 OFFCURVE",
"367 363 CURVE SMOOTH",
"165 363 LINE"
);
},
{
closed = 1;
nodes = (
"544 799 LINE",
"552 838 LINE",
"263 838 LINE",
"256 799 LINE"
);
}
);
width = 601;
}
);
note = Rdotbelowmacron;
rightKerningGroup = R;
unicode = 1E5C;
},
{
glyphname = Rlinebelow;
lastChange = "2015-10-28 04:34:47 +0000";
layers = (
{
layerId = "72ACC467-88F1-4B5B-B511-FE0603CECF6A";
name = "Light Italic";
paths = (
{
closed = 1;
nodes = (
"88 0 LINE",
"155 318 LINE",
"338 318 LINE",
"450 0 LINE",
"505 0 LINE",
"393 319 LINE",
"517 330 OFFCURVE",
"592 408 OFFCURVE",
"613 507 CURVE SMOOTH",
"640 634 OFFCURVE",
"578 699 OFFCURVE",
"442 699 CURVE SMOOTH",
"183 699 LINE",
"35 0 LINE"
);
},
{
closed = 1;
nodes = (
"359 -121 LINE",
"367 -80 LINE",
"77 -80 LINE",
"69 -121 LINE"
);
},
{
closed = 1;
nodes = (
"227 654 LINE",
"430 654 LINE SMOOTH",
"538 654 OFFCURVE",
"585 620 OFFCURVE",
"561 507 CURVE SMOOTH",
"541 412 OFFCURVE",
"467 363 OFFCURVE",
"367 363 CURVE SMOOTH",
"165 363 LINE"
);
}
);
width = 601;
}
);
note = Rlinebelow;
rightKerningGroup = R;
unicode = 1E5E;
},
{
glyphname = S;
lastChange = "2015-10-28 04:34:48 +0000";
layers = (
{
layerId = "72ACC467-88F1-4B5B-B511-FE0603CECF6A";
name = "Light Italic";
paths = (
{
closed = 1;
nodes = (
"376 -15 OFFCURVE",
"463 49 OFFCURVE",
"488 164 CURVE SMOOTH",
"514 283 OFFCURVE",
"446 326 OFFCURVE",
"331 373 CURVE SMOOTH",
"210 423 OFFCURVE",
"173 462 OFFCURVE",
"189 540 CURVE SMOOTH",
"205 615 OFFCURVE",
"275 667 OFFCURVE",
"389 667 CURVE SMOOTH",
"455 667 OFFCURVE",
"507 655 OFFCURVE",
"558 632 CURVE",
"568 680 LINE",
"517 703 OFFCURVE",
"465 714 OFFCURVE",
"394 714 CURVE SMOOTH",
"254 714 OFFCURVE",
"160 645 OFFCURVE",
"137 540 CURVE SMOOTH",
"116 441 OFFCURVE",
"171 383 OFFCURVE",
"282 337 CURVE SMOOTH",
"412 283 OFFCURVE",
"456 257 OFFCURVE",
"436 164 CURVE SMOOTH",
"417 76 OFFCURVE",
"349 32 OFFCURVE",
"217 32 CURVE SMOOTH",
"149 32 OFFCURVE",
"85 43 OFFCURVE",
"29 69 CURVE",
"19 19 LINE",
"60 -2 OFFCURVE",
"134 -15 OFFCURVE",
"209 -15 CURVE SMOOTH"
);
}
);
width = 549;
}
);
leftKerningGroup = S;
note = S;
rightKerningGroup = S;
unicode = 0053;
},
{
glyphname = Sacute;
lastChange = "2015-10-28 04:34:47 +0000";
layers = (
{
layerId = "72ACC467-88F1-4B5B-B511-FE0603CECF6A";
name = "Light Italic";
paths = (
{
closed = 1;
nodes = (
"376 -15 OFFCURVE",
"463 49 OFFCURVE",
"488 164 CURVE SMOOTH",
"514 283 OFFCURVE",
"446 326 OFFCURVE",
"331 373 CURVE SMOOTH",
"210 423 OFFCURVE",
"173 462 OFFCURVE",
"189 540 CURVE SMOOTH",
"205 615 OFFCURVE",
"275 667 OFFCURVE",
"389 667 CURVE SMOOTH",
"455 667 OFFCURVE",
"507 655 OFFCURVE",
"558 632 CURVE",
"568 680 LINE",
"517 703 OFFCURVE",
"465 714 OFFCURVE",
"394 714 CURVE SMOOTH",
"254 714 OFFCURVE",
"160 645 OFFCURVE",
"137 540 CURVE SMOOTH",
"116 441 OFFCURVE",
"171 383 OFFCURVE",
"282 337 CURVE SMOOTH",
"412 283 OFFCURVE",
"456 257 OFFCURVE",
"436 164 CURVE SMOOTH",
"417 76 OFFCURVE",
"349 32 OFFCURVE",
"217 32 CURVE SMOOTH",
"149 32 OFFCURVE",
"85 43 OFFCURVE",
"29 69 CURVE",
"19 19 LINE",
"60 -2 OFFCURVE",
"134 -15 OFFCURVE",
"209 -15 CURVE SMOOTH"
);
},
{
closed = 1;
nodes = (
"420 760 LINE",
"534 929 LINE",
"480 929 LINE",
"374 760 LINE"
);
}
);
width = 549;
}
);
leftKerningGroup = S;
note = Sacute;
rightKerningGroup = S;
unicode = 015A;
},
{
glyphname = Scaron;
lastChange = "2015-10-28 04:34:47 +0000";
layers = (
{
layerId = "72ACC467-88F1-4B5B-B511-FE0603CECF6A";
name = "Light Italic";
paths = (
{
closed = 1;
nodes = (
"376 -15 OFFCURVE",
"463 49 OFFCURVE",
"488 164 CURVE SMOOTH",
"514 283 OFFCURVE",
"446 326 OFFCURVE",
"331 373 CURVE SMOOTH",
"210 423 OFFCURVE",
"173 462 OFFCURVE",
"189 540 CURVE SMOOTH",
"205 615 OFFCURVE",
"275 667 OFFCURVE",
"389 667 CURVE SMOOTH",
"455 667 OFFCURVE",
"507 655 OFFCURVE",
"558 632 CURVE",
"568 680 LINE",
"517 703 OFFCURVE",
"465 714 OFFCURVE",
"394 714 CURVE SMOOTH",
"254 714 OFFCURVE",
"160 645 OFFCURVE",
"137 540 CURVE SMOOTH",
"116 441 OFFCURVE",
"171 383 OFFCURVE",
"282 337 CURVE SMOOTH",
"412 283 OFFCURVE",
"456 257 OFFCURVE",
"436 164 CURVE SMOOTH",
"417 76 OFFCURVE",
"349 32 OFFCURVE",
"217 32 CURVE SMOOTH",
"149 32 OFFCURVE",
"85 43 OFFCURVE",
"29 69 CURVE",
"19 19 LINE",
"60 -2 OFFCURVE",
"134 -15 OFFCURVE",
"209 -15 CURVE SMOOTH"
);
},
{
closed = 1;
nodes = (
"444 769 LINE",
"610 925 LINE",
"556 925 LINE",
"430 804 LINE",
"356 925 LINE",
"301 925 LINE",
"399 769 LINE"
);
}
);
width = 549;
}
);
leftKerningGroup = S;
note = Scaron;
rightKerningGroup = S;
unicode = 0160;
},
{
glyphname = Scedilla;
lastChange = "2015-10-28 04:34:49 +0000";
layers = (
{
layerId = "72ACC467-88F1-4B5B-B511-FE0603CECF6A";
name = "Light Italic";
paths = (
{
closed = 1;
nodes = (
"235 -248 OFFCURVE",
"283 -209 OFFCURVE",
"294 -157 CURVE SMOOTH",
"305 -107 OFFCURVE",
"283 -73 OFFCURVE",
"219 -67 CURVE",
"252 -13 LINE",
"391 -3 OFFCURVE",
"465 59 OFFCURVE",
"488 164 CURVE SMOOTH",
"514 283 OFFCURVE",
"446 326 OFFCURVE",
"331 373 CURVE SMOOTH",
"210 423 OFFCURVE",
"173 462 OFFCURVE",
"189 540 CURVE SMOOTH",
"205 615 OFFCURVE",
"275 667 OFFCURVE",
"389 667 CURVE SMOOTH",
"455 667 OFFCURVE",
"507 655 OFFCURVE",
"558 632 CURVE",
"568 680 LINE",
"517 703 OFFCURVE",
"465 714 OFFCURVE",
"394 714 CURVE SMOOTH",
"254 714 OFFCURVE",
"160 645 OFFCURVE",
"137 540 CURVE SMOOTH",
"116 441 OFFCURVE",
"171 383 OFFCURVE",
"282 337 CURVE SMOOTH",
"412 283 OFFCURVE",
"456 257 OFFCURVE",
"436 164 CURVE SMOOTH",
"417 76 OFFCURVE",
"349 32 OFFCURVE",
"217 32 CURVE SMOOTH",
"149 32 OFFCURVE",
"85 43 OFFCURVE",
"29 69 CURVE",
"19 19 LINE",
"58 -1 OFFCURVE",
"129 -14 OFFCURVE",
"201 -15 CURVE",
"156 -93 LINE",
"234 -93 OFFCURVE",
"254 -115 OFFCURVE",
"245 -156 CURVE SMOOTH",
"237 -196 OFFCURVE",
"207 -212 OFFCURVE",
"162 -212 CURVE SMOOTH",
"143 -212 OFFCURVE",
"119 -209 OFFCURVE",
"108 -203 CURVE",
"101 -239 LINE",
"113 -244 OFFCURVE",
"139 -248 OFFCURVE",
"163 -248 CURVE SMOOTH"
);
}
);
width = 549;
}
);
leftKerningGroup = S;
note = Scedilla;
rightKerningGroup = S;
unicode = 015E;
},
{
glyphname = Scircumflex;
lastChange = "2015-10-28 04:34:49 +0000";
layers = (
{
layerId = "72ACC467-88F1-4B5B-B511-FE0603CECF6A";
name = "Light Italic";
paths = (
{
closed = 1;
nodes = (
"376 -15 OFFCURVE",
"463 49 OFFCURVE",
"488 164 CURVE SMOOTH",
"514 283 OFFCURVE",
"446 326 OFFCURVE",
"331 373 CURVE SMOOTH",
"210 423 OFFCURVE",
"173 462 OFFCURVE",
"189 540 CURVE SMOOTH",
"205 615 OFFCURVE",
"275 667 OFFCURVE",
"389 667 CURVE SMOOTH",
"455 667 OFFCURVE",
"507 655 OFFCURVE",
"558 632 CURVE",
"568 680 LINE",
"517 703 OFFCURVE",
"465 714 OFFCURVE",
"394 714 CURVE SMOOTH",
"254 714 OFFCURVE",
"160 645 OFFCURVE",
"137 540 CURVE SMOOTH",
"116 441 OFFCURVE",
"171 383 OFFCURVE",
"282 337 CURVE SMOOTH",
"412 283 OFFCURVE",
"456 257 OFFCURVE",
"436 164 CURVE SMOOTH",
"417 76 OFFCURVE",
"349 32 OFFCURVE",
"217 32 CURVE SMOOTH",
"149 32 OFFCURVE",
"85 43 OFFCURVE",
"29 69 CURVE",
"19 19 LINE",
"60 -2 OFFCURVE",
"134 -15 OFFCURVE",
"209 -15 CURVE SMOOTH"
);
},
{
closed = 1;
nodes = (
"305 764 LINE",
"430 885 LINE",
"505 764 LINE",
"559 764 LINE",
"460 920 LINE",
"415 920 LINE",
"251 764 LINE"
);
}
);
width = 549;
}
);
leftKerningGroup = S;
note = Scircumflex;
rightKerningGroup = S;
unicode = 015C;
},
{
glyphname = Scommaaccent;
lastChange = "2015-10-28 04:34:48 +0000";
layers = (
{
layerId = "72ACC467-88F1-4B5B-B511-FE0603CECF6A";
name = "Light Italic";
paths = (
{
closed = 1;
nodes = (
"376 -15 OFFCURVE",
"463 49 OFFCURVE",
"488 164 CURVE SMOOTH",
"514 283 OFFCURVE",
"446 326 OFFCURVE",
"331 373 CURVE SMOOTH",
"210 423 OFFCURVE",
"173 462 OFFCURVE",
"189 540 CURVE SMOOTH",
"205 615 OFFCURVE",
"275 667 OFFCURVE",
"389 667 CURVE SMOOTH",
"455 667 OFFCURVE",
"507 655 OFFCURVE",
"558 632 CURVE",
"568 680 LINE",
"517 703 OFFCURVE",
"465 714 OFFCURVE",
"394 714 CURVE SMOOTH",
"254 714 OFFCURVE",
"160 645 OFFCURVE",
"137 540 CURVE SMOOTH",
"116 441 OFFCURVE",
"171 383 OFFCURVE",
"282 337 CURVE SMOOTH",
"412 283 OFFCURVE",
"456 257 OFFCURVE",
"436 164 CURVE SMOOTH",
"417 76 OFFCURVE",
"349 32 OFFCURVE",
"217 32 CURVE SMOOTH",
"149 32 OFFCURVE",
"85 43 OFFCURVE",
"29 69 CURVE",
"19 19 LINE",
"60 -2 OFFCURVE",
"134 -15 OFFCURVE",
"209 -15 CURVE SMOOTH"
);
},
{
closed = 1;
nodes = (
"130 -259 LINE",
"259 -67 LINE",
"203 -67 LINE",
"83 -259 LINE"
);
}
);
width = 549;
}
);
leftKerningGroup = S;
note = Scommaaccent;
rightKerningGroup = S;
unicode = 0218;
},
{
glyphname = Sdotaccent;
lastChange = "2015-10-28 04:34:48 +0000";
layers = (
{
layerId = "72ACC467-88F1-4B5B-B511-FE0603CECF6A";
name = "Light Italic";
paths = (
{
closed = 1;
nodes = (
"376 -15 OFFCURVE",
"463 49 OFFCURVE",
"488 164 CURVE SMOOTH",
"514 283 OFFCURVE",
"446 326 OFFCURVE",
"331 373 CURVE SMOOTH",
"210 423 OFFCURVE",
"173 462 OFFCURVE",
"189 540 CURVE SMOOTH",
"205 615 OFFCURVE",
"275 667 OFFCURVE",
"389 667 CURVE SMOOTH",
"455 667 OFFCURVE",
"507 655 OFFCURVE",
"558 632 CURVE",
"568 680 LINE",
"517 703 OFFCURVE",
"465 714 OFFCURVE",
"394 714 CURVE SMOOTH",
"254 714 OFFCURVE",
"160 645 OFFCURVE",
"137 540 CURVE SMOOTH",
"116 441 OFFCURVE",
"171 383 OFFCURVE",
"282 337 CURVE SMOOTH",
"412 283 OFFCURVE",
"456 257 OFFCURVE",
"436 164 CURVE SMOOTH",
"417 76 OFFCURVE",
"349 32 OFFCURVE",
"217 32 CURVE SMOOTH",
"149 32 OFFCURVE",
"85 43 OFFCURVE",
"29 69 CURVE",
"19 19 LINE",
"60 -2 OFFCURVE",
"134 -15 OFFCURVE",
"209 -15 CURVE SMOOTH"
);
},
{
closed = 1;
nodes = (
"434 765 OFFCURVE",
"456 783 OFFCURVE",
"461 804 CURVE",
"465 825 OFFCURVE",
"451 842 OFFCURVE",
"431 842 CURVE SMOOTH",
"410 842 OFFCURVE",
"388 825 OFFCURVE",
"384 804 CURVE",
"379 783 OFFCURVE",
"393 765 OFFCURVE",
"414 765 CURVE SMOOTH"
);
}
);
width = 549;
}
);
leftKerningGroup = S;
note = Sdotaccent;
rightKerningGroup = S;
unicode = 1E60;
},
{
glyphname = Sdotbelow;
lastChange = "2015-10-28 04:34:46 +0000";
layers = (
{
layerId = "72ACC467-88F1-4B5B-B511-FE0603CECF6A";
name = "Light Italic";
paths = (
{
closed = 1;
nodes = (
"376 -15 OFFCURVE",
"463 49 OFFCURVE",
"488 164 CURVE SMOOTH",
"514 283 OFFCURVE",
"446 326 OFFCURVE",
"331 373 CURVE SMOOTH",
"210 423 OFFCURVE",
"173 462 OFFCURVE",
"189 540 CURVE SMOOTH",
"205 615 OFFCURVE",
"275 667 OFFCURVE",
"389 667 CURVE SMOOTH",
"455 667 OFFCURVE",
"507 655 OFFCURVE",
"558 632 CURVE",
"568 680 LINE",
"517 703 OFFCURVE",
"465 714 OFFCURVE",
"394 714 CURVE SMOOTH",
"254 714 OFFCURVE",
"160 645 OFFCURVE",
"137 540 CURVE SMOOTH",
"116 441 OFFCURVE",
"171 383 OFFCURVE",
"282 337 CURVE SMOOTH",
"412 283 OFFCURVE",
"456 257 OFFCURVE",
"436 164 CURVE SMOOTH",
"417 76 OFFCURVE",
"349 32 OFFCURVE",
"217 32 CURVE SMOOTH",
"149 32 OFFCURVE",
"85 43 OFFCURVE",
"29 69 CURVE",
"19 19 LINE",
"60 -2 OFFCURVE",
"134 -15 OFFCURVE",
"209 -15 CURVE SMOOTH"
);
},
{
closed = 1;
nodes = (
"222 -137 OFFCURVE",
"243 -119 OFFCURVE",
"248 -98 CURVE",
"252 -77 OFFCURVE",
"238 -60 OFFCURVE",
"219 -60 CURVE SMOOTH",
"198 -60 OFFCURVE",
"176 -77 OFFCURVE",
"172 -98 CURVE",
"167 -119 OFFCURVE",
"181 -137 OFFCURVE",
"202 -137 CURVE SMOOTH"
);
}
);
width = 549;
}
);
leftKerningGroup = S;
note = Sdotbelow;
rightKerningGroup = S;
unicode = 1E62;
},
{
glyphname = Germandbls;
lastChange = "2015-10-28 04:34:48 +0000";
layers = (
{
layerId = "72ACC467-88F1-4B5B-B511-FE0603CECF6A";
name = "Light Italic";
paths = (
{
closed = 1;
nodes = (
"434 -15 OFFCURVE",
"522 75 OFFCURVE",
"548 194 CURVE SMOOTH",
"574 317 OFFCURVE",
"512 383 OFFCURVE",
"371 388 CURVE",
"550 530 LINE",
"569 629 OFFCURVE",
"521 714 OFFCURVE",
"388 714 CURVE SMOOTH",
"270 714 OFFCURVE",
"168 653 OFFCURVE",
"134 491 CURVE SMOOTH",
"30 0 LINE",
"83 0 LINE",
"188 494 LINE SMOOTH",
"216 626 OFFCURVE",
"298 667 OFFCURVE",
"378 667 CURVE SMOOTH",
"462 667 OFFCURVE",
"511 617 OFFCURVE",
"497 539 CURVE",
"308 387 LINE",
"300 349 LINE",
"337 349 LINE SMOOTH",
"438 349 OFFCURVE",
"521 315 OFFCURVE",
"496 194 CURVE SMOOTH",
"473 88 OFFCURVE",
"402 31 OFFCURVE",
"292 31 CURVE SMOOTH",
"238 31 OFFCURVE",
"203 36 OFFCURVE",
"167 53 CURVE",
"157 5 LINE",
"188 -10 OFFCURVE",
"236 -15 OFFCURVE",
"289 -15 CURVE SMOOTH"
);
}
);
width = 602;
}
);
note = uni1E9E;
unicode = 1E9E;
},
{
glyphname = Schwa;
lastChange = "2015-10-28 04:34:48 +0000";
layers = (
{
layerId = "72ACC467-88F1-4B5B-B511-FE0603CECF6A";
name = "Light Italic";
paths = (
{
closed = 1;
nodes = (
"596 -15 OFFCURVE",
"750 129 OFFCURVE",
"797 349 CURVE SMOOTH",
"846 580 OFFCURVE",
"733 714 OFFCURVE",
"485 714 CURVE SMOOTH",
"396 714 OFFCURVE",
"286 693 OFFCURVE",
"228 671 CURVE",
"218 624 LINE",
"285 649 OFFCURVE",
"380 667 OFFCURVE",
"471 667 CURVE SMOOTH",
"699 667 OFFCURVE",
"784 561 OFFCURVE",
"745 365 CURVE",
"92 365 LINE",
"84 329 LINE SMOOTH",
"43 135 OFFCURVE",
"129 -15 OFFCURVE",
"365 -15 CURVE SMOOTH"
);
},
{
closed = 1;
nodes = (
"157 31 OFFCURVE",
"101 158 OFFCURVE",
"134 323 CURVE",
"737 323 LINE",
"700 159 OFFCURVE",
"580 31 OFFCURVE",
"374 31 CURVE SMOOTH"
);
}
);
width = 818;
}
);
note = uni018F;
unicode = 018F;
},
{
glyphname = T;
lastChange = "2015-10-28 04:34:46 +0000";
layers = (
{
layerId = "72ACC467-88F1-4B5B-B511-FE0603CECF6A";
name = "Light Italic";
paths = (
{
closed = 1;
nodes = (
"279 0 LINE",
"418 654 LINE",
"649 654 LINE",
"658 699 LINE",
"143 699 LINE",
"134 654 LINE",
"365 654 LINE",
"226 0 LINE"
);
}
);
width = 585;
}
);
leftKerningGroup = T;
note = T;
rightKerningGroup = T;
unicode = 0054;
},
{
glyphname = Tbar;
lastChange = "2015-10-28 04:34:50 +0000";
layers = (
{
layerId = "72ACC467-88F1-4B5B-B511-FE0603CECF6A";
name = "Light Italic";
paths = (
{
closed = 1;
nodes = (
"279 0 LINE",
"346 318 LINE",
"482 318 LINE",
"491 362 LINE",
"356 362 LINE",
"418 654 LINE",
"649 654 LINE",
"658 699 LINE",
"143 699 LINE",
"134 654 LINE",
"365 654 LINE",
"303 362 LINE",
"164 362 LINE",
"155 318 LINE",
"293 318 LINE",
"226 0 LINE"
);
}
);
width = 585;
}
);
leftKerningGroup = T;
note = Tbar;
rightKerningGroup = T;
unicode = 0166;
},
{
glyphname = Tcaron;
lastChange = "2015-10-28 04:34:47 +0000";
layers = (
{
layerId = "72ACC467-88F1-4B5B-B511-FE0603CECF6A";
name = "Light Italic";
paths = (
{
closed = 1;
nodes = (
"279 0 LINE",
"418 654 LINE",
"649 654 LINE",
"658 699 LINE",
"143 699 LINE",
"134 654 LINE",
"365 654 LINE",
"226 0 LINE"
);
},
{
closed = 1;
nodes = (
"436 763 LINE",
"602 919 LINE",
"548 919 LINE",
"422 798 LINE",
"348 919 LINE",
"293 919 LINE",
"391 763 LINE"
);
}
);
width = 585;
}
);
leftKerningGroup = T;
note = Tcaron;
rightKerningGroup = T;
unicode = 0164;
},
{
glyphname = Tcedilla;
lastChange = "2015-10-28 04:34:48 +0000";
layers = (
{
layerId = "72ACC467-88F1-4B5B-B511-FE0603CECF6A";
name = "Light Italic";
paths = (
{
closed = 1;
nodes = (
"252 -248 OFFCURVE",
"300 -209 OFFCURVE",
"311 -157 CURVE SMOOTH",
"322 -107 OFFCURVE",
"300 -73 OFFCURVE",
"236 -67 CURVE",
"277 0 LINE",
"279 0 LINE",
"418 654 LINE",
"649 654 LINE",
"658 699 LINE",
"143 699 LINE",
"134 654 LINE",
"365 654 LINE",
"226 0 LINE",
"227 0 LINE",
"173 -93 LINE",
"251 -93 OFFCURVE",
"271 -115 OFFCURVE",
"262 -156 CURVE SMOOTH",
"254 -196 OFFCURVE",
"224 -212 OFFCURVE",
"179 -212 CURVE SMOOTH",
"160 -212 OFFCURVE",
"136 -209 OFFCURVE",
"125 -203 CURVE",
"118 -239 LINE",
"130 -244 OFFCURVE",
"156 -248 OFFCURVE",
"180 -248 CURVE SMOOTH"
);
}
);
width = 585;
}
);
leftKerningGroup = T;
note = Tcedilla;
rightKerningGroup = T;
unicode = 0162;
},
{
glyphname = Tcommaaccent;
lastChange = "2015-10-28 04:34:47 +0000";
layers = (
{
layerId = "72ACC467-88F1-4B5B-B511-FE0603CECF6A";
name = "Light Italic";
paths = (
{
closed = 1;
nodes = (
"279 0 LINE",
"418 654 LINE",
"649 654 LINE",
"658 699 LINE",
"143 699 LINE",
"134 654 LINE",
"365 654 LINE",
"226 0 LINE"
);
},
{
closed = 1;
nodes = (
"136 -260 LINE",
"265 -67 LINE",
"209 -67 LINE",
"90 -260 LINE"
);
}
);
width = 585;
}
);
leftKerningGroup = T;
note = Tcommaaccent;
rightKerningGroup = T;
unicode = 021A;
},
{
glyphname = Tdotbelow;
lastChange = "2015-10-28 04:34:49 +0000";
layers = (
{
layerId = "72ACC467-88F1-4B5B-B511-FE0603CECF6A";
name = "Light Italic";
paths = (
{
closed = 1;
nodes = (
"279 0 LINE",
"418 654 LINE",
"649 654 LINE",
"658 699 LINE",
"143 699 LINE",
"134 654 LINE",
"365 654 LINE",
"226 0 LINE"
);
},
{
closed = 1;
nodes = (
"244 -137 OFFCURVE",
"265 -119 OFFCURVE",
"270 -98 CURVE",
"274 -77 OFFCURVE",
"260 -60 OFFCURVE",
"241 -60 CURVE SMOOTH",
"220 -60 OFFCURVE",
"198 -77 OFFCURVE",
"194 -98 CURVE",
"189 -119 OFFCURVE",
"203 -137 OFFCURVE",
"224 -137 CURVE SMOOTH"
);
}
);
width = 585;
}
);
leftKerningGroup = T;
note = Tdotbelow;
rightKerningGroup = T;
unicode = 1E6C;
},
{
glyphname = Tlinebelow;
lastChange = "2015-10-28 04:34:47 +0000";
layers = (
{
layerId = "72ACC467-88F1-4B5B-B511-FE0603CECF6A";
name = "Light Italic";
paths = (
{
closed = 1;
nodes = (
"279 0 LINE",
"418 654 LINE",
"649 654 LINE",
"658 699 LINE",
"143 699 LINE",
"134 654 LINE",
"365 654 LINE",
"226 0 LINE"
);
},
{
closed = 1;
nodes = (
"372 -121 LINE",
"380 -80 LINE",
"90 -80 LINE",
"82 -121 LINE"
);
}
);
width = 585;
}
);
leftKerningGroup = T;
note = Tlinebelow;
rightKerningGroup = T;
unicode = 1E6E;
},
{
glyphname = U;
lastChange = "2015-10-28 04:34:46 +0000";
layers = (
{
layerId = "72ACC467-88F1-4B5B-B511-FE0603CECF6A";
name = "Light Italic";
paths = (
{
closed = 1;
nodes = (
"484 -15 OFFCURVE",
"586 81 OFFCURVE",
"619 239 CURVE SMOOTH",
"717 699 LINE",
"664 699 LINE",
"565 231 LINE SMOOTH",
"537 97 OFFCURVE",
"432 32 OFFCURVE",
"305 32 CURVE SMOOTH",
"168 32 OFFCURVE",
"102 91 OFFCURVE",
"132 231 CURVE SMOOTH",
"231 699 LINE",
"178 699 LINE",
"80 239 LINE SMOOTH",
"47 81 OFFCURVE",
"123 -15 OFFCURVE",
"295 -15 CURVE SMOOTH"
);
}
);
width = 679;
}
);
leftKerningGroup = U;
note = U;
rightKerningGroup = U;
unicode = 0055;
},
{
glyphname = Uacute;
lastChange = "2015-10-28 04:34:49 +0000";
layers = (
{
layerId = "72ACC467-88F1-4B5B-B511-FE0603CECF6A";
name = "Light Italic";
paths = (
{
closed = 1;
nodes = (
"484 -15 OFFCURVE",
"586 81 OFFCURVE",
"619 239 CURVE SMOOTH",
"717 699 LINE",
"664 699 LINE",
"565 231 LINE SMOOTH",
"537 97 OFFCURVE",
"432 32 OFFCURVE",
"305 32 CURVE SMOOTH",
"168 32 OFFCURVE",
"102 91 OFFCURVE",
"132 231 CURVE SMOOTH",
"231 699 LINE",
"178 699 LINE",
"80 239 LINE SMOOTH",
"47 81 OFFCURVE",
"123 -15 OFFCURVE",
"295 -15 CURVE SMOOTH"
);
},
{
closed = 1;
nodes = (
"477 766 LINE",
"591 935 LINE",
"537 935 LINE",
"431 766 LINE"
);
}
);
width = 679;
}
);
leftKerningGroup = U;
note = Uacute;
rightKerningGroup = U;
unicode = 00DA;
},
{
glyphname = Ubreve;
lastChange = "2015-10-28 04:34:46 +0000";
layers = (
{
layerId = "72ACC467-88F1-4B5B-B511-FE0603CECF6A";
name = "Light Italic";
paths = (
{
closed = 1;
nodes = (
"484 -15 OFFCURVE",
"586 81 OFFCURVE",
"619 239 CURVE SMOOTH",
"717 699 LINE",
"664 699 LINE",
"565 231 LINE SMOOTH",
"537 97 OFFCURVE",
"432 32 OFFCURVE",
"305 32 CURVE SMOOTH",
"168 32 OFFCURVE",
"102 91 OFFCURVE",
"132 231 CURVE SMOOTH",
"231 699 LINE",
"178 699 LINE",
"80 239 LINE SMOOTH",
"47 81 OFFCURVE",
"123 -15 OFFCURVE",
"295 -15 CURVE SMOOTH"
);
},
{
closed = 1;
nodes = (
"535 749 OFFCURVE",
"597 801 OFFCURVE",
"611 868 CURVE",
"570 868 LINE",
"560 821 OFFCURVE",
"520 788 OFFCURVE",
"466 788 CURVE SMOOTH",
"412 788 OFFCURVE",
"386 821 OFFCURVE",
"396 868 CURVE",
"354 868 LINE",
"340 801 OFFCURVE",
"380 749 OFFCURVE",
"458 749 CURVE SMOOTH"
);
}
);
width = 679;
}
);
leftKerningGroup = U;
note = Ubreve;
rightKerningGroup = U;
unicode = 016C;
},
{
glyphname = Ucaron;
lastChange = "2015-10-28 04:34:45 +0000";
layers = (
{
layerId = "72ACC467-88F1-4B5B-B511-FE0603CECF6A";
name = "Light Italic";
paths = (
{
closed = 1;
nodes = (
"484 -15 OFFCURVE",
"586 81 OFFCURVE",
"619 239 CURVE SMOOTH",
"717 699 LINE",
"664 699 LINE",
"565 231 LINE SMOOTH",
"537 97 OFFCURVE",
"432 32 OFFCURVE",
"305 32 CURVE SMOOTH",
"168 32 OFFCURVE",
"102 91 OFFCURVE",
"132 231 CURVE SMOOTH",
"231 699 LINE",
"178 699 LINE",
"80 239 LINE SMOOTH",
"47 81 OFFCURVE",
"123 -15 OFFCURVE",
"295 -15 CURVE SMOOTH"
);
},
{
closed = 1;
nodes = (
"483 763 LINE",
"649 919 LINE",
"595 919 LINE",
"469 798 LINE",
"395 919 LINE",
"340 919 LINE",
"438 763 LINE"
);
}
);
width = 679;
}
);
leftKerningGroup = U;
note = Ucaron;
rightKerningGroup = U;
unicode = 01D3;
},
{
glyphname = Ucircumflex;
lastChange = "2015-10-28 04:34:49 +0000";
layers = (
{
layerId = "72ACC467-88F1-4B5B-B511-FE0603CECF6A";
name = "Light Italic";
paths = (
{
closed = 1;
nodes = (
"484 -15 OFFCURVE",
"586 81 OFFCURVE",
"619 239 CURVE SMOOTH",
"717 699 LINE",
"664 699 LINE",
"565 231 LINE SMOOTH",
"537 97 OFFCURVE",
"432 32 OFFCURVE",
"305 32 CURVE SMOOTH",
"168 32 OFFCURVE",
"102 91 OFFCURVE",
"132 231 CURVE SMOOTH",
"231 699 LINE",
"178 699 LINE",
"80 239 LINE SMOOTH",
"47 81 OFFCURVE",
"123 -15 OFFCURVE",
"295 -15 CURVE SMOOTH"
);
},
{
closed = 1;
nodes = (
"363 770 LINE",
"488 891 LINE",
"563 770 LINE",
"617 770 LINE",
"518 926 LINE",
"473 926 LINE",
"309 770 LINE"
);
}
);
width = 679;
}
);
leftKerningGroup = U;
note = Ucircumflex;
rightKerningGroup = U;
unicode = 00DB;
},
{
glyphname = Udieresis;
lastChange = "2015-10-28 04:34:48 +0000";
layers = (
{
layerId = "72ACC467-88F1-4B5B-B511-FE0603CECF6A";
name = "Light Italic";
paths = (
{
closed = 1;
nodes = (
"484 -15 OFFCURVE",
"586 81 OFFCURVE",
"619 239 CURVE SMOOTH",
"717 699 LINE",
"664 699 LINE",
"565 231 LINE SMOOTH",
"537 97 OFFCURVE",
"432 32 OFFCURVE",
"305 32 CURVE SMOOTH",
"168 32 OFFCURVE",
"102 91 OFFCURVE",
"132 231 CURVE SMOOTH",
"231 699 LINE",
"178 699 LINE",
"80 239 LINE SMOOTH",
"47 81 OFFCURVE",
"123 -15 OFFCURVE",
"295 -15 CURVE SMOOTH"
);
},
{
closed = 1;
nodes = (
"378 771 OFFCURVE",
"400 789 OFFCURVE",
"405 810 CURVE",
"409 831 OFFCURVE",
"395 848 OFFCURVE",
"375 848 CURVE SMOOTH",
"354 848 OFFCURVE",
"333 831 OFFCURVE",
"329 810 CURVE",
"324 789 OFFCURVE",
"337 771 OFFCURVE",
"358 771 CURVE SMOOTH"
);
},
{
closed = 1;
nodes = (
"586 771 OFFCURVE",
"608 789 OFFCURVE",
"613 810 CURVE",
"617 831 OFFCURVE",
"603 848 OFFCURVE",
"582 848 CURVE SMOOTH",
"561 848 OFFCURVE",
"539 831 OFFCURVE",
"535 810 CURVE",
"530 789 OFFCURVE",
"544 771 OFFCURVE",
"565 771 CURVE SMOOTH"
);
}
);
width = 679;
}
);
leftKerningGroup = U;
note = Udieresis;
rightKerningGroup = U;
unicode = 00DC;
},
{
glyphname = Udieresisacute;
lastChange = "2015-10-28 04:34:48 +0000";
layers = (
{
layerId = "72ACC467-88F1-4B5B-B511-FE0603CECF6A";
name = "Light Italic";
paths = (
{
closed = 1;
nodes = (
"484 -15 OFFCURVE",
"586 81 OFFCURVE",
"619 239 CURVE SMOOTH",
"717 699 LINE",
"664 699 LINE",
"565 231 LINE SMOOTH",
"537 97 OFFCURVE",
"432 32 OFFCURVE",
"305 32 CURVE SMOOTH",
"168 32 OFFCURVE",
"102 91 OFFCURVE",
"132 231 CURVE SMOOTH",
"231 699 LINE",
"178 699 LINE",
"80 239 LINE SMOOTH",
"47 81 OFFCURVE",
"123 -15 OFFCURVE",
"295 -15 CURVE SMOOTH"
);
},
{
closed = 1;
nodes = (
"381 766 OFFCURVE",
"403 784 OFFCURVE",
"408 805 CURVE",
"412 826 OFFCURVE",
"398 843 OFFCURVE",
"378 843 CURVE SMOOTH",
"357 843 OFFCURVE",
"335 826 OFFCURVE",
"331 805 CURVE",
"326 784 OFFCURVE",
"340 766 OFFCURVE",
"361 766 CURVE SMOOTH"
);
},
{
closed = 1;
nodes = (
"588 766 OFFCURVE",
"610 784 OFFCURVE",
"615 805 CURVE",
"619 826 OFFCURVE",
"605 843 OFFCURVE",
"584 843 CURVE SMOOTH",
"563 843 OFFCURVE",
"541 826 OFFCURVE",
"537 805 CURVE",
"532 784 OFFCURVE",
"546 766 OFFCURVE",
"567 766 CURVE SMOOTH"
);
},
{
closed = 1;
nodes = (
"490 830 LINE",
"581 958 LINE",
"535 958 LINE",
"452 830 LINE"
);
}
);
width = 679;
}
);
leftKerningGroup = U;
note = Udieresisacute;
rightKerningGroup = U;
unicode = 01D7;
},
{
glyphname = Udieresiscaron;
lastChange = "2015-10-28 04:34:46 +0000";
layers = (
{
layerId = "72ACC467-88F1-4B5B-B511-FE0603CECF6A";
name = "Light Italic";
paths = (
{
closed = 1;
nodes = (
"484 -15 OFFCURVE",
"586 81 OFFCURVE",
"619 239 CURVE SMOOTH",
"717 699 LINE",
"664 699 LINE",
"565 231 LINE SMOOTH",
"537 97 OFFCURVE",
"432 32 OFFCURVE",
"305 32 CURVE SMOOTH",
"168 32 OFFCURVE",
"102 91 OFFCURVE",
"132 231 CURVE SMOOTH",
"231 699 LINE",
"178 699 LINE",
"80 239 LINE SMOOTH",
"47 81 OFFCURVE",
"123 -15 OFFCURVE",
"295 -15 CURVE SMOOTH"
);
},
{
closed = 1;
nodes = (
"379 766 OFFCURVE",
"401 784 OFFCURVE",
"406 805 CURVE",
"410 826 OFFCURVE",
"396 843 OFFCURVE",
"375 843 CURVE SMOOTH",
"354 843 OFFCURVE",
"332 826 OFFCURVE",
"328 805 CURVE",
"323 784 OFFCURVE",
"337 766 OFFCURVE",
"358 766 CURVE SMOOTH"
);
},
{
closed = 1;
nodes = (
"585 766 OFFCURVE",
"607 784 OFFCURVE",
"612 805 CURVE",
"616 826 OFFCURVE",
"602 843 OFFCURVE",
"581 843 CURVE SMOOTH",
"561 843 OFFCURVE",
"539 826 OFFCURVE",
"535 805 CURVE",
"530 784 OFFCURVE",
"544 766 OFFCURVE",
"564 766 CURVE SMOOTH"
);
},
{
closed = 1;
nodes = (
"494 831 LINE",
"650 955 LINE",
"597 955 LINE",
"483 864 LINE",
"408 955 LINE",
"354 955 LINE",
"457 831 LINE"
);
}
);
width = 679;
}
);
leftKerningGroup = U;
note = Udieresiscaron;
rightKerningGroup = U;
unicode = 01D9;
},
{
glyphname = Udieresisgrave;
lastChange = "2015-10-28 04:34:49 +0000";
layers = (
{
layerId = "72ACC467-88F1-4B5B-B511-FE0603CECF6A";
name = "Light Italic";
paths = (
{
closed = 1;
nodes = (
"484 -15 OFFCURVE",
"586 81 OFFCURVE",
"619 239 CURVE SMOOTH",
"717 699 LINE",
"664 699 LINE",
"565 231 LINE SMOOTH",
"537 97 OFFCURVE",
"432 32 OFFCURVE",
"305 32 CURVE SMOOTH",
"168 32 OFFCURVE",
"102 91 OFFCURVE",
"132 231 CURVE SMOOTH",
"231 699 LINE",
"178 699 LINE",
"80 239 LINE SMOOTH",
"47 81 OFFCURVE",
"123 -15 OFFCURVE",
"295 -15 CURVE SMOOTH"
);
},
{
closed = 1;
nodes = (
"379 765 OFFCURVE",
"401 783 OFFCURVE",
"406 804 CURVE",
"410 825 OFFCURVE",
"396 842 OFFCURVE",
"375 842 CURVE SMOOTH",
"354 842 OFFCURVE",
"332 825 OFFCURVE",
"328 804 CURVE",
"323 783 OFFCURVE",
"337 765 OFFCURVE",
"358 765 CURVE SMOOTH"
);
},
{
closed = 1;
nodes = (
"501 829 LINE",
"472 957 LINE",
"426 957 LINE",
"464 829 LINE"
);
},
{
closed = 1;
nodes = (
"585 765 OFFCURVE",
"607 783 OFFCURVE",
"612 804 CURVE",
"616 825 OFFCURVE",
"602 842 OFFCURVE",
"581 842 CURVE SMOOTH",
"561 842 OFFCURVE",
"539 825 OFFCURVE",
"535 804 CURVE",
"530 783 OFFCURVE",
"544 765 OFFCURVE",
"564 765 CURVE SMOOTH"
);
}
);
width = 679;
}
);
leftKerningGroup = U;
note = Udieresisgrave;
rightKerningGroup = U;
unicode = 01DB;
},
{
glyphname = Udieresismacron;
lastChange = "2015-10-28 04:34:46 +0000";
layers = (
{
layerId = "72ACC467-88F1-4B5B-B511-FE0603CECF6A";
name = "Light Italic";
paths = (
{
closed = 1;
nodes = (
"484 -15 OFFCURVE",
"586 81 OFFCURVE",
"619 239 CURVE SMOOTH",
"717 699 LINE",
"664 699 LINE",
"565 231 LINE SMOOTH",
"537 97 OFFCURVE",
"432 32 OFFCURVE",
"305 32 CURVE SMOOTH",
"168 32 OFFCURVE",
"102 91 OFFCURVE",
"132 231 CURVE SMOOTH",
"231 699 LINE",
"178 699 LINE",
"80 239 LINE SMOOTH",
"47 81 OFFCURVE",
"123 -15 OFFCURVE",
"295 -15 CURVE SMOOTH"
);
},
{
closed = 1;
nodes = (
"373 749 OFFCURVE",
"395 767 OFFCURVE",
"400 788 CURVE",
"404 809 OFFCURVE",
"390 826 OFFCURVE",
"370 826 CURVE SMOOTH",
"349 826 OFFCURVE",
"328 809 OFFCURVE",
"324 788 CURVE",
"319 767 OFFCURVE",
"332 749 OFFCURVE",
"353 749 CURVE SMOOTH"
);
},
{
closed = 1;
nodes = (
"581 749 OFFCURVE",
"603 767 OFFCURVE",
"608 788 CURVE",
"612 809 OFFCURVE",
"598 826 OFFCURVE",
"577 826 CURVE SMOOTH",
"556 826 OFFCURVE",
"534 809 OFFCURVE",
"530 788 CURVE",
"525 767 OFFCURVE",
"539 749 OFFCURVE",
"560 749 CURVE SMOOTH"
);
},
{
closed = 1;
nodes = (
"635 910 LINE",
"643 949 LINE",
"354 949 LINE",
"347 910 LINE"
);
}
);
width = 679;
}
);
leftKerningGroup = U;
note = Udieresismacron;
rightKerningGroup = U;
unicode = 01D5;
},
{
glyphname = Udotbelow;
lastChange = "2015-10-28 04:34:47 +0000";
layers = (
{
layerId = "72ACC467-88F1-4B5B-B511-FE0603CECF6A";
name = "Light Italic";
paths = (
{
closed = 1;
nodes = (
"484 -15 OFFCURVE",
"586 81 OFFCURVE",
"619 239 CURVE SMOOTH",
"717 699 LINE",
"664 699 LINE",
"565 231 LINE SMOOTH",
"537 97 OFFCURVE",
"432 32 OFFCURVE",
"305 32 CURVE SMOOTH",
"168 32 OFFCURVE",
"102 91 OFFCURVE",
"132 231 CURVE SMOOTH",
"231 699 LINE",
"178 699 LINE",
"80 239 LINE SMOOTH",
"47 81 OFFCURVE",
"123 -15 OFFCURVE",
"295 -15 CURVE SMOOTH"
);
},
{
closed = 1;
nodes = (
"291 -137 OFFCURVE",
"312 -119 OFFCURVE",
"317 -98 CURVE",
"321 -77 OFFCURVE",
"307 -60 OFFCURVE",
"288 -60 CURVE SMOOTH",
"267 -60 OFFCURVE",
"245 -77 OFFCURVE",
"241 -98 CURVE",
"236 -119 OFFCURVE",
"250 -137 OFFCURVE",
"271 -137 CURVE SMOOTH"
);
}
);
width = 679;
}
);
leftKerningGroup = U;
note = Udotbelow;
rightKerningGroup = U;
unicode = 1EE4;
},
{
glyphname = Ugrave;
lastChange = "2015-10-28 04:34:46 +0000";
layers = (
{
layerId = "72ACC467-88F1-4B5B-B511-FE0603CECF6A";
name = "Light Italic";
paths = (
{
closed = 1;
nodes = (
"484 -15 OFFCURVE",
"586 81 OFFCURVE",
"619 239 CURVE SMOOTH",
"717 699 LINE",
"664 699 LINE",
"565 231 LINE SMOOTH",
"537 97 OFFCURVE",
"432 32 OFFCURVE",
"305 32 CURVE SMOOTH",
"168 32 OFFCURVE",
"102 91 OFFCURVE",
"132 231 CURVE SMOOTH",
"231 699 LINE",
"178 699 LINE",
"80 239 LINE SMOOTH",
"47 81 OFFCURVE",
"123 -15 OFFCURVE",
"295 -15 CURVE SMOOTH"
);
},
{
closed = 1;
nodes = (
"493 766 LINE",
"460 935 LINE",
"405 935 LINE",
"448 766 LINE"
);
}
);
width = 679;
}
);
leftKerningGroup = U;
note = Ugrave;
rightKerningGroup = U;
unicode = 00D9;
},
{
glyphname = Uhookabove;
lastChange = "2015-10-28 04:34:49 +0000";
layers = (
{
layerId = "72ACC467-88F1-4B5B-B511-FE0603CECF6A";
name = "Light Italic";
paths = (
{
closed = 1;
nodes = (
"484 -15 OFFCURVE",
"586 81 OFFCURVE",
"619 239 CURVE SMOOTH",
"717 699 LINE",
"664 699 LINE",
"565 231 LINE SMOOTH",
"537 97 OFFCURVE",
"432 32 OFFCURVE",
"305 32 CURVE SMOOTH",
"168 32 OFFCURVE",
"102 91 OFFCURVE",
"132 231 CURVE SMOOTH",
"231 699 LINE",
"178 699 LINE",
"80 239 LINE SMOOTH",
"47 81 OFFCURVE",
"123 -15 OFFCURVE",
"295 -15 CURVE SMOOTH"
);
},
{
closed = 1;
nodes = (
"471 743 LINE",
"479 782 LINE",
"543 787 OFFCURVE",
"583 824 OFFCURVE",
"593 873 CURVE SMOOTH",
"604 925 OFFCURVE",
"575 962 OFFCURVE",
"500 962 CURVE SMOOTH",
"476 962 OFFCURVE",
"448 958 OFFCURVE",
"432 953 CURVE",
"425 918 LINE",
"438 924 OFFCURVE",
"467 927 OFFCURVE",
"485 927 CURVE SMOOTH",
"532 927 OFFCURVE",
"554 910 OFFCURVE",
"546 871 CURVE SMOOTH",
"537 828 OFFCURVE",
"508 808 OFFCURVE",
"440 808 CURVE",
"426 743 LINE"
);
}
);
width = 679;
}
);
leftKerningGroup = U;
note = Uhookabove;
rightKerningGroup = U;
unicode = 1EE6;
},
{
glyphname = Uhorn;
lastChange = "2015-10-28 04:34:49 +0000";
layers = (
{
layerId = "72ACC467-88F1-4B5B-B511-FE0603CECF6A";
name = "Light Italic";
paths = (
{
closed = 1;
nodes = (
"483 -15 OFFCURVE",
"586 81 OFFCURVE",
"619 239 CURVE SMOOTH",
"691 579 LINE",
"779 579 OFFCURVE",
"851 639 OFFCURVE",
"866 708 CURVE SMOOTH",
"874 747 LINE",
"821 747 LINE",
"813 710 LINE SMOOTH",
"802 658 OFFCURVE",
"767 626 OFFCURVE",
"701 626 CURVE",
"717 699 LINE",
"664 699 LINE",
"565 231 LINE SMOOTH",
"535 91 OFFCURVE",
"432 32 OFFCURVE",
"305 32 CURVE SMOOTH",
"170 32 OFFCURVE",
"102 91 OFFCURVE",
"132 231 CURVE SMOOTH",
"231 699 LINE",
"178 699 LINE",
"80 239 LINE SMOOTH",
"47 81 OFFCURVE",
"121 -15 OFFCURVE",
"295 -15 CURVE SMOOTH"
);
}
);
width = 781;
}
);
leftKerningGroup = U;
note = Uhorn;
rightKerningGroup = U;
unicode = 01AF;
},
{
glyphname = Uhornacute;
lastChange = "2015-10-28 04:34:47 +0000";
layers = (
{
layerId = "72ACC467-88F1-4B5B-B511-FE0603CECF6A";
name = "Light Italic";
paths = (
{
closed = 1;
nodes = (
"483 -15 OFFCURVE",
"586 81 OFFCURVE",
"619 239 CURVE SMOOTH",
"691 579 LINE",
"779 579 OFFCURVE",
"851 639 OFFCURVE",
"866 708 CURVE SMOOTH",
"874 747 LINE",
"821 747 LINE",
"813 710 LINE SMOOTH",
"802 658 OFFCURVE",
"767 626 OFFCURVE",
"701 626 CURVE",
"717 699 LINE",
"664 699 LINE",
"565 231 LINE SMOOTH",
"535 91 OFFCURVE",
"432 32 OFFCURVE",
"305 32 CURVE SMOOTH",
"170 32 OFFCURVE",
"102 91 OFFCURVE",
"132 231 CURVE SMOOTH",
"231 699 LINE",
"178 699 LINE",
"80 239 LINE SMOOTH",
"47 81 OFFCURVE",
"121 -15 OFFCURVE",
"295 -15 CURVE SMOOTH"
);
},
{
closed = 1;
nodes = (
"487 754 LINE",
"601 923 LINE",
"547 923 LINE",
"441 754 LINE"
);
}
);
width = 802;
}
);
leftKerningGroup = U;
note = Uhornacute;
rightKerningGroup = U;
unicode = 1EE8;
},
{
glyphname = Uhorndotbelow;
lastChange = "2015-10-28 04:34:48 +0000";
layers = (
{
layerId = "72ACC467-88F1-4B5B-B511-FE0603CECF6A";
name = "Light Italic";
paths = (
{
closed = 1;
nodes = (
"483 -15 OFFCURVE",
"586 81 OFFCURVE",
"619 239 CURVE SMOOTH",
"691 579 LINE",
"779 579 OFFCURVE",
"851 639 OFFCURVE",
"866 708 CURVE SMOOTH",
"874 747 LINE",
"821 747 LINE",
"813 710 LINE SMOOTH",
"802 658 OFFCURVE",
"767 626 OFFCURVE",
"701 626 CURVE",
"717 699 LINE",
"664 699 LINE",
"565 231 LINE SMOOTH",
"535 91 OFFCURVE",
"432 32 OFFCURVE",
"305 32 CURVE SMOOTH",
"170 32 OFFCURVE",
"102 91 OFFCURVE",
"132 231 CURVE SMOOTH",
"231 699 LINE",
"178 699 LINE",
"80 239 LINE SMOOTH",
"47 81 OFFCURVE",
"121 -15 OFFCURVE",
"295 -15 CURVE SMOOTH"
);
},
{
closed = 1;
nodes = (
"283 -137 OFFCURVE",
"304 -119 OFFCURVE",
"309 -98 CURVE",
"313 -77 OFFCURVE",
"299 -60 OFFCURVE",
"280 -60 CURVE SMOOTH",
"259 -60 OFFCURVE",
"237 -77 OFFCURVE",
"233 -98 CURVE",
"228 -119 OFFCURVE",
"242 -137 OFFCURVE",
"263 -137 CURVE SMOOTH"
);
}
);
width = 788;
}
);
leftKerningGroup = U;
note = Uhorndotbelow;
rightKerningGroup = U;
unicode = 1EF0;
},
{
glyphname = Uhorngrave;
lastChange = "2015-10-28 04:34:48 +0000";
layers = (
{
layerId = "72ACC467-88F1-4B5B-B511-FE0603CECF6A";
name = "Light Italic";
paths = (
{
closed = 1;
nodes = (
"483 -15 OFFCURVE",
"586 81 OFFCURVE",
"619 239 CURVE SMOOTH",
"691 579 LINE",
"779 579 OFFCURVE",
"851 639 OFFCURVE",
"866 708 CURVE SMOOTH",
"874 747 LINE",
"821 747 LINE",
"813 710 LINE SMOOTH",
"802 658 OFFCURVE",
"767 626 OFFCURVE",
"701 626 CURVE",
"717 699 LINE",
"664 699 LINE",
"565 231 LINE SMOOTH",
"535 91 OFFCURVE",
"432 32 OFFCURVE",
"305 32 CURVE SMOOTH",
"170 32 OFFCURVE",
"102 91 OFFCURVE",
"132 231 CURVE SMOOTH",
"231 699 LINE",
"178 699 LINE",
"80 239 LINE SMOOTH",
"47 81 OFFCURVE",
"121 -15 OFFCURVE",
"295 -15 CURVE SMOOTH"
);
},
{
closed = 1;
nodes = (
"497 754 LINE",
"464 923 LINE",
"409 923 LINE",
"452 754 LINE"
);
}
);
width = 788;
}
);
leftKerningGroup = U;
note = Uhorngrave;
rightKerningGroup = U;
unicode = 1EEA;
},
{
glyphname = Uhornhookabove;
lastChange = "2015-10-28 04:34:49 +0000";
layers = (
{
layerId = "72ACC467-88F1-4B5B-B511-FE0603CECF6A";
name = "Light Italic";
paths = (
{
closed = 1;
nodes = (
"483 -15 OFFCURVE",
"586 81 OFFCURVE",
"619 239 CURVE SMOOTH",
"691 579 LINE",
"779 579 OFFCURVE",
"851 639 OFFCURVE",
"866 708 CURVE SMOOTH",
"874 747 LINE",
"821 747 LINE",
"813 710 LINE SMOOTH",
"802 658 OFFCURVE",
"767 626 OFFCURVE",
"701 626 CURVE",
"717 699 LINE",
"664 699 LINE",
"565 231 LINE SMOOTH",
"535 91 OFFCURVE",
"432 32 OFFCURVE",
"305 32 CURVE SMOOTH",
"170 32 OFFCURVE",
"102 91 OFFCURVE",
"132 231 CURVE SMOOTH",
"231 699 LINE",
"178 699 LINE",
"80 239 LINE SMOOTH",
"47 81 OFFCURVE",
"121 -15 OFFCURVE",
"295 -15 CURVE SMOOTH"
);
},
{
closed = 1;
nodes = (
"475 743 LINE",
"483 782 LINE",
"547 787 OFFCURVE",
"587 824 OFFCURVE",
"597 873 CURVE SMOOTH",
"608 925 OFFCURVE",
"579 962 OFFCURVE",
"504 962 CURVE SMOOTH",
"480 962 OFFCURVE",
"452 958 OFFCURVE",
"436 953 CURVE",
"429 918 LINE",
"442 924 OFFCURVE",
"471 927 OFFCURVE",
"489 927 CURVE SMOOTH",
"536 927 OFFCURVE",
"558 910 OFFCURVE",
"550 871 CURVE SMOOTH",
"541 828 OFFCURVE",
"512 808 OFFCURVE",
"444 808 CURVE",
"430 743 LINE"
);
}
);
width = 788;
}
);
leftKerningGroup = U;
note = Uhornhookabove;
rightKerningGroup = U;
unicode = 1EEC;
},
{
glyphname = Uhorntilde;
lastChange = "2015-10-28 04:34:47 +0000";
layers = (
{
layerId = "72ACC467-88F1-4B5B-B511-FE0603CECF6A";
name = "Light Italic";
paths = (
{
closed = 1;
nodes = (
"483 -15 OFFCURVE",
"586 81 OFFCURVE",
"619 239 CURVE SMOOTH",
"691 579 LINE",
"779 579 OFFCURVE",
"851 639 OFFCURVE",
"866 708 CURVE SMOOTH",
"874 747 LINE",
"821 747 LINE",
"813 710 LINE SMOOTH",
"802 658 OFFCURVE",
"767 626 OFFCURVE",
"701 626 CURVE",
"717 699 LINE",
"664 699 LINE",
"565 231 LINE SMOOTH",
"535 91 OFFCURVE",
"432 32 OFFCURVE",
"305 32 CURVE SMOOTH",
"170 32 OFFCURVE",
"102 91 OFFCURVE",
"132 231 CURVE SMOOTH",
"231 699 LINE",
"178 699 LINE",
"80 239 LINE SMOOTH",
"47 81 OFFCURVE",
"121 -15 OFFCURVE",
"295 -15 CURVE SMOOTH"
);
},
{
closed = 1;
nodes = (
"319 806 OFFCURVE",
"351 817 OFFCURVE",
"385 817 CURVE SMOOTH",
"449 817 OFFCURVE",
"478 767 OFFCURVE",
"551 767 CURVE SMOOTH",
"590 767 OFFCURVE",
"626 778 OFFCURVE",
"653 811 CURVE",
"664 862 LINE",
"629 820 OFFCURVE",
"595 809 OFFCURVE",
"560 809 CURVE SMOOTH",
"495 809 OFFCURVE",
"462 859 OFFCURVE",
"394 859 CURVE SMOOTH",
"356 859 OFFCURVE",
"319 847 OFFCURVE",
"292 815 CURVE",
"281 764 LINE"
);
}
);
width = 788;
}
);
leftKerningGroup = U;
note = Uhorntilde;
rightKerningGroup = U;
unicode = 1EEE;
},
{
glyphname = Uhungarumlaut;
lastChange = "2015-10-28 04:34:50 +0000";
layers = (
{
layerId = "72ACC467-88F1-4B5B-B511-FE0603CECF6A";
name = "Light Italic";
paths = (
{
closed = 1;
nodes = (
"484 -15 OFFCURVE",
"586 81 OFFCURVE",
"619 239 CURVE SMOOTH",
"717 699 LINE",
"664 699 LINE",
"565 231 LINE SMOOTH",
"537 97 OFFCURVE",
"432 32 OFFCURVE",
"305 32 CURVE SMOOTH",
"168 32 OFFCURVE",
"102 91 OFFCURVE",
"132 231 CURVE SMOOTH",
"231 699 LINE",
"178 699 LINE",
"80 239 LINE SMOOTH",
"47 81 OFFCURVE",
"123 -15 OFFCURVE",
"295 -15 CURVE SMOOTH"
);
},
{
closed = 1;
nodes = (
"378 760 LINE",
"492 929 LINE",
"438 929 LINE",
"333 760 LINE"
);
},
{
closed = 1;
nodes = (
"556 760 LINE",
"671 929 LINE",
"616 929 LINE",
"511 760 LINE"
);
}
);
width = 679;
}
);
leftKerningGroup = U;
note = Uhungarumlaut;
rightKerningGroup = U;
unicode = 0170;
},
{
glyphname = Umacron;
lastChange = "2015-10-28 04:34:49 +0000";
layers = (
{
layerId = "72ACC467-88F1-4B5B-B511-FE0603CECF6A";
name = "Light Italic";
paths = (
{
closed = 1;
nodes = (
"484 -15 OFFCURVE",
"586 81 OFFCURVE",
"619 239 CURVE SMOOTH",
"717 699 LINE",
"664 699 LINE",
"565 231 LINE SMOOTH",
"537 97 OFFCURVE",
"432 32 OFFCURVE",
"305 32 CURVE SMOOTH",
"168 32 OFFCURVE",
"102 91 OFFCURVE",
"132 231 CURVE SMOOTH",
"231 699 LINE",
"178 699 LINE",
"80 239 LINE SMOOTH",
"47 81 OFFCURVE",
"123 -15 OFFCURVE",
"295 -15 CURVE SMOOTH"
);
},
{
closed = 1;
nodes = (
"610 787 LINE",
"618 826 LINE",
"329 826 LINE",
"322 787 LINE"
);
}
);
width = 679;
}
);
leftKerningGroup = U;
note = Umacron;
rightKerningGroup = U;
unicode = 016A;
},
{
glyphname = Uogonek;
lastChange = "2015-10-28 04:34:47 +0000";
layers = (
{
layerId = "72ACC467-88F1-4B5B-B511-FE0603CECF6A";
name = "Light Italic";
paths = (
{
closed = 1;
nodes = (
"298 -208 OFFCURVE",
"318 -205 OFFCURVE",
"332 -199 CURVE",
"340 -162 LINE",
"327 -167 OFFCURVE",
"310 -171 OFFCURVE",
"293 -171 CURVE SMOOTH",
"261 -171 OFFCURVE",
"245 -155 OFFCURVE",
"252 -119 CURVE SMOOTH",
"260 -79 OFFCURVE",
"290 -45 OFFCURVE",
"335 -13 CURVE",
"498 0 OFFCURVE",
"588 92 OFFCURVE",
"619 239 CURVE SMOOTH",
"717 699 LINE",
"664 699 LINE",
"565 231 LINE SMOOTH",
"537 97 OFFCURVE",
"432 32 OFFCURVE",
"305 32 CURVE SMOOTH",
"168 32 OFFCURVE",
"102 91 OFFCURVE",
"132 231 CURVE SMOOTH",
"231 699 LINE",
"178 699 LINE",
"80 239 LINE SMOOTH",
"47 85 OFFCURVE",
"119 -10 OFFCURVE",
"283 -15 CURVE",
"245 -42 OFFCURVE",
"213 -80 OFFCURVE",
"204 -124 CURVE SMOOTH",
"192 -181 OFFCURVE",
"227 -208 OFFCURVE",
"275 -208 CURVE SMOOTH"
);
}
);
width = 679;
}
);
leftKerningGroup = U;
note = Uogonek;
rightKerningGroup = U;
unicode = 0172;
},
{
glyphname = Uring;
lastChange = "2015-10-28 04:34:48 +0000";
layers = (
{
layerId = "72ACC467-88F1-4B5B-B511-FE0603CECF6A";
name = "Light Italic";
paths = (
{
closed = 1;
nodes = (
"484 -15 OFFCURVE",
"586 81 OFFCURVE",
"619 239 CURVE SMOOTH",
"717 699 LINE",
"664 699 LINE",
"565 231 LINE SMOOTH",
"537 97 OFFCURVE",
"432 32 OFFCURVE",
"305 32 CURVE SMOOTH",
"168 32 OFFCURVE",
"102 91 OFFCURVE",
"132 231 CURVE SMOOTH",
"231 699 LINE",
"178 699 LINE",
"80 239 LINE SMOOTH",
"47 81 OFFCURVE",
"123 -15 OFFCURVE",
"295 -15 CURVE SMOOTH"
);
},
{
closed = 1;
nodes = (
"511 750 OFFCURVE",
"566 795 OFFCURVE",
"578 850 CURVE SMOOTH",
"589 904 OFFCURVE",
"554 949 OFFCURVE",
"500 949 CURVE SMOOTH",
"445 949 OFFCURVE",
"390 904 OFFCURVE",
"379 850 CURVE SMOOTH",
"367 795 OFFCURVE",
"402 750 OFFCURVE",
"457 750 CURVE SMOOTH"
);
},
{
closed = 1;
nodes = (
"430 786 OFFCURVE",
"408 815 OFFCURVE",
"416 850 CURVE SMOOTH",
"423 884 OFFCURVE",
"456 913 OFFCURVE",
"492 913 CURVE SMOOTH",
"527 913 OFFCURVE",
"549 884 OFFCURVE",
"542 850 CURVE SMOOTH",
"534 815 OFFCURVE",
"500 786 OFFCURVE",
"465 786 CURVE SMOOTH"
);
}
);
width = 679;
}
);
leftKerningGroup = U;
note = Uring;
rightKerningGroup = U;
unicode = 016E;
},
{
glyphname = Utilde;
lastChange = "2015-10-28 04:34:48 +0000";
layers = (
{
layerId = "72ACC467-88F1-4B5B-B511-FE0603CECF6A";
name = "Light Italic";
paths = (
{
closed = 1;
nodes = (
"484 -15 OFFCURVE",
"586 81 OFFCURVE",
"619 239 CURVE SMOOTH",
"717 699 LINE",
"664 699 LINE",
"565 231 LINE SMOOTH",
"537 97 OFFCURVE",
"432 32 OFFCURVE",
"305 32 CURVE SMOOTH",
"168 32 OFFCURVE",
"102 91 OFFCURVE",
"132 231 CURVE SMOOTH",
"231 699 LINE",
"178 699 LINE",
"80 239 LINE SMOOTH",
"47 81 OFFCURVE",
"123 -15 OFFCURVE",
"295 -15 CURVE SMOOTH"
);
},
{
closed = 1;
nodes = (
"331 812 OFFCURVE",
"363 823 OFFCURVE",
"397 823 CURVE SMOOTH",
"461 823 OFFCURVE",
"490 773 OFFCURVE",
"563 773 CURVE SMOOTH",
"602 773 OFFCURVE",
"638 784 OFFCURVE",
"665 817 CURVE",
"676 868 LINE",
"641 826 OFFCURVE",
"607 815 OFFCURVE",
"572 815 CURVE SMOOTH",
"507 815 OFFCURVE",
"474 865 OFFCURVE",
"406 865 CURVE SMOOTH",
"368 865 OFFCURVE",
"331 853 OFFCURVE",
"304 821 CURVE",
"293 770 LINE"
);
}
);
width = 679;
}
);
leftKerningGroup = U;
note = Utilde;
rightKerningGroup = U;
unicode = 0168;
},
{
glyphname = V;
lastChange = "2015-10-28 04:34:48 +0000";
layers = (
{
layerId = "72ACC467-88F1-4B5B-B511-FE0603CECF6A";
name = "Light Italic";
paths = (
{
closed = 1;
nodes = (
"341 0 LINE",
"768 699 LINE",
"711 699 LINE",
"330 75 LINE",
"216 699 LINE",
"163 699 LINE",
"294 0 LINE"
);
}
);
width = 715;
}
);
note = V;
unicode = 0056;
},
{
glyphname = W;
lastChange = "2015-10-28 04:34:46 +0000";
layers = (
{
layerId = "72ACC467-88F1-4B5B-B511-FE0603CECF6A";
name = "Light Italic";
paths = (
{
closed = 1;
nodes = (
"278 0 LINE",
"596 618 LINE",
"653 0 LINE",
"702 0 LINE",
"1064 699 LINE",
"1009 699 LINE",
"692 89 LINE",
"637 699 LINE",
"591 699 LINE",
"274 89 LINE",
"217 699 LINE",
"163 699 LINE",
"229 0 LINE"
);
}
);
width = 1011;
}
);
leftKerningGroup = W;
note = W;
rightKerningGroup = W;
unicode = 0057;
},
{
glyphname = Wacute;
lastChange = "2015-10-28 04:34:48 +0000";
layers = (
{
layerId = "72ACC467-88F1-4B5B-B511-FE0603CECF6A";
name = "Light Italic";
paths = (
{
closed = 1;
nodes = (
"278 0 LINE",
"596 618 LINE",
"653 0 LINE",
"702 0 LINE",
"1064 699 LINE",
"1009 699 LINE",
"692 89 LINE",
"637 699 LINE",
"591 699 LINE",
"274 89 LINE",
"217 699 LINE",
"163 699 LINE",
"229 0 LINE"
);
},
{
closed = 1;
nodes = (
"650 760 LINE",
"764 929 LINE",
"710 929 LINE",
"604 760 LINE"
);
}
);
width = 1011;
}
);
leftKerningGroup = W;
note = Wacute;
rightKerningGroup = W;
unicode = 1E82;
},
{
glyphname = Wcircumflex;
lastChange = "2015-10-28 04:34:45 +0000";
layers = (
{
layerId = "72ACC467-88F1-4B5B-B511-FE0603CECF6A";
name = "Light Italic";
paths = (
{
closed = 1;
nodes = (
"278 0 LINE",
"596 618 LINE",
"653 0 LINE",
"702 0 LINE",
"1064 699 LINE",
"1009 699 LINE",
"692 89 LINE",
"637 699 LINE",
"591 699 LINE",
"274 89 LINE",
"217 699 LINE",
"163 699 LINE",
"229 0 LINE"
);
},
{
closed = 1;
nodes = (
"527 764 LINE",
"652 885 LINE",
"727 764 LINE",
"781 764 LINE",
"682 920 LINE",
"637 920 LINE",
"473 764 LINE"
);
}
);
width = 1011;
}
);
leftKerningGroup = W;
note = Wcircumflex;
rightKerningGroup = W;
unicode = 0174;
},
{
glyphname = Wdieresis;
lastChange = "2015-10-28 04:34:48 +0000";
layers = (
{
layerId = "72ACC467-88F1-4B5B-B511-FE0603CECF6A";
name = "Light Italic";
paths = (
{
closed = 1;
nodes = (
"278 0 LINE",
"596 618 LINE",
"653 0 LINE",
"702 0 LINE",
"1064 699 LINE",
"1009 699 LINE",
"692 89 LINE",
"637 699 LINE",
"591 699 LINE",
"274 89 LINE",
"217 699 LINE",
"163 699 LINE",
"229 0 LINE"
);
},
{
closed = 1;
nodes = (
"542 765 OFFCURVE",
"564 783 OFFCURVE",
"569 804 CURVE",
"573 825 OFFCURVE",
"559 842 OFFCURVE",
"539 842 CURVE SMOOTH",
"518 842 OFFCURVE",
"497 825 OFFCURVE",
"493 804 CURVE",
"488 783 OFFCURVE",
"501 765 OFFCURVE",
"522 765 CURVE SMOOTH"
);
},
{
closed = 1;
nodes = (
"750 765 OFFCURVE",
"772 783 OFFCURVE",
"777 804 CURVE",
"781 825 OFFCURVE",
"767 842 OFFCURVE",
"746 842 CURVE SMOOTH",
"725 842 OFFCURVE",
"703 825 OFFCURVE",
"699 804 CURVE",
"694 783 OFFCURVE",
"708 765 OFFCURVE",
"729 765 CURVE SMOOTH"
);
}
);
width = 1011;
}
);
leftKerningGroup = W;
note = Wdieresis;
rightKerningGroup = W;
unicode = 1E84;
},
{
glyphname = Wgrave;
lastChange = "2015-10-28 04:34:46 +0000";
layers = (
{
layerId = "72ACC467-88F1-4B5B-B511-FE0603CECF6A";
name = "Light Italic";
paths = (
{
closed = 1;
nodes = (
"278 0 LINE",
"596 618 LINE",
"653 0 LINE",
"702 0 LINE",
"1064 699 LINE",
"1009 699 LINE",
"692 89 LINE",
"637 699 LINE",
"591 699 LINE",
"274 89 LINE",
"217 699 LINE",
"163 699 LINE",
"229 0 LINE"
);
},
{
closed = 1;
nodes = (
"644 760 LINE",
"611 929 LINE",
"556 929 LINE",
"599 760 LINE"
);
}
);
width = 1011;
}
);
leftKerningGroup = W;
note = Wgrave;
rightKerningGroup = W;
unicode = 1E80;
},
{
glyphname = X;
lastChange = "2015-10-28 04:34:47 +0000";
layers = (
{
layerId = "72ACC467-88F1-4B5B-B511-FE0603CECF6A";
name = "Light Italic";
paths = (
{
closed = 1;
nodes = (
"78 0 LINE",
"382 318 LINE",
"551 0 LINE",
"607 0 LINE",
"417 356 LINE",
"744 699 LINE",
"682 699 LINE",
"395 398 LINE",
"235 699 LINE",
"179 699 LINE",
"359 360 LINE",
"16 0 LINE"
);
}
);
width = 707;
}
);
note = X;
unicode = 0058;
},
{
glyphname = Y;
lastChange = "2015-10-28 04:34:47 +0000";
layers = (
{
layerId = "72ACC467-88F1-4B5B-B511-FE0603CECF6A";
name = "Light Italic";
paths = (
{
closed = 1;
nodes = (
"322 0 LINE",
"378 265 LINE",
"725 699 LINE",
"668 699 LINE",
"360 312 LINE",
"216 699 LINE",
"163 699 LINE",
"325 265 LINE",
"269 0 LINE"
);
}
);
width = 672;
}
);
leftKerningGroup = Y;
note = Y;
rightKerningGroup = Y;
unicode = 0059;
},
{
glyphname = Yacute;
lastChange = "2015-10-28 04:34:48 +0000";
layers = (
{
layerId = "72ACC467-88F1-4B5B-B511-FE0603CECF6A";
name = "Light Italic";
paths = (
{
closed = 1;
nodes = (
"322 0 LINE",
"378 265 LINE",
"725 699 LINE",
"668 699 LINE",
"360 312 LINE",
"216 699 LINE",
"163 699 LINE",
"325 265 LINE",
"269 0 LINE"
);
},
{
closed = 1;
nodes = (
"473 766 LINE",
"587 935 LINE",
"533 935 LINE",
"427 766 LINE"
);
}
);
width = 672;
}
);
leftKerningGroup = Y;
note = Yacute;
rightKerningGroup = Y;
unicode = 00DD;
},
{
glyphname = Ycircumflex;
lastChange = "2015-10-28 04:34:47 +0000";
layers = (
{
layerId = "72ACC467-88F1-4B5B-B511-FE0603CECF6A";
name = "Light Italic";
paths = (
{
closed = 1;
nodes = (
"322 0 LINE",
"378 265 LINE",
"725 699 LINE",
"668 699 LINE",
"360 312 LINE",
"216 699 LINE",
"163 699 LINE",
"325 265 LINE",
"269 0 LINE"
);
},
{
closed = 1;
nodes = (
"358 764 LINE",
"483 885 LINE",
"558 764 LINE",
"612 764 LINE",
"513 920 LINE",
"468 920 LINE",
"304 764 LINE"
);
}
);
width = 672;
}
);
leftKerningGroup = Y;
note = Ycircumflex;
rightKerningGroup = Y;
unicode = 0176;
},
{
glyphname = Ydieresis;
lastChange = "2015-10-28 04:34:49 +0000";
layers = (
{
layerId = "72ACC467-88F1-4B5B-B511-FE0603CECF6A";
name = "Light Italic";
paths = (
{
closed = 1;
nodes = (
"322 0 LINE",
"378 265 LINE",
"725 699 LINE",
"668 699 LINE",
"360 312 LINE",
"216 699 LINE",
"163 699 LINE",
"325 265 LINE",
"269 0 LINE"
);
},
{
closed = 1;
nodes = (
"374 771 OFFCURVE",
"396 789 OFFCURVE",
"401 810 CURVE",
"405 831 OFFCURVE",
"391 848 OFFCURVE",
"371 848 CURVE SMOOTH",
"350 848 OFFCURVE",
"329 831 OFFCURVE",
"325 810 CURVE",
"320 789 OFFCURVE",
"333 771 OFFCURVE",
"354 771 CURVE SMOOTH"
);
},
{
closed = 1;
nodes = (
"582 771 OFFCURVE",
"604 789 OFFCURVE",
"609 810 CURVE",
"613 831 OFFCURVE",
"599 848 OFFCURVE",
"578 848 CURVE SMOOTH",
"557 848 OFFCURVE",
"535 831 OFFCURVE",
"531 810 CURVE",
"526 789 OFFCURVE",
"540 771 OFFCURVE",
"561 771 CURVE SMOOTH"
);
}
);
width = 672;
}
);
leftKerningGroup = Y;
note = Ydieresis;
rightKerningGroup = Y;
unicode = 0178;
},
{
glyphname = Ydotaccent;
lastChange = "2015-10-28 04:34:45 +0000";
layers = (
{
layerId = "72ACC467-88F1-4B5B-B511-FE0603CECF6A";
name = "Light Italic";
paths = (
{
closed = 1;
nodes = (
"322 0 LINE",
"378 265 LINE",
"725 699 LINE",
"668 699 LINE",
"360 312 LINE",
"216 699 LINE",
"163 699 LINE",
"325 265 LINE",
"269 0 LINE"
);
},
{
closed = 1;
nodes = (
"477 765 OFFCURVE",
"499 783 OFFCURVE",
"504 804 CURVE",
"508 825 OFFCURVE",
"494 842 OFFCURVE",
"474 842 CURVE SMOOTH",
"453 842 OFFCURVE",
"431 825 OFFCURVE",
"427 804 CURVE",
"422 783 OFFCURVE",
"436 765 OFFCURVE",
"457 765 CURVE SMOOTH"
);
}
);
width = 672;
}
);
leftKerningGroup = Y;
note = Ydotaccent;
rightKerningGroup = Y;
unicode = 1E8E;
},
{
glyphname = Ydotbelow;
lastChange = "2015-10-28 04:34:48 +0000";
layers = (
{
layerId = "72ACC467-88F1-4B5B-B511-FE0603CECF6A";
name = "Light Italic";
paths = (
{
closed = 1;
nodes = (
"322 0 LINE",
"378 265 LINE",
"725 699 LINE",
"668 699 LINE",
"360 312 LINE",
"216 699 LINE",
"163 699 LINE",
"325 265 LINE",
"269 0 LINE"
);
},
{
closed = 1;
nodes = (
"287 -137 OFFCURVE",
"308 -119 OFFCURVE",
"313 -98 CURVE",
"317 -77 OFFCURVE",
"303 -60 OFFCURVE",
"284 -60 CURVE SMOOTH",
"263 -60 OFFCURVE",
"241 -77 OFFCURVE",
"237 -98 CURVE",
"232 -119 OFFCURVE",
"246 -137 OFFCURVE",
"267 -137 CURVE SMOOTH"
);
}
);
width = 672;
}
);
leftKerningGroup = Y;
note = Ydotbelow;
rightKerningGroup = Y;
unicode = 1EF4;
},
{
glyphname = Ygrave;
lastChange = "2015-10-28 04:34:46 +0000";
layers = (
{
layerId = "72ACC467-88F1-4B5B-B511-FE0603CECF6A";
name = "Light Italic";
paths = (
{
closed = 1;
nodes = (
"322 0 LINE",
"378 265 LINE",
"725 699 LINE",
"668 699 LINE",
"360 312 LINE",
"216 699 LINE",
"163 699 LINE",
"325 265 LINE",
"269 0 LINE"
);
},
{
closed = 1;
nodes = (
"482 760 LINE",
"449 929 LINE",
"394 929 LINE",
"437 760 LINE"
);
}
);
width = 672;
}
);
leftKerningGroup = Y;
note = Ygrave;
rightKerningGroup = Y;
unicode = 1EF2;
},
{
glyphname = Yhookabove;
lastChange = "2015-10-28 04:34:48 +0000";
layers = (
{
layerId = "72ACC467-88F1-4B5B-B511-FE0603CECF6A";
name = "Light Italic";
paths = (
{
closed = 1;
nodes = (
"322 0 LINE",
"378 265 LINE",
"725 699 LINE",
"668 699 LINE",
"360 312 LINE",
"216 699 LINE",
"163 699 LINE",
"325 265 LINE",
"269 0 LINE"
);
},
{
closed = 1;
nodes = (
"466 743 LINE",
"474 782 LINE",
"538 787 OFFCURVE",
"578 824 OFFCURVE",
"588 873 CURVE SMOOTH",
"599 925 OFFCURVE",
"570 962 OFFCURVE",
"495 962 CURVE SMOOTH",
"471 962 OFFCURVE",
"443 958 OFFCURVE",
"427 953 CURVE",
"420 918 LINE",
"433 924 OFFCURVE",
"462 927 OFFCURVE",
"480 927 CURVE SMOOTH",
"527 927 OFFCURVE",
"549 910 OFFCURVE",
"541 871 CURVE SMOOTH",
"532 828 OFFCURVE",
"503 808 OFFCURVE",
"435 808 CURVE",
"421 743 LINE"
);
}
);
width = 672;
}
);
leftKerningGroup = Y;
note = Yhookabove;
rightKerningGroup = Y;
unicode = 1EF6;
},
{
glyphname = Ytilde;
lastChange = "2015-10-28 04:34:47 +0000";
layers = (
{
layerId = "72ACC467-88F1-4B5B-B511-FE0603CECF6A";
name = "Light Italic";
paths = (
{
closed = 1;
nodes = (
"322 0 LINE",
"378 265 LINE",
"725 699 LINE",
"668 699 LINE",
"360 312 LINE",
"216 699 LINE",
"163 699 LINE",
"325 265 LINE",
"269 0 LINE"
);
},
{
closed = 1;
nodes = (
"316 812 OFFCURVE",
"348 823 OFFCURVE",
"382 823 CURVE SMOOTH",
"446 823 OFFCURVE",
"475 773 OFFCURVE",
"548 773 CURVE SMOOTH",
"587 773 OFFCURVE",
"623 784 OFFCURVE",
"650 817 CURVE",
"661 868 LINE",
"626 826 OFFCURVE",
"592 815 OFFCURVE",
"557 815 CURVE SMOOTH",
"492 815 OFFCURVE",
"459 865 OFFCURVE",
"391 865 CURVE SMOOTH",
"353 865 OFFCURVE",
"316 853 OFFCURVE",
"289 821 CURVE",
"278 770 LINE"
);
}
);
width = 672;
}
);
leftKerningGroup = Y;
note = Ytilde;
rightKerningGroup = Y;
unicode = 1EF8;
},
{
glyphname = Z;
lastChange = "2015-10-28 04:34:46 +0000";
layers = (
{
layerId = "72ACC467-88F1-4B5B-B511-FE0603CECF6A";
name = "Light Italic";
paths = (
{
closed = 1;
nodes = (
"521 0 LINE",
"530 44 LINE",
"87 44 LINE",
"647 658 LINE",
"656 699 LINE",
"174 699 LINE",
"165 654 LINE",
"584 654 LINE",
"23 40 LINE",
"15 0 LINE"
);
}
);
width = 616;
}
);
leftKerningGroup = Z;
note = Z;
rightKerningGroup = Z;
unicode = 005A;
},
{
glyphname = Zacute;
lastChange = "2015-10-28 04:34:46 +0000";
layers = (
{
layerId = "72ACC467-88F1-4B5B-B511-FE0603CECF6A";
name = "Light Italic";
paths = (
{
closed = 1;
nodes = (
"521 0 LINE",
"530 44 LINE",
"87 44 LINE",
"647 658 LINE",
"656 699 LINE",
"174 699 LINE",
"165 654 LINE",
"584 654 LINE",
"23 40 LINE",
"15 0 LINE"
);
},
{
closed = 1;
nodes = (
"426 760 LINE",
"540 929 LINE",
"486 929 LINE",
"380 760 LINE"
);
}
);
width = 616;
}
);
leftKerningGroup = Z;
note = Zacute;
rightKerningGroup = Z;
unicode = 0179;
},
{
glyphname = Zcaron;
lastChange = "2015-10-28 04:34:48 +0000";
layers = (
{
layerId = "72ACC467-88F1-4B5B-B511-FE0603CECF6A";
name = "Light Italic";
paths = (
{
closed = 1;
nodes = (
"521 0 LINE",
"530 44 LINE",
"87 44 LINE",
"647 658 LINE",
"656 699 LINE",
"174 699 LINE",
"165 654 LINE",
"584 654 LINE",
"23 40 LINE",
"15 0 LINE"
);
},
{
closed = 1;
nodes = (
"456 769 LINE",
"622 925 LINE",
"568 925 LINE",
"442 804 LINE",
"368 925 LINE",
"313 925 LINE",
"411 769 LINE"
);
}
);
width = 616;
}
);
leftKerningGroup = Z;
note = Zcaron;
rightKerningGroup = Z;
unicode = 017D;
},
{
glyphname = Zdotaccent;
lastChange = "2015-10-28 04:34:48 +0000";
layers = (
{
layerId = "72ACC467-88F1-4B5B-B511-FE0603CECF6A";
name = "Light Italic";
paths = (
{
closed = 1;
nodes = (
"521 0 LINE",
"530 44 LINE",
"87 44 LINE",
"647 658 LINE",
"656 699 LINE",
"174 699 LINE",
"165 654 LINE",
"584 654 LINE",
"23 40 LINE",
"15 0 LINE"
);
},
{
closed = 1;
nodes = (
"440 765 OFFCURVE",
"462 783 OFFCURVE",
"467 804 CURVE",
"471 825 OFFCURVE",
"457 842 OFFCURVE",
"437 842 CURVE SMOOTH",
"416 842 OFFCURVE",
"394 825 OFFCURVE",
"390 804 CURVE",
"385 783 OFFCURVE",
"399 765 OFFCURVE",
"420 765 CURVE SMOOTH"
);
}
);
width = 616;
}
);
leftKerningGroup = Z;
note = Zdotaccent;
rightKerningGroup = Z;
unicode = 017B;
},
{
glyphname = Zdotbelow;
lastChange = "2015-10-28 04:34:49 +0000";
layers = (
{
layerId = "72ACC467-88F1-4B5B-B511-FE0603CECF6A";
name = "Light Italic";
paths = (
{
closed = 1;
nodes = (
"521 0 LINE",
"530 44 LINE",
"87 44 LINE",
"647 658 LINE",
"656 699 LINE",
"174 699 LINE",
"165 654 LINE",
"584 654 LINE",
"23 40 LINE",
"15 0 LINE"
);
},
{
closed = 1;
nodes = (
"268 -137 OFFCURVE",
"289 -119 OFFCURVE",
"294 -98 CURVE",
"298 -77 OFFCURVE",
"284 -60 OFFCURVE",
"265 -60 CURVE SMOOTH",
"244 -60 OFFCURVE",
"222 -77 OFFCURVE",
"218 -98 CURVE",
"213 -119 OFFCURVE",
"227 -137 OFFCURVE",
"248 -137 CURVE SMOOTH"
);
}
);
width = 616;
}
);
leftKerningGroup = Z;
note = Zdotbelow;
rightKerningGroup = Z;
unicode = 1E92;
},
{
glyphname = a;
lastChange = "2015-10-28 04:34:47 +0000";
layers = (
{
layerId = "72ACC467-88F1-4B5B-B511-FE0603CECF6A";
name = "Light Italic";
paths = (
{
closed = 1;
nodes = (
"366 -15 OFFCURVE",
"443 23 OFFCURVE",
"504 98 CURVE",
"484 0 LINE",
"536 0 LINE",
"638 480 LINE",
"585 480 LINE",
"564 382 LINE",
"534 457 OFFCURVE",
"462 495 OFFCURVE",
"369 495 CURVE SMOOTH",
"222 495 OFFCURVE",
"98 397 OFFCURVE",
"64 239 CURVE SMOOTH",
"30 82 OFFCURVE",
"124 -15 OFFCURVE",
"260 -15 CURVE SMOOTH"
);
},
{
closed = 1;
nodes = (
"153 27 OFFCURVE",
"87 106 OFFCURVE",
"115 239 CURVE SMOOTH",
"142 368 OFFCURVE",
"254 452 OFFCURVE",
"368 452 CURVE SMOOTH",
"477 452 OFFCURVE",
"538 398 OFFCURVE",
"547 304 CURVE",
"519 173 LINE",
"471 81 OFFCURVE",
"378 27 OFFCURVE",
"277 27 CURVE SMOOTH"
);
}
);
width = 647;
}
);
leftKerningGroup = a;
note = a;
rightKerningGroup = a;
unicode = 0061;
},
{
glyphname = aacute;
lastChange = "2015-10-28 04:34:49 +0000";
layers = (
{
layerId = "72ACC467-88F1-4B5B-B511-FE0603CECF6A";
name = "Light Italic";
paths = (
{
closed = 1;
nodes = (
"366 -15 OFFCURVE",
"443 23 OFFCURVE",
"504 98 CURVE",
"484 0 LINE",
"536 0 LINE",
"638 480 LINE",
"585 480 LINE",
"564 382 LINE",
"534 457 OFFCURVE",
"462 495 OFFCURVE",
"369 495 CURVE SMOOTH",
"222 495 OFFCURVE",
"98 397 OFFCURVE",
"64 239 CURVE SMOOTH",
"30 82 OFFCURVE",
"124 -15 OFFCURVE",
"260 -15 CURVE SMOOTH"
);
},
{
closed = 1;
nodes = (
"153 27 OFFCURVE",
"87 106 OFFCURVE",
"115 239 CURVE SMOOTH",
"142 368 OFFCURVE",
"254 452 OFFCURVE",
"368 452 CURVE SMOOTH",
"477 452 OFFCURVE",
"538 398 OFFCURVE",
"547 304 CURVE",
"519 173 LINE",
"471 81 OFFCURVE",
"378 27 OFFCURVE",
"277 27 CURVE SMOOTH"
);
},
{
closed = 1;
nodes = (
"477 568 LINE",
"591 737 LINE",
"537 737 LINE",
"431 568 LINE"
);
}
);
width = 647;
}
);
leftKerningGroup = a;
note = aacute;
rightKerningGroup = a;
unicode = 00E1;
},
{
glyphname = abreve;
lastChange = "2015-10-28 04:34:49 +0000";
layers = (
{
layerId = "72ACC467-88F1-4B5B-B511-FE0603CECF6A";
name = "Light Italic";
paths = (
{
closed = 1;
nodes = (
"366 -15 OFFCURVE",
"443 23 OFFCURVE",
"504 98 CURVE",
"484 0 LINE",
"536 0 LINE",
"638 480 LINE",
"585 480 LINE",
"564 382 LINE",
"534 457 OFFCURVE",
"462 495 OFFCURVE",
"369 495 CURVE SMOOTH",
"222 495 OFFCURVE",
"98 397 OFFCURVE",
"64 239 CURVE SMOOTH",
"30 82 OFFCURVE",
"124 -15 OFFCURVE",
"260 -15 CURVE SMOOTH"
);
},
{
closed = 1;
nodes = (
"153 27 OFFCURVE",
"87 106 OFFCURVE",
"115 239 CURVE SMOOTH",
"142 368 OFFCURVE",
"254 452 OFFCURVE",
"368 452 CURVE SMOOTH",
"477 452 OFFCURVE",
"538 398 OFFCURVE",
"547 304 CURVE",
"519 173 LINE",
"471 81 OFFCURVE",
"378 27 OFFCURVE",
"277 27 CURVE SMOOTH"
);
},
{
closed = 1;
nodes = (
"547 557 OFFCURVE",
"609 609 OFFCURVE",
"623 676 CURVE",
"582 676 LINE",
"572 629 OFFCURVE",
"532 596 OFFCURVE",
"478 596 CURVE SMOOTH",
"424 596 OFFCURVE",
"398 629 OFFCURVE",
"408 676 CURVE",
"366 676 LINE",
"352 609 OFFCURVE",
"392 557 OFFCURVE",
"470 557 CURVE SMOOTH"
);
}
);
width = 647;
}
);
leftKerningGroup = a;
note = abreve;
rightKerningGroup = a;
unicode = 0103;
},
{
glyphname = abreveacute;
lastChange = "2015-10-28 04:34:48 +0000";
layers = (
{
layerId = "72ACC467-88F1-4B5B-B511-FE0603CECF6A";
name = "Light Italic";
paths = (
{
closed = 1;
nodes = (
"366 -15 OFFCURVE",
"443 23 OFFCURVE",
"504 98 CURVE",
"484 0 LINE",
"536 0 LINE",
"638 480 LINE",
"585 480 LINE",
"564 382 LINE",
"534 457 OFFCURVE",
"462 495 OFFCURVE",
"369 495 CURVE SMOOTH",
"222 495 OFFCURVE",
"98 397 OFFCURVE",
"64 239 CURVE SMOOTH",
"30 82 OFFCURVE",
"124 -15 OFFCURVE",
"260 -15 CURVE SMOOTH"
);
},
{
closed = 1;
nodes = (
"153 27 OFFCURVE",
"87 106 OFFCURVE",
"115 239 CURVE SMOOTH",
"142 368 OFFCURVE",
"254 452 OFFCURVE",
"368 452 CURVE SMOOTH",
"477 452 OFFCURVE",
"538 398 OFFCURVE",
"547 304 CURVE",
"519 173 LINE",
"471 81 OFFCURVE",
"378 27 OFFCURVE",
"277 27 CURVE SMOOTH"
);
},
{
closed = 1;
nodes = (
"532 549 OFFCURVE",
"593 600 OFFCURVE",
"607 667 CURVE",
"566 667 LINE",
"556 620 OFFCURVE",
"517 587 OFFCURVE",
"463 587 CURVE SMOOTH",
"409 587 OFFCURVE",
"383 620 OFFCURVE",
"393 667 CURVE",
"352 667 LINE",
"338 600 OFFCURVE",
"378 549 OFFCURVE",
"455 549 CURVE SMOOTH"
);
},
{
closed = 1;
nodes = (
"482 643 LINE",
"569 764 LINE",
"523 764 LINE",
"444 643 LINE"
);
}
);
width = 647;
}
);
leftKerningGroup = a;
note = abreveacute;
rightKerningGroup = a;
unicode = 1EAF;
},
{
glyphname = abrevedotbelow;
lastChange = "2015-10-28 04:34:47 +0000";
layers = (
{
layerId = "72ACC467-88F1-4B5B-B511-FE0603CECF6A";
name = "Light Italic";
paths = (
{
closed = 1;
nodes = (
"366 -15 OFFCURVE",
"443 23 OFFCURVE",
"504 98 CURVE",
"484 0 LINE",
"536 0 LINE",
"638 480 LINE",
"585 480 LINE",
"564 382 LINE",
"534 457 OFFCURVE",
"462 495 OFFCURVE",
"369 495 CURVE SMOOTH",
"222 495 OFFCURVE",
"98 397 OFFCURVE",
"64 239 CURVE SMOOTH",
"30 82 OFFCURVE",
"124 -15 OFFCURVE",
"260 -15 CURVE SMOOTH"
);
},
{
closed = 1;
nodes = (
"324 -137 OFFCURVE",
"345 -119 OFFCURVE",
"350 -98 CURVE",
"354 -77 OFFCURVE",
"340 -60 OFFCURVE",
"321 -60 CURVE SMOOTH",
"300 -60 OFFCURVE",
"278 -77 OFFCURVE",
"274 -98 CURVE",
"269 -119 OFFCURVE",
"283 -137 OFFCURVE",
"304 -137 CURVE SMOOTH"
);
},
{
closed = 1;
nodes = (
"153 27 OFFCURVE",
"87 106 OFFCURVE",
"115 239 CURVE SMOOTH",
"142 368 OFFCURVE",
"254 452 OFFCURVE",
"368 452 CURVE SMOOTH",
"477 452 OFFCURVE",
"538 398 OFFCURVE",
"547 304 CURVE",
"519 173 LINE",
"471 81 OFFCURVE",
"378 27 OFFCURVE",
"277 27 CURVE SMOOTH"
);
},
{
closed = 1;
nodes = (
"525 547 OFFCURVE",
"587 599 OFFCURVE",
"601 666 CURVE",
"560 666 LINE",
"550 619 OFFCURVE",
"510 586 OFFCURVE",
"456 586 CURVE SMOOTH",
"402 586 OFFCURVE",
"376 619 OFFCURVE",
"386 666 CURVE",
"344 666 LINE",
"330 599 OFFCURVE",
"370 547 OFFCURVE",
"448 547 CURVE SMOOTH"
);
}
);
width = 647;
}
);
leftKerningGroup = a;
note = abrevedotbelow;
rightKerningGroup = a;
unicode = 1EB7;
},
{
glyphname = abrevegrave;
lastChange = "2015-10-28 04:34:49 +0000";
layers = (
{
layerId = "72ACC467-88F1-4B5B-B511-FE0603CECF6A";
name = "Light Italic";
paths = (
{
closed = 1;
nodes = (
"366 -15 OFFCURVE",
"443 23 OFFCURVE",
"504 98 CURVE",
"484 0 LINE",
"536 0 LINE",
"638 480 LINE",
"585 480 LINE",
"564 382 LINE",
"534 457 OFFCURVE",
"462 495 OFFCURVE",
"369 495 CURVE SMOOTH",
"222 495 OFFCURVE",
"98 397 OFFCURVE",
"64 239 CURVE SMOOTH",
"30 82 OFFCURVE",
"124 -15 OFFCURVE",
"260 -15 CURVE SMOOTH"
);
},
{
closed = 1;
nodes = (
"153 27 OFFCURVE",
"87 106 OFFCURVE",
"115 239 CURVE SMOOTH",
"142 368 OFFCURVE",
"254 452 OFFCURVE",
"368 452 CURVE SMOOTH",
"477 452 OFFCURVE",
"538 398 OFFCURVE",
"547 304 CURVE",
"519 173 LINE",
"471 81 OFFCURVE",
"378 27 OFFCURVE",
"277 27 CURVE SMOOTH"
);
},
{
closed = 1;
nodes = (
"534 549 OFFCURVE",
"595 600 OFFCURVE",
"609 667 CURVE",
"568 667 LINE",
"558 620 OFFCURVE",
"519 587 OFFCURVE",
"465 587 CURVE SMOOTH",
"411 587 OFFCURVE",
"385 620 OFFCURVE",
"395 667 CURVE",
"354 667 LINE",
"340 600 OFFCURVE",
"380 549 OFFCURVE",
"457 549 CURVE SMOOTH"
);
},
{
closed = 1;
nodes = (
"508 643 LINE",
"481 764 LINE",
"434 764 LINE",
"470 643 LINE"
);
}
);
width = 647;
}
);
leftKerningGroup = a;
note = abrevegrave;
rightKerningGroup = a;
unicode = 1EB1;
},
{
glyphname = abrevehookabove;
lastChange = "2015-10-28 04:34:49 +0000";
layers = (
{
layerId = "72ACC467-88F1-4B5B-B511-FE0603CECF6A";
name = "Light Italic";
paths = (
{
closed = 1;
nodes = (
"366 -15 OFFCURVE",
"443 23 OFFCURVE",
"504 98 CURVE",
"484 0 LINE",
"536 0 LINE",
"638 480 LINE",
"585 480 LINE",
"564 382 LINE",
"534 457 OFFCURVE",
"462 495 OFFCURVE",
"369 495 CURVE SMOOTH",
"222 495 OFFCURVE",
"98 397 OFFCURVE",
"64 239 CURVE SMOOTH",
"30 82 OFFCURVE",
"124 -15 OFFCURVE",
"260 -15 CURVE SMOOTH"
);
},
{
closed = 1;
nodes = (
"153 27 OFFCURVE",
"87 106 OFFCURVE",
"115 239 CURVE SMOOTH",
"142 368 OFFCURVE",
"254 452 OFFCURVE",
"368 452 CURVE SMOOTH",
"477 452 OFFCURVE",
"538 398 OFFCURVE",
"547 304 CURVE",
"519 173 LINE",
"471 81 OFFCURVE",
"378 27 OFFCURVE",
"277 27 CURVE SMOOTH"
);
},
{
closed = 1;
nodes = (
"533 549 OFFCURVE",
"594 600 OFFCURVE",
"608 667 CURVE",
"568 667 LINE",
"558 620 OFFCURVE",
"518 587 OFFCURVE",
"464 587 CURVE SMOOTH",
"410 587 OFFCURVE",
"384 620 OFFCURVE",
"394 667 CURVE",
"353 667 LINE",
"339 600 OFFCURVE",
"379 549 OFFCURVE",
"456 549 CURVE SMOOTH"
);
},
{
closed = 1;
nodes = (
"483 632 LINE",
"488 658 LINE",
"533 662 OFFCURVE",
"563 687 OFFCURVE",
"570 721 CURVE SMOOTH",
"578 759 OFFCURVE",
"558 785 OFFCURVE",
"506 785 CURVE SMOOTH",
"486 785 OFFCURVE",
"463 781 OFFCURVE",
"449 776 CURVE",
"443 746 LINE",
"455 751 OFFCURVE",
"476 754 OFFCURVE",
"492 754 CURVE SMOOTH",
"522 754 OFFCURVE",
"534 745 OFFCURVE",
"529 721 CURVE SMOOTH",
"523 693 OFFCURVE",
"501 682 OFFCURVE",
"457 682 CURVE",
"447 632 LINE"
);
}
);
width = 647;
}
);
leftKerningGroup = a;
note = abrevehookabove;
rightKerningGroup = a;
unicode = 1EB3;
},
{
glyphname = abrevetilde;
lastChange = "2015-10-28 04:34:49 +0000";
layers = (
{
layerId = "72ACC467-88F1-4B5B-B511-FE0603CECF6A";
name = "Light Italic";
paths = (
{
closed = 1;
nodes = (
"366 -15 OFFCURVE",
"443 23 OFFCURVE",
"504 98 CURVE",
"484 0 LINE",
"536 0 LINE",
"638 480 LINE",
"585 480 LINE",
"564 382 LINE",
"534 457 OFFCURVE",
"462 495 OFFCURVE",
"369 495 CURVE SMOOTH",
"222 495 OFFCURVE",
"98 397 OFFCURVE",
"64 239 CURVE SMOOTH",
"30 82 OFFCURVE",
"124 -15 OFFCURVE",
"260 -15 CURVE SMOOTH"
);
},
{
closed = 1;
nodes = (
"153 27 OFFCURVE",
"87 106 OFFCURVE",
"115 239 CURVE SMOOTH",
"142 368 OFFCURVE",
"254 452 OFFCURVE",
"368 452 CURVE SMOOTH",
"477 452 OFFCURVE",
"538 398 OFFCURVE",
"547 304 CURVE",
"519 173 LINE",
"471 81 OFFCURVE",
"378 27 OFFCURVE",
"277 27 CURVE SMOOTH"
);
},
{
closed = 1;
nodes = (
"542 549 OFFCURVE",
"603 600 OFFCURVE",
"617 667 CURVE",
"577 667 LINE",
"567 620 OFFCURVE",
"527 587 OFFCURVE",
"473 587 CURVE SMOOTH",
"419 587 OFFCURVE",
"393 620 OFFCURVE",
"403 667 CURVE",
"362 667 LINE",
"348 600 OFFCURVE",
"388 549 OFFCURVE",
"465 549 CURVE SMOOTH"
);
},
{
closed = 1;
nodes = (
"372 725 OFFCURVE",
"397 735 OFFCURVE",
"427 735 CURVE SMOOTH",
"475 735 OFFCURVE",
"511 691 OFFCURVE",
"567 691 CURVE SMOOTH",
"602 691 OFFCURVE",
"628 700 OFFCURVE",
"650 727 CURVE",
"660 773 LINE",
"631 738 OFFCURVE",
"606 727 OFFCURVE",
"575 727 CURVE SMOOTH",
"526 727 OFFCURVE",
"487 772 OFFCURVE",
"435 772 CURVE SMOOTH",
"401 772 OFFCURVE",
"372 762 OFFCURVE",
"351 735 CURVE",
"341 690 LINE"
);
}
);
width = 647;
}
);
leftKerningGroup = a;
note = abrevetilde;
rightKerningGroup = a;
unicode = 1EB5;
},
{
glyphname = acaron;
lastChange = "2015-10-28 04:34:47 +0000";
layers = (
{
layerId = "72ACC467-88F1-4B5B-B511-FE0603CECF6A";
name = "Light Italic";
paths = (
{
closed = 1;
nodes = (
"366 -15 OFFCURVE",
"443 23 OFFCURVE",
"504 98 CURVE",
"484 0 LINE",
"536 0 LINE",
"638 480 LINE",
"585 480 LINE",
"564 382 LINE",
"534 457 OFFCURVE",
"462 495 OFFCURVE",
"369 495 CURVE SMOOTH",
"222 495 OFFCURVE",
"98 397 OFFCURVE",
"64 239 CURVE SMOOTH",
"30 82 OFFCURVE",
"124 -15 OFFCURVE",
"260 -15 CURVE SMOOTH"
);
},
{
closed = 1;
nodes = (
"153 27 OFFCURVE",
"87 106 OFFCURVE",
"115 239 CURVE SMOOTH",
"142 368 OFFCURVE",
"254 452 OFFCURVE",
"368 452 CURVE SMOOTH",
"477 452 OFFCURVE",
"538 398 OFFCURVE",
"547 304 CURVE",
"519 173 LINE",
"471 81 OFFCURVE",
"378 27 OFFCURVE",
"277 27 CURVE SMOOTH"
);
},
{
closed = 1;
nodes = (
"482 551 LINE",
"648 707 LINE",
"594 707 LINE",
"468 586 LINE",
"394 707 LINE",
"339 707 LINE",
"437 551 LINE"
);
}
);
width = 647;
}
);
leftKerningGroup = a;
note = acaron;
rightKerningGroup = a;
unicode = 01CE;
},
{
glyphname = acircumflex;
lastChange = "2015-10-28 04:34:50 +0000";
layers = (
{
layerId = "72ACC467-88F1-4B5B-B511-FE0603CECF6A";
name = "Light Italic";
paths = (
{
closed = 1;
nodes = (
"366 -15 OFFCURVE",
"443 23 OFFCURVE",
"504 98 CURVE",
"484 0 LINE",
"536 0 LINE",
"638 480 LINE",
"585 480 LINE",
"564 382 LINE",
"534 457 OFFCURVE",
"462 495 OFFCURVE",
"369 495 CURVE SMOOTH",
"222 495 OFFCURVE",
"98 397 OFFCURVE",
"64 239 CURVE SMOOTH",
"30 82 OFFCURVE",
"124 -15 OFFCURVE",
"260 -15 CURVE SMOOTH"
);
},
{
closed = 1;
nodes = (
"153 27 OFFCURVE",
"87 106 OFFCURVE",
"115 239 CURVE SMOOTH",
"142 368 OFFCURVE",
"254 452 OFFCURVE",
"368 452 CURVE SMOOTH",
"477 452 OFFCURVE",
"538 398 OFFCURVE",
"547 304 CURVE",
"519 173 LINE",
"471 81 OFFCURVE",
"378 27 OFFCURVE",
"277 27 CURVE SMOOTH"
);
},
{
closed = 1;
nodes = (
"354 551 LINE",
"479 672 LINE",
"554 551 LINE",
"608 551 LINE",
"509 707 LINE",
"464 707 LINE",
"300 551 LINE"
);
}
);
width = 647;
}
);
leftKerningGroup = a;
note = acircumflex;
rightKerningGroup = a;
unicode = 00E2;
},
{
glyphname = acircumflexacute;
lastChange = "2015-10-28 04:34:49 +0000";
layers = (
{
layerId = "72ACC467-88F1-4B5B-B511-FE0603CECF6A";
name = "Light Italic";
paths = (
{
closed = 1;
nodes = (
"366 -15 OFFCURVE",
"443 23 OFFCURVE",
"504 98 CURVE",
"484 0 LINE",
"536 0 LINE",
"638 480 LINE",
"585 480 LINE",
"564 382 LINE",
"534 457 OFFCURVE",
"462 495 OFFCURVE",
"369 495 CURVE SMOOTH",
"222 495 OFFCURVE",
"98 397 OFFCURVE",
"64 239 CURVE SMOOTH",
"30 82 OFFCURVE",
"124 -15 OFFCURVE",
"260 -15 CURVE SMOOTH"
);
},
{
closed = 1;
nodes = (
"153 27 OFFCURVE",
"87 106 OFFCURVE",
"115 239 CURVE SMOOTH",
"142 368 OFFCURVE",
"254 452 OFFCURVE",
"368 452 CURVE SMOOTH",
"477 452 OFFCURVE",
"538 398 OFFCURVE",
"547 304 CURVE",
"519 173 LINE",
"471 81 OFFCURVE",
"378 27 OFFCURVE",
"277 27 CURVE SMOOTH"
);
},
{
closed = 1;
nodes = (
"359 546 LINE",
"473 637 LINE",
"549 546 LINE",
"602 546 LINE",
"498 670 LINE",
"461 670 LINE",
"305 546 LINE"
);
},
{
closed = 1;
nodes = (
"596 639 LINE",
"695 753 LINE",
"649 753 LINE",
"558 639 LINE"
);
}
);
width = 647;
}
);
leftKerningGroup = a;
note = acircumflexacute;
rightKerningGroup = a;
unicode = 1EA5;
},
{
glyphname = acircumflexdotbelow;
lastChange = "2015-10-28 04:34:49 +0000";
layers = (
{
layerId = "72ACC467-88F1-4B5B-B511-FE0603CECF6A";
name = "Light Italic";
paths = (
{
closed = 1;
nodes = (
"366 -15 OFFCURVE",
"443 23 OFFCURVE",
"504 98 CURVE",
"484 0 LINE",
"536 0 LINE",
"638 480 LINE",
"585 480 LINE",
"564 382 LINE",
"534 457 OFFCURVE",
"462 495 OFFCURVE",
"369 495 CURVE SMOOTH",
"222 495 OFFCURVE",
"98 397 OFFCURVE",
"64 239 CURVE SMOOTH",
"30 82 OFFCURVE",
"124 -15 OFFCURVE",
"260 -15 CURVE SMOOTH"
);
},
{
closed = 1;
nodes = (
"325 -137 OFFCURVE",
"346 -119 OFFCURVE",
"351 -98 CURVE",
"355 -77 OFFCURVE",
"341 -60 OFFCURVE",
"322 -60 CURVE SMOOTH",
"301 -60 OFFCURVE",
"279 -77 OFFCURVE",
"275 -98 CURVE",
"270 -119 OFFCURVE",
"284 -137 OFFCURVE",
"305 -137 CURVE SMOOTH"
);
},
{
closed = 1;
nodes = (
"153 27 OFFCURVE",
"87 106 OFFCURVE",
"115 239 CURVE SMOOTH",
"142 368 OFFCURVE",
"254 452 OFFCURVE",
"368 452 CURVE SMOOTH",
"477 452 OFFCURVE",
"538 398 OFFCURVE",
"547 304 CURVE",
"519 173 LINE",
"471 81 OFFCURVE",
"378 27 OFFCURVE",
"277 27 CURVE SMOOTH"
);
},
{
closed = 1;
nodes = (
"352 551 LINE",
"477 672 LINE",
"552 551 LINE",
"606 551 LINE",
"507 707 LINE",
"462 707 LINE",
"298 551 LINE"
);
}
);
width = 647;
}
);
leftKerningGroup = a;
note = acircumflexdotbelow;
rightKerningGroup = a;
unicode = 1EAD;
},
{
glyphname = acircumflexgrave;
lastChange = "2015-10-28 04:34:46 +0000";
layers = (
{
layerId = "72ACC467-88F1-4B5B-B511-FE0603CECF6A";
name = "Light Italic";
paths = (
{
closed = 1;
nodes = (
"366 -15 OFFCURVE",
"443 23 OFFCURVE",
"504 98 CURVE",
"484 0 LINE",
"536 0 LINE",
"638 480 LINE",
"585 480 LINE",
"564 382 LINE",
"534 457 OFFCURVE",
"462 495 OFFCURVE",
"369 495 CURVE SMOOTH",
"222 495 OFFCURVE",
"98 397 OFFCURVE",
"64 239 CURVE SMOOTH",
"30 82 OFFCURVE",
"124 -15 OFFCURVE",
"260 -15 CURVE SMOOTH"
);
},
{
closed = 1;
nodes = (
"153 27 OFFCURVE",
"87 106 OFFCURVE",
"115 239 CURVE SMOOTH",
"142 368 OFFCURVE",
"254 452 OFFCURVE",
"368 452 CURVE SMOOTH",
"477 452 OFFCURVE",
"538 398 OFFCURVE",
"547 304 CURVE",
"519 173 LINE",
"471 81 OFFCURVE",
"378 27 OFFCURVE",
"277 27 CURVE SMOOTH"
);
},
{
closed = 1;
nodes = (
"400 639 LINE",
"356 753 LINE",
"310 753 LINE",
"362 639 LINE"
);
},
{
closed = 1;
nodes = (
"369 546 LINE",
"483 637 LINE",
"559 546 LINE",
"612 546 LINE",
"509 670 LINE",
"472 670 LINE",
"316 546 LINE"
);
}
);
width = 647;
}
);
leftKerningGroup = a;
note = acircumflexgrave;
rightKerningGroup = a;
unicode = 1EA7;
},
{
glyphname = acircumflexhookabove;
lastChange = "2015-10-28 04:34:47 +0000";
layers = (
{
layerId = "72ACC467-88F1-4B5B-B511-FE0603CECF6A";
name = "Light Italic";
paths = (
{
closed = 1;
nodes = (
"366 -15 OFFCURVE",
"443 23 OFFCURVE",
"504 98 CURVE",
"484 0 LINE",
"536 0 LINE",
"638 480 LINE",
"585 480 LINE",
"564 382 LINE",
"534 457 OFFCURVE",
"462 495 OFFCURVE",
"369 495 CURVE SMOOTH",
"222 495 OFFCURVE",
"98 397 OFFCURVE",
"64 239 CURVE SMOOTH",
"30 82 OFFCURVE",
"124 -15 OFFCURVE",
"260 -15 CURVE SMOOTH"
);
},
{
closed = 1;
nodes = (
"153 27 OFFCURVE",
"87 106 OFFCURVE",
"115 239 CURVE SMOOTH",
"142 368 OFFCURVE",
"254 452 OFFCURVE",
"368 452 CURVE SMOOTH",
"477 452 OFFCURVE",
"538 398 OFFCURVE",
"547 304 CURVE",
"519 173 LINE",
"471 81 OFFCURVE",
"378 27 OFFCURVE",
"277 27 CURVE SMOOTH"
);
},
{
closed = 1;
nodes = (
"358 546 LINE",
"472 637 LINE",
"548 546 LINE",
"600 546 LINE",
"497 670 LINE",
"460 670 LINE",
"304 546 LINE"
);
},
{
closed = 1;
nodes = (
"594 630 LINE",
"599 656 LINE",
"644 660 OFFCURVE",
"674 685 OFFCURVE",
"681 719 CURVE SMOOTH",
"689 757 OFFCURVE",
"669 783 OFFCURVE",
"617 783 CURVE SMOOTH",
"597 783 OFFCURVE",
"575 779 OFFCURVE",
"561 774 CURVE",
"555 744 LINE",
"567 749 OFFCURVE",
"587 752 OFFCURVE",
"603 752 CURVE SMOOTH",
"633 752 OFFCURVE",
"645 743 OFFCURVE",
"640 719 CURVE SMOOTH",
"634 691 OFFCURVE",
"612 680 OFFCURVE",
"569 680 CURVE",
"559 630 LINE"
);
}
);
width = 647;
}
);
leftKerningGroup = a;
note = acircumflexhookabove;
rightKerningGroup = a;
unicode = 1EA9;
},
{
glyphname = acircumflextilde;
lastChange = "2015-10-28 04:34:49 +0000";
layers = (
{
layerId = "72ACC467-88F1-4B5B-B511-FE0603CECF6A";
name = "Light Italic";
paths = (
{
closed = 1;
nodes = (
"366 -15 OFFCURVE",
"443 23 OFFCURVE",
"504 98 CURVE",
"484 0 LINE",
"536 0 LINE",
"638 480 LINE",
"585 480 LINE",
"564 382 LINE",
"534 457 OFFCURVE",
"462 495 OFFCURVE",
"369 495 CURVE SMOOTH",
"222 495 OFFCURVE",
"98 397 OFFCURVE",
"64 239 CURVE SMOOTH",
"30 82 OFFCURVE",
"124 -15 OFFCURVE",
"260 -15 CURVE SMOOTH"
);
},
{
closed = 1;
nodes = (
"153 27 OFFCURVE",
"87 106 OFFCURVE",
"115 239 CURVE SMOOTH",
"142 368 OFFCURVE",
"254 452 OFFCURVE",
"368 452 CURVE SMOOTH",
"477 452 OFFCURVE",
"538 398 OFFCURVE",
"547 304 CURVE",
"519 173 LINE",
"471 81 OFFCURVE",
"378 27 OFFCURVE",
"277 27 CURVE SMOOTH"
);
},
{
closed = 1;
nodes = (
"359 546 LINE",
"473 637 LINE",
"549 546 LINE",
"601 546 LINE",
"498 670 LINE",
"461 670 LINE",
"305 546 LINE"
);
},
{
closed = 1;
nodes = (
"366 719 OFFCURVE",
"390 729 OFFCURVE",
"420 729 CURVE SMOOTH",
"469 729 OFFCURVE",
"504 684 OFFCURVE",
"561 684 CURVE SMOOTH",
"594 684 OFFCURVE",
"622 694 OFFCURVE",
"644 721 CURVE",
"654 766 LINE",
"624 731 OFFCURVE",
"598 721 OFFCURVE",
"569 721 CURVE SMOOTH",
"519 721 OFFCURVE",
"481 766 OFFCURVE",
"428 766 CURVE SMOOTH",
"394 766 OFFCURVE",
"367 756 OFFCURVE",
"344 729 CURVE",
"334 683 LINE"
);
}
);
width = 647;
}
);
leftKerningGroup = a;
note = acircumflextilde;
rightKerningGroup = a;
unicode = 1EAB;
},
{
glyphname = adieresis;
lastChange = "2015-10-28 04:34:47 +0000";
layers = (
{
layerId = "72ACC467-88F1-4B5B-B511-FE0603CECF6A";
name = "Light Italic";
paths = (
{
closed = 1;
nodes = (
"366 -15 OFFCURVE",
"443 23 OFFCURVE",
"504 98 CURVE",
"484 0 LINE",
"536 0 LINE",
"638 480 LINE",
"585 480 LINE",
"564 382 LINE",
"534 457 OFFCURVE",
"462 495 OFFCURVE",
"369 495 CURVE SMOOTH",
"222 495 OFFCURVE",
"98 397 OFFCURVE",
"64 239 CURVE SMOOTH",
"30 82 OFFCURVE",
"124 -15 OFFCURVE",
"260 -15 CURVE SMOOTH"
);
},
{
closed = 1;
nodes = (
"153 27 OFFCURVE",
"87 106 OFFCURVE",
"115 239 CURVE SMOOTH",
"142 368 OFFCURVE",
"254 452 OFFCURVE",
"368 452 CURVE SMOOTH",
"477 452 OFFCURVE",
"538 398 OFFCURVE",
"547 304 CURVE",
"519 173 LINE",
"471 81 OFFCURVE",
"378 27 OFFCURVE",
"277 27 CURVE SMOOTH"
);
},
{
closed = 1;
nodes = (
"377 553 OFFCURVE",
"399 571 OFFCURVE",
"404 592 CURVE",
"408 613 OFFCURVE",
"394 630 OFFCURVE",
"374 630 CURVE SMOOTH",
"353 630 OFFCURVE",
"332 613 OFFCURVE",
"328 592 CURVE",
"323 571 OFFCURVE",
"336 553 OFFCURVE",
"357 553 CURVE SMOOTH"
);
},
{
closed = 1;
nodes = (
"585 553 OFFCURVE",
"607 571 OFFCURVE",
"612 592 CURVE",
"616 613 OFFCURVE",
"602 630 OFFCURVE",
"581 630 CURVE SMOOTH",
"560 630 OFFCURVE",
"538 613 OFFCURVE",
"534 592 CURVE",
"529 571 OFFCURVE",
"543 553 OFFCURVE",
"564 553 CURVE SMOOTH"
);
}
);
width = 647;
}
);
leftKerningGroup = a;
note = adieresis;
rightKerningGroup = a;
unicode = 00E4;
},
{
glyphname = adotbelow;
lastChange = "2015-10-28 04:34:48 +0000";
layers = (
{
layerId = "72ACC467-88F1-4B5B-B511-FE0603CECF6A";
name = "Light Italic";
paths = (
{
closed = 1;
nodes = (
"366 -15 OFFCURVE",
"443 23 OFFCURVE",
"504 98 CURVE",
"484 0 LINE",
"536 0 LINE",
"638 480 LINE",
"585 480 LINE",
"564 382 LINE",
"534 457 OFFCURVE",
"462 495 OFFCURVE",
"369 495 CURVE SMOOTH",
"222 495 OFFCURVE",
"98 397 OFFCURVE",
"64 239 CURVE SMOOTH",
"30 82 OFFCURVE",
"124 -15 OFFCURVE",
"260 -15 CURVE SMOOTH"
);
},
{
closed = 1;
nodes = (
"315 -137 OFFCURVE",
"336 -119 OFFCURVE",
"341 -98 CURVE",
"345 -77 OFFCURVE",
"331 -60 OFFCURVE",
"312 -60 CURVE SMOOTH",
"291 -60 OFFCURVE",
"269 -77 OFFCURVE",
"265 -98 CURVE",
"260 -119 OFFCURVE",
"274 -137 OFFCURVE",
"295 -137 CURVE SMOOTH"
);
},
{
closed = 1;
nodes = (
"153 27 OFFCURVE",
"87 106 OFFCURVE",
"115 239 CURVE SMOOTH",
"142 368 OFFCURVE",
"254 452 OFFCURVE",
"368 452 CURVE SMOOTH",
"477 452 OFFCURVE",
"538 398 OFFCURVE",
"547 304 CURVE",
"519 173 LINE",
"471 81 OFFCURVE",
"378 27 OFFCURVE",
"277 27 CURVE SMOOTH"
);
}
);
width = 647;
}
);
leftKerningGroup = a;
note = adotbelow;
rightKerningGroup = a;
unicode = 1EA1;
},
{
glyphname = agrave;
lastChange = "2015-10-28 04:34:46 +0000";
layers = (
{
layerId = "72ACC467-88F1-4B5B-B511-FE0603CECF6A";
name = "Light Italic";
paths = (
{
closed = 1;
nodes = (
"366 -15 OFFCURVE",
"443 23 OFFCURVE",
"504 98 CURVE",
"484 0 LINE",
"536 0 LINE",
"638 480 LINE",
"585 480 LINE",
"564 382 LINE",
"534 457 OFFCURVE",
"462 495 OFFCURVE",
"369 495 CURVE SMOOTH",
"222 495 OFFCURVE",
"98 397 OFFCURVE",
"64 239 CURVE SMOOTH",
"30 82 OFFCURVE",
"124 -15 OFFCURVE",
"260 -15 CURVE SMOOTH"
);
},
{
closed = 1;
nodes = (
"153 27 OFFCURVE",
"87 106 OFFCURVE",
"115 239 CURVE SMOOTH",
"142 368 OFFCURVE",
"254 452 OFFCURVE",
"368 452 CURVE SMOOTH",
"477 452 OFFCURVE",
"538 398 OFFCURVE",
"547 304 CURVE",
"519 173 LINE",
"471 81 OFFCURVE",
"378 27 OFFCURVE",
"277 27 CURVE SMOOTH"
);
},
{
closed = 1;
nodes = (
"500 568 LINE",
"467 737 LINE",
"412 737 LINE",
"455 568 LINE"
);
}
);
width = 647;
}
);
leftKerningGroup = a;
note = agrave;
rightKerningGroup = a;
unicode = 00E0;
},
{
glyphname = ahookabove;
lastChange = "2015-10-28 04:34:46 +0000";
layers = (
{
layerId = "72ACC467-88F1-4B5B-B511-FE0603CECF6A";
name = "Light Italic";
paths = (
{
closed = 1;
nodes = (
"366 -15 OFFCURVE",
"443 23 OFFCURVE",
"504 98 CURVE",
"484 0 LINE",
"536 0 LINE",
"638 480 LINE",
"585 480 LINE",
"564 382 LINE",
"534 457 OFFCURVE",
"462 495 OFFCURVE",
"369 495 CURVE SMOOTH",
"222 495 OFFCURVE",
"98 397 OFFCURVE",
"64 239 CURVE SMOOTH",
"30 82 OFFCURVE",
"124 -15 OFFCURVE",
"260 -15 CURVE SMOOTH"
);
},
{
closed = 1;
nodes = (
"153 27 OFFCURVE",
"87 106 OFFCURVE",
"115 239 CURVE SMOOTH",
"142 368 OFFCURVE",
"254 452 OFFCURVE",
"368 452 CURVE SMOOTH",
"477 452 OFFCURVE",
"538 398 OFFCURVE",
"547 304 CURVE",
"519 173 LINE",
"471 81 OFFCURVE",
"378 27 OFFCURVE",
"277 27 CURVE SMOOTH"
);
},
{
closed = 1;
nodes = (
"478 545 LINE",
"486 584 LINE",
"550 589 OFFCURVE",
"590 626 OFFCURVE",
"600 675 CURVE SMOOTH",
"611 727 OFFCURVE",
"582 764 OFFCURVE",
"507 764 CURVE SMOOTH",
"483 764 OFFCURVE",
"455 760 OFFCURVE",
"439 755 CURVE",
"432 720 LINE",
"445 726 OFFCURVE",
"474 729 OFFCURVE",
"492 729 CURVE SMOOTH",
"539 729 OFFCURVE",
"561 712 OFFCURVE",
"553 673 CURVE SMOOTH",
"544 630 OFFCURVE",
"515 610 OFFCURVE",
"447 610 CURVE",
"433 545 LINE"
);
}
);
width = 647;
}
);
leftKerningGroup = a;
note = ahookabove;
rightKerningGroup = a;
unicode = 1EA3;
},
{
glyphname = "alpha-latin";
lastChange = "2015-10-28 04:34:47 +0000";
layers = (
{
layerId = "72ACC467-88F1-4B5B-B511-FE0603CECF6A";
name = "Light Italic";
paths = (
{
closed = 1;
nodes = (
"359 -15 OFFCURVE",
"442 24 OFFCURVE",
"504 98 CURVE",
"484 0 LINE",
"536 0 LINE",
"638 480 LINE",
"585 480 LINE",
"564 382 LINE",
"539 457 OFFCURVE",
"462 495 OFFCURVE",
"369 495 CURVE SMOOTH",
"224 495 OFFCURVE",
"97 393 OFFCURVE",
"64 239 CURVE SMOOTH",
"31 82 OFFCURVE",
"126 -15 OFFCURVE",
"260 -15 CURVE SMOOTH"
);
},
{
closed = 1;
nodes = (
"152 27 OFFCURVE",
"88 110 OFFCURVE",
"115 239 CURVE SMOOTH",
"143 368 OFFCURVE",
"254 452 OFFCURVE",
"368 452 CURVE SMOOTH",
"470 452 OFFCURVE",
"541 397 OFFCURVE",
"547 304 CURVE",
"519 173 LINE",
"471 81 OFFCURVE",
"378 27 OFFCURVE",
"277 27 CURVE SMOOTH"
);
}
);
width = 651;
}
);
leftKerningGroup = a;
note = ascript;
rightKerningGroup = a;
unicode = 0251;
},
{
glyphname = amacron;
lastChange = "2015-10-28 04:34:47 +0000";
layers = (
{
layerId = "72ACC467-88F1-4B5B-B511-FE0603CECF6A";
name = "Light Italic";
paths = (
{
closed = 1;
nodes = (
"366 -15 OFFCURVE",
"443 23 OFFCURVE",
"504 98 CURVE",
"484 0 LINE",
"536 0 LINE",
"638 480 LINE",
"585 480 LINE",
"564 382 LINE",
"534 457 OFFCURVE",
"462 495 OFFCURVE",
"369 495 CURVE SMOOTH",
"222 495 OFFCURVE",
"98 397 OFFCURVE",
"64 239 CURVE SMOOTH",
"30 82 OFFCURVE",
"124 -15 OFFCURVE",
"260 -15 CURVE SMOOTH"
);
},
{
closed = 1;
nodes = (
"153 27 OFFCURVE",
"87 106 OFFCURVE",
"115 239 CURVE SMOOTH",
"142 368 OFFCURVE",
"254 452 OFFCURVE",
"368 452 CURVE SMOOTH",
"477 452 OFFCURVE",
"538 398 OFFCURVE",
"547 304 CURVE",
"519 173 LINE",
"471 81 OFFCURVE",
"378 27 OFFCURVE",
"277 27 CURVE SMOOTH"
);
},
{
closed = 1;
nodes = (
"612 574 LINE",
"620 613 LINE",
"331 613 LINE",
"324 574 LINE"
);
}
);
width = 647;
}
);
leftKerningGroup = a;
note = amacron;
rightKerningGroup = a;
unicode = 0101;
},
{
glyphname = aogonek;
lastChange = "2015-10-28 04:34:50 +0000";
layers = (
{
layerId = "72ACC467-88F1-4B5B-B511-FE0603CECF6A";
name = "Light Italic";
paths = (
{
closed = 1;
nodes = (
"478 -208 OFFCURVE",
"498 -205 OFFCURVE",
"512 -199 CURVE",
"520 -162 LINE",
"507 -167 OFFCURVE",
"490 -171 OFFCURVE",
"473 -171 CURVE SMOOTH",
"441 -171 OFFCURVE",
"425 -155 OFFCURVE",
"432 -119 CURVE SMOOTH",
"442 -73 OFFCURVE",
"479 -35 OFFCURVE",
"536 0 CURVE",
"638 480 LINE",
"585 480 LINE",
"564 382 LINE",
"534 457 OFFCURVE",
"462 495 OFFCURVE",
"369 495 CURVE SMOOTH",
"222 495 OFFCURVE",
"98 397 OFFCURVE",
"64 239 CURVE SMOOTH",
"30 82 OFFCURVE",
"124 -15 OFFCURVE",
"260 -15 CURVE SMOOTH",
"366 -15 OFFCURVE",
"443 23 OFFCURVE",
"504 98 CURVE",
"484 0 LINE",
"439 -27 OFFCURVE",
"395 -72 OFFCURVE",
"384 -124 CURVE SMOOTH",
"372 -181 OFFCURVE",
"407 -208 OFFCURVE",
"455 -208 CURVE SMOOTH"
);
},
{
closed = 1;
nodes = (
"153 27 OFFCURVE",
"87 106 OFFCURVE",
"115 239 CURVE SMOOTH",
"142 368 OFFCURVE",
"254 452 OFFCURVE",
"368 452 CURVE SMOOTH",
"477 452 OFFCURVE",
"538 398 OFFCURVE",
"547 304 CURVE",
"519 173 LINE",
"471 81 OFFCURVE",
"378 27 OFFCURVE",
"277 27 CURVE SMOOTH"
);
}
);
width = 658;
}
);
leftKerningGroup = a;
note = aogonek;
rightKerningGroup = a;
unicode = 0105;
},
